%TF.GenerationSoftware,KiCad,Pcbnew,(5.1.6)-1*%
%TF.CreationDate,2020-10-11T10:25:28+02:00*%
%TF.ProjectId,CaptureTheFlag,43617074-7572-4655-9468-65466c61672e,rev?*%
%TF.SameCoordinates,Original*%
%TF.FileFunction,Soldermask,Bot*%
%TF.FilePolarity,Negative*%
%FSLAX46Y46*%
G04 Gerber Fmt 4.6, Leading zero omitted, Abs format (unit mm)*
G04 Created by KiCad (PCBNEW (5.1.6)-1) date 2020-10-11 10:25:28*
%MOMM*%
%LPD*%
G01*
G04 APERTURE LIST*
%ADD10R,1.800000X1.800000*%
%ADD11O,1.800000X1.800000*%
%ADD12R,1.700000X1.700000*%
%ADD13O,1.700000X1.700000*%
%ADD14C,1.880000*%
%ADD15R,2.100000X2.100000*%
%ADD16C,2.100000*%
%ADD17C,6.500000*%
%ADD18C,0.900000*%
G04 APERTURE END LIST*
D10*
%TO.C,J3*%
X154940000Y-88900000D03*
D11*
X157480000Y-88900000D03*
X160020000Y-88900000D03*
X162560000Y-88900000D03*
X165100000Y-88900000D03*
X167640000Y-88900000D03*
X170180000Y-88900000D03*
X172720000Y-88900000D03*
%TD*%
D12*
%TO.C,A1*%
X182245000Y-104140000D03*
D13*
X149225000Y-119380000D03*
X179705000Y-104140000D03*
X151765000Y-119380000D03*
X177165000Y-104140000D03*
X154305000Y-119380000D03*
X174625000Y-104140000D03*
X156845000Y-119380000D03*
X172085000Y-104140000D03*
X159385000Y-119380000D03*
X169545000Y-104140000D03*
X161925000Y-119380000D03*
X167005000Y-104140000D03*
X164465000Y-119380000D03*
X164465000Y-104140000D03*
X167005000Y-119380000D03*
X161925000Y-104140000D03*
X169545000Y-119380000D03*
X159385000Y-104140000D03*
X172085000Y-119380000D03*
X156845000Y-104140000D03*
X174625000Y-119380000D03*
X154305000Y-104140000D03*
X177165000Y-119380000D03*
X151765000Y-104140000D03*
X179705000Y-119380000D03*
X149225000Y-104140000D03*
X182245000Y-119380000D03*
X146685000Y-104140000D03*
X146685000Y-119380000D03*
D14*
X184785000Y-104140000D03*
X184785000Y-119380000D03*
X144145000Y-119380000D03*
X144145000Y-104140000D03*
%TD*%
D15*
%TO.C,BZ1*%
X180340000Y-91440000D03*
D16*
X187940000Y-91440000D03*
%TD*%
D17*
%TO.C,H1*%
X205740000Y-88900000D03*
D18*
X208140000Y-88900000D03*
X207437056Y-90597056D03*
X205740000Y-91300000D03*
X204042944Y-90597056D03*
X203340000Y-88900000D03*
X204042944Y-87202944D03*
X205740000Y-86500000D03*
X207437056Y-87202944D03*
%TD*%
%TO.C,H2*%
X207437056Y-138002944D03*
X205740000Y-137300000D03*
X204042944Y-138002944D03*
X203340000Y-139700000D03*
X204042944Y-141397056D03*
X205740000Y-142100000D03*
X207437056Y-141397056D03*
X208140000Y-139700000D03*
D17*
X205740000Y-139700000D03*
%TD*%
%TO.C,H3*%
X119380000Y-139700000D03*
D18*
X121780000Y-139700000D03*
X121077056Y-141397056D03*
X119380000Y-142100000D03*
X117682944Y-141397056D03*
X116980000Y-139700000D03*
X117682944Y-138002944D03*
X119380000Y-137300000D03*
X121077056Y-138002944D03*
%TD*%
%TO.C,H4*%
X121077056Y-87202944D03*
X119380000Y-86500000D03*
X117682944Y-87202944D03*
X116980000Y-88900000D03*
X117682944Y-90597056D03*
X119380000Y-91300000D03*
X121077056Y-90597056D03*
X121780000Y-88900000D03*
D17*
X119380000Y-88900000D03*
%TD*%
D10*
%TO.C,J1*%
X205740000Y-129540000D03*
D11*
X205740000Y-127000000D03*
X205740000Y-124460000D03*
X205740000Y-121920000D03*
%TD*%
%TO.C,J2*%
X119380000Y-106680000D03*
X119380000Y-104140000D03*
X119380000Y-101600000D03*
D10*
X119380000Y-99060000D03*
%TD*%
%TO.C,J4*%
X182245000Y-129540000D03*
D11*
X179705000Y-129540000D03*
%TD*%
M02*
