%TF.GenerationSoftware,KiCad,Pcbnew,(5.1.6)-1*%
%TF.CreationDate,2020-10-11T10:25:28+02:00*%
%TF.ProjectId,CaptureTheFlag,43617074-7572-4655-9468-65466c61672e,rev?*%
%TF.SameCoordinates,Original*%
%TF.FileFunction,Legend,Top*%
%TF.FilePolarity,Positive*%
%FSLAX46Y46*%
G04 Gerber Fmt 4.6, Leading zero omitted, Abs format (unit mm)*
G04 Created by KiCad (PCBNEW (5.1.6)-1) date 2020-10-11 10:25:28*
%MOMM*%
%LPD*%
G01*
G04 APERTURE LIST*
%ADD10C,0.150000*%
%ADD11C,0.100000*%
%ADD12C,0.010000*%
%ADD13C,0.120000*%
G04 APERTURE END LIST*
D10*
X134882095Y-111212380D02*
X134882095Y-112021904D01*
X134929714Y-112117142D01*
X134977333Y-112164761D01*
X135072571Y-112212380D01*
X135263047Y-112212380D01*
X135358285Y-112164761D01*
X135405904Y-112117142D01*
X135453523Y-112021904D01*
X135453523Y-111212380D01*
X135882095Y-112164761D02*
X136024952Y-112212380D01*
X136263047Y-112212380D01*
X136358285Y-112164761D01*
X136405904Y-112117142D01*
X136453523Y-112021904D01*
X136453523Y-111926666D01*
X136405904Y-111831428D01*
X136358285Y-111783809D01*
X136263047Y-111736190D01*
X136072571Y-111688571D01*
X135977333Y-111640952D01*
X135929714Y-111593333D01*
X135882095Y-111498095D01*
X135882095Y-111402857D01*
X135929714Y-111307619D01*
X135977333Y-111260000D01*
X136072571Y-111212380D01*
X136310666Y-111212380D01*
X136453523Y-111260000D01*
X137215428Y-111688571D02*
X137358285Y-111736190D01*
X137405904Y-111783809D01*
X137453523Y-111879047D01*
X137453523Y-112021904D01*
X137405904Y-112117142D01*
X137358285Y-112164761D01*
X137263047Y-112212380D01*
X136882095Y-112212380D01*
X136882095Y-111212380D01*
X137215428Y-111212380D01*
X137310666Y-111260000D01*
X137358285Y-111307619D01*
X137405904Y-111402857D01*
X137405904Y-111498095D01*
X137358285Y-111593333D01*
X137310666Y-111640952D01*
X137215428Y-111688571D01*
X136882095Y-111688571D01*
D11*
G36*
X141224000Y-114808000D02*
G01*
X139192000Y-114808000D01*
X139192000Y-108712000D01*
X141224000Y-108712000D01*
X141224000Y-114808000D01*
G37*
X141224000Y-114808000D02*
X139192000Y-114808000D01*
X139192000Y-108712000D01*
X141224000Y-108712000D01*
X141224000Y-114808000D01*
D10*
X161943023Y-136184142D02*
X161895404Y-136231761D01*
X161752547Y-136279380D01*
X161657309Y-136279380D01*
X161514452Y-136231761D01*
X161419214Y-136136523D01*
X161371595Y-136041285D01*
X161323976Y-135850809D01*
X161323976Y-135707952D01*
X161371595Y-135517476D01*
X161419214Y-135422238D01*
X161514452Y-135327000D01*
X161657309Y-135279380D01*
X161752547Y-135279380D01*
X161895404Y-135327000D01*
X161943023Y-135374619D01*
X162800166Y-136279380D02*
X162800166Y-135755571D01*
X162752547Y-135660333D01*
X162657309Y-135612714D01*
X162466833Y-135612714D01*
X162371595Y-135660333D01*
X162800166Y-136231761D02*
X162704928Y-136279380D01*
X162466833Y-136279380D01*
X162371595Y-136231761D01*
X162323976Y-136136523D01*
X162323976Y-136041285D01*
X162371595Y-135946047D01*
X162466833Y-135898428D01*
X162704928Y-135898428D01*
X162800166Y-135850809D01*
X163276357Y-135612714D02*
X163276357Y-136612714D01*
X163276357Y-135660333D02*
X163371595Y-135612714D01*
X163562071Y-135612714D01*
X163657309Y-135660333D01*
X163704928Y-135707952D01*
X163752547Y-135803190D01*
X163752547Y-136088904D01*
X163704928Y-136184142D01*
X163657309Y-136231761D01*
X163562071Y-136279380D01*
X163371595Y-136279380D01*
X163276357Y-136231761D01*
X164038261Y-135612714D02*
X164419214Y-135612714D01*
X164181119Y-135279380D02*
X164181119Y-136136523D01*
X164228738Y-136231761D01*
X164323976Y-136279380D01*
X164419214Y-136279380D01*
X165181119Y-135612714D02*
X165181119Y-136279380D01*
X164752547Y-135612714D02*
X164752547Y-136136523D01*
X164800166Y-136231761D01*
X164895404Y-136279380D01*
X165038261Y-136279380D01*
X165133500Y-136231761D01*
X165181119Y-136184142D01*
X165657309Y-136279380D02*
X165657309Y-135612714D01*
X165657309Y-135803190D02*
X165704928Y-135707952D01*
X165752547Y-135660333D01*
X165847785Y-135612714D01*
X165943023Y-135612714D01*
X166657309Y-136231761D02*
X166562071Y-136279380D01*
X166371595Y-136279380D01*
X166276357Y-136231761D01*
X166228738Y-136136523D01*
X166228738Y-135755571D01*
X166276357Y-135660333D01*
X166371595Y-135612714D01*
X166562071Y-135612714D01*
X166657309Y-135660333D01*
X166704928Y-135755571D01*
X166704928Y-135850809D01*
X166228738Y-135946047D01*
X167752547Y-135279380D02*
X168323976Y-135279380D01*
X168038261Y-136279380D02*
X168038261Y-135279380D01*
X168657309Y-136279380D02*
X168657309Y-135279380D01*
X169085880Y-136279380D02*
X169085880Y-135755571D01*
X169038261Y-135660333D01*
X168943023Y-135612714D01*
X168800166Y-135612714D01*
X168704928Y-135660333D01*
X168657309Y-135707952D01*
X169943023Y-136231761D02*
X169847785Y-136279380D01*
X169657309Y-136279380D01*
X169562071Y-136231761D01*
X169514452Y-136136523D01*
X169514452Y-135755571D01*
X169562071Y-135660333D01*
X169657309Y-135612714D01*
X169847785Y-135612714D01*
X169943023Y-135660333D01*
X169990642Y-135755571D01*
X169990642Y-135850809D01*
X169514452Y-135946047D01*
X171514452Y-135755571D02*
X171181119Y-135755571D01*
X171181119Y-136279380D02*
X171181119Y-135279380D01*
X171657309Y-135279380D01*
X172181119Y-136279380D02*
X172085880Y-136231761D01*
X172038261Y-136136523D01*
X172038261Y-135279380D01*
X172990642Y-136279380D02*
X172990642Y-135755571D01*
X172943023Y-135660333D01*
X172847785Y-135612714D01*
X172657309Y-135612714D01*
X172562071Y-135660333D01*
X172990642Y-136231761D02*
X172895404Y-136279380D01*
X172657309Y-136279380D01*
X172562071Y-136231761D01*
X172514452Y-136136523D01*
X172514452Y-136041285D01*
X172562071Y-135946047D01*
X172657309Y-135898428D01*
X172895404Y-135898428D01*
X172990642Y-135850809D01*
X173895404Y-135612714D02*
X173895404Y-136422238D01*
X173847785Y-136517476D01*
X173800166Y-136565095D01*
X173704928Y-136612714D01*
X173562071Y-136612714D01*
X173466833Y-136565095D01*
X173895404Y-136231761D02*
X173800166Y-136279380D01*
X173609690Y-136279380D01*
X173514452Y-136231761D01*
X173466833Y-136184142D01*
X173419214Y-136088904D01*
X173419214Y-135803190D01*
X173466833Y-135707952D01*
X173514452Y-135660333D01*
X173609690Y-135612714D01*
X173800166Y-135612714D01*
X173895404Y-135660333D01*
X175038261Y-135612714D02*
X175276357Y-136279380D01*
X175514452Y-135612714D01*
X176419214Y-136279380D02*
X175847785Y-136279380D01*
X176133500Y-136279380D02*
X176133500Y-135279380D01*
X176038261Y-135422238D01*
X175943023Y-135517476D01*
X175847785Y-135565095D01*
X161371595Y-137929380D02*
X161371595Y-136929380D01*
X161800166Y-137929380D02*
X161800166Y-137405571D01*
X161752547Y-137310333D01*
X161657309Y-137262714D01*
X161514452Y-137262714D01*
X161419214Y-137310333D01*
X161371595Y-137357952D01*
X162133500Y-137262714D02*
X162514452Y-137262714D01*
X162276357Y-136929380D02*
X162276357Y-137786523D01*
X162323976Y-137881761D01*
X162419214Y-137929380D01*
X162514452Y-137929380D01*
X162704928Y-137262714D02*
X163085880Y-137262714D01*
X162847785Y-136929380D02*
X162847785Y-137786523D01*
X162895404Y-137881761D01*
X162990642Y-137929380D01*
X163085880Y-137929380D01*
X163419214Y-137262714D02*
X163419214Y-138262714D01*
X163419214Y-137310333D02*
X163514452Y-137262714D01*
X163704928Y-137262714D01*
X163800166Y-137310333D01*
X163847785Y-137357952D01*
X163895404Y-137453190D01*
X163895404Y-137738904D01*
X163847785Y-137834142D01*
X163800166Y-137881761D01*
X163704928Y-137929380D01*
X163514452Y-137929380D01*
X163419214Y-137881761D01*
X164276357Y-137881761D02*
X164371595Y-137929380D01*
X164562071Y-137929380D01*
X164657309Y-137881761D01*
X164704928Y-137786523D01*
X164704928Y-137738904D01*
X164657309Y-137643666D01*
X164562071Y-137596047D01*
X164419214Y-137596047D01*
X164323976Y-137548428D01*
X164276357Y-137453190D01*
X164276357Y-137405571D01*
X164323976Y-137310333D01*
X164419214Y-137262714D01*
X164562071Y-137262714D01*
X164657309Y-137310333D01*
X165133500Y-137834142D02*
X165181119Y-137881761D01*
X165133500Y-137929380D01*
X165085880Y-137881761D01*
X165133500Y-137834142D01*
X165133500Y-137929380D01*
X165133500Y-137310333D02*
X165181119Y-137357952D01*
X165133500Y-137405571D01*
X165085880Y-137357952D01*
X165133500Y-137310333D01*
X165133500Y-137405571D01*
X166323976Y-136881761D02*
X165466833Y-138167476D01*
X167371595Y-136881761D02*
X166514452Y-138167476D01*
X168133500Y-137262714D02*
X168133500Y-138072238D01*
X168085880Y-138167476D01*
X168038261Y-138215095D01*
X167943023Y-138262714D01*
X167800166Y-138262714D01*
X167704928Y-138215095D01*
X168133500Y-137881761D02*
X168038261Y-137929380D01*
X167847785Y-137929380D01*
X167752547Y-137881761D01*
X167704928Y-137834142D01*
X167657309Y-137738904D01*
X167657309Y-137453190D01*
X167704928Y-137357952D01*
X167752547Y-137310333D01*
X167847785Y-137262714D01*
X168038261Y-137262714D01*
X168133500Y-137310333D01*
X168609690Y-137929380D02*
X168609690Y-137262714D01*
X168609690Y-136929380D02*
X168562071Y-136977000D01*
X168609690Y-137024619D01*
X168657309Y-136977000D01*
X168609690Y-136929380D01*
X168609690Y-137024619D01*
X168943023Y-137262714D02*
X169323976Y-137262714D01*
X169085880Y-136929380D02*
X169085880Y-137786523D01*
X169133500Y-137881761D01*
X169228738Y-137929380D01*
X169323976Y-137929380D01*
X169657309Y-137929380D02*
X169657309Y-136929380D01*
X170085880Y-137929380D02*
X170085880Y-137405571D01*
X170038261Y-137310333D01*
X169943023Y-137262714D01*
X169800166Y-137262714D01*
X169704928Y-137310333D01*
X169657309Y-137357952D01*
X170990642Y-137262714D02*
X170990642Y-137929380D01*
X170562071Y-137262714D02*
X170562071Y-137786523D01*
X170609690Y-137881761D01*
X170704928Y-137929380D01*
X170847785Y-137929380D01*
X170943023Y-137881761D01*
X170990642Y-137834142D01*
X171466833Y-137929380D02*
X171466833Y-136929380D01*
X171466833Y-137310333D02*
X171562071Y-137262714D01*
X171752547Y-137262714D01*
X171847785Y-137310333D01*
X171895404Y-137357952D01*
X171943023Y-137453190D01*
X171943023Y-137738904D01*
X171895404Y-137834142D01*
X171847785Y-137881761D01*
X171752547Y-137929380D01*
X171562071Y-137929380D01*
X171466833Y-137881761D01*
X172371595Y-137834142D02*
X172419214Y-137881761D01*
X172371595Y-137929380D01*
X172323976Y-137881761D01*
X172371595Y-137834142D01*
X172371595Y-137929380D01*
X173276357Y-137881761D02*
X173181119Y-137929380D01*
X172990642Y-137929380D01*
X172895404Y-137881761D01*
X172847785Y-137834142D01*
X172800166Y-137738904D01*
X172800166Y-137453190D01*
X172847785Y-137357952D01*
X172895404Y-137310333D01*
X172990642Y-137262714D01*
X173181119Y-137262714D01*
X173276357Y-137310333D01*
X173847785Y-137929380D02*
X173752547Y-137881761D01*
X173704928Y-137834142D01*
X173657309Y-137738904D01*
X173657309Y-137453190D01*
X173704928Y-137357952D01*
X173752547Y-137310333D01*
X173847785Y-137262714D01*
X173990642Y-137262714D01*
X174085880Y-137310333D01*
X174133500Y-137357952D01*
X174181119Y-137453190D01*
X174181119Y-137738904D01*
X174133500Y-137834142D01*
X174085880Y-137881761D01*
X173990642Y-137929380D01*
X173847785Y-137929380D01*
X174609690Y-137929380D02*
X174609690Y-137262714D01*
X174609690Y-137357952D02*
X174657309Y-137310333D01*
X174752547Y-137262714D01*
X174895404Y-137262714D01*
X174990642Y-137310333D01*
X175038261Y-137405571D01*
X175038261Y-137929380D01*
X175038261Y-137405571D02*
X175085880Y-137310333D01*
X175181119Y-137262714D01*
X175323976Y-137262714D01*
X175419214Y-137310333D01*
X175466833Y-137405571D01*
X175466833Y-137929380D01*
X176657309Y-136881761D02*
X175800166Y-138167476D01*
X176990642Y-137929380D02*
X176990642Y-136929380D01*
X176990642Y-137405571D02*
X177562071Y-137405571D01*
X177562071Y-137929380D02*
X177562071Y-136929380D01*
X178466833Y-137929380D02*
X178466833Y-137405571D01*
X178419214Y-137310333D01*
X178323976Y-137262714D01*
X178133500Y-137262714D01*
X178038261Y-137310333D01*
X178466833Y-137881761D02*
X178371595Y-137929380D01*
X178133500Y-137929380D01*
X178038261Y-137881761D01*
X177990642Y-137786523D01*
X177990642Y-137691285D01*
X178038261Y-137596047D01*
X178133500Y-137548428D01*
X178371595Y-137548428D01*
X178466833Y-137500809D01*
X178943023Y-137262714D02*
X178943023Y-137929380D01*
X178943023Y-137357952D02*
X178990642Y-137310333D01*
X179085880Y-137262714D01*
X179228738Y-137262714D01*
X179323976Y-137310333D01*
X179371595Y-137405571D01*
X179371595Y-137929380D01*
X180276357Y-137262714D02*
X180276357Y-138262714D01*
X180276357Y-137881761D02*
X180181119Y-137929380D01*
X179990642Y-137929380D01*
X179895404Y-137881761D01*
X179847785Y-137834142D01*
X179800166Y-137738904D01*
X179800166Y-137453190D01*
X179847785Y-137357952D01*
X179895404Y-137310333D01*
X179990642Y-137262714D01*
X180181119Y-137262714D01*
X180276357Y-137310333D01*
X181181119Y-137929380D02*
X181181119Y-137405571D01*
X181133500Y-137310333D01*
X181038261Y-137262714D01*
X180847785Y-137262714D01*
X180752547Y-137310333D01*
X181181119Y-137881761D02*
X181085880Y-137929380D01*
X180847785Y-137929380D01*
X180752547Y-137881761D01*
X180704928Y-137786523D01*
X180704928Y-137691285D01*
X180752547Y-137596047D01*
X180847785Y-137548428D01*
X181085880Y-137548428D01*
X181181119Y-137500809D01*
X182085880Y-137262714D02*
X182085880Y-138262714D01*
X182085880Y-137881761D02*
X181990642Y-137929380D01*
X181800166Y-137929380D01*
X181704928Y-137881761D01*
X181657309Y-137834142D01*
X181609690Y-137738904D01*
X181609690Y-137453190D01*
X181657309Y-137357952D01*
X181704928Y-137310333D01*
X181800166Y-137262714D01*
X181990642Y-137262714D01*
X182085880Y-137310333D01*
X182990642Y-137929380D02*
X182990642Y-137405571D01*
X182943023Y-137310333D01*
X182847785Y-137262714D01*
X182657309Y-137262714D01*
X182562071Y-137310333D01*
X182990642Y-137881761D02*
X182895404Y-137929380D01*
X182657309Y-137929380D01*
X182562071Y-137881761D01*
X182514452Y-137786523D01*
X182514452Y-137691285D01*
X182562071Y-137596047D01*
X182657309Y-137548428D01*
X182895404Y-137548428D01*
X182990642Y-137500809D01*
X184181119Y-136881761D02*
X183323976Y-138167476D01*
X185085880Y-137834142D02*
X185038261Y-137881761D01*
X184895404Y-137929380D01*
X184800166Y-137929380D01*
X184657309Y-137881761D01*
X184562071Y-137786523D01*
X184514452Y-137691285D01*
X184466833Y-137500809D01*
X184466833Y-137357952D01*
X184514452Y-137167476D01*
X184562071Y-137072238D01*
X184657309Y-136977000D01*
X184800166Y-136929380D01*
X184895404Y-136929380D01*
X185038261Y-136977000D01*
X185085880Y-137024619D01*
X185943023Y-137929380D02*
X185943023Y-137405571D01*
X185895404Y-137310333D01*
X185800166Y-137262714D01*
X185609690Y-137262714D01*
X185514452Y-137310333D01*
X185943023Y-137881761D02*
X185847785Y-137929380D01*
X185609690Y-137929380D01*
X185514452Y-137881761D01*
X185466833Y-137786523D01*
X185466833Y-137691285D01*
X185514452Y-137596047D01*
X185609690Y-137548428D01*
X185847785Y-137548428D01*
X185943023Y-137500809D01*
X186419214Y-137262714D02*
X186419214Y-138262714D01*
X186419214Y-137310333D02*
X186514452Y-137262714D01*
X186704928Y-137262714D01*
X186800166Y-137310333D01*
X186847785Y-137357952D01*
X186895404Y-137453190D01*
X186895404Y-137738904D01*
X186847785Y-137834142D01*
X186800166Y-137881761D01*
X186704928Y-137929380D01*
X186514452Y-137929380D01*
X186419214Y-137881761D01*
X187181119Y-137262714D02*
X187562071Y-137262714D01*
X187323976Y-136929380D02*
X187323976Y-137786523D01*
X187371595Y-137881761D01*
X187466833Y-137929380D01*
X187562071Y-137929380D01*
X188323976Y-137262714D02*
X188323976Y-137929380D01*
X187895404Y-137262714D02*
X187895404Y-137786523D01*
X187943023Y-137881761D01*
X188038261Y-137929380D01*
X188181119Y-137929380D01*
X188276357Y-137881761D01*
X188323976Y-137834142D01*
X188800166Y-137929380D02*
X188800166Y-137262714D01*
X188800166Y-137453190D02*
X188847785Y-137357952D01*
X188895404Y-137310333D01*
X188990642Y-137262714D01*
X189085880Y-137262714D01*
X189800166Y-137881761D02*
X189704928Y-137929380D01*
X189514452Y-137929380D01*
X189419214Y-137881761D01*
X189371595Y-137786523D01*
X189371595Y-137405571D01*
X189419214Y-137310333D01*
X189514452Y-137262714D01*
X189704928Y-137262714D01*
X189800166Y-137310333D01*
X189847785Y-137405571D01*
X189847785Y-137500809D01*
X189371595Y-137596047D01*
X190133500Y-136929380D02*
X190704928Y-136929380D01*
X190419214Y-137929380D02*
X190419214Y-136929380D01*
X191038261Y-137929380D02*
X191038261Y-136929380D01*
X191466833Y-137929380D02*
X191466833Y-137405571D01*
X191419214Y-137310333D01*
X191323976Y-137262714D01*
X191181119Y-137262714D01*
X191085880Y-137310333D01*
X191038261Y-137357952D01*
X192323976Y-137881761D02*
X192228738Y-137929380D01*
X192038261Y-137929380D01*
X191943023Y-137881761D01*
X191895404Y-137786523D01*
X191895404Y-137405571D01*
X191943023Y-137310333D01*
X192038261Y-137262714D01*
X192228738Y-137262714D01*
X192323976Y-137310333D01*
X192371595Y-137405571D01*
X192371595Y-137500809D01*
X191895404Y-137596047D01*
X193133499Y-137405571D02*
X192800166Y-137405571D01*
X192800166Y-137929380D02*
X192800166Y-136929380D01*
X193276357Y-136929380D01*
X193800166Y-137929380D02*
X193704928Y-137881761D01*
X193657309Y-137786523D01*
X193657309Y-136929380D01*
X194609690Y-137929380D02*
X194609690Y-137405571D01*
X194562071Y-137310333D01*
X194466833Y-137262714D01*
X194276357Y-137262714D01*
X194181119Y-137310333D01*
X194609690Y-137881761D02*
X194514452Y-137929380D01*
X194276357Y-137929380D01*
X194181119Y-137881761D01*
X194133499Y-137786523D01*
X194133499Y-137691285D01*
X194181119Y-137596047D01*
X194276357Y-137548428D01*
X194514452Y-137548428D01*
X194609690Y-137500809D01*
X195514452Y-137262714D02*
X195514452Y-138072238D01*
X195466833Y-138167476D01*
X195419214Y-138215095D01*
X195323976Y-138262714D01*
X195181119Y-138262714D01*
X195085880Y-138215095D01*
X195514452Y-137881761D02*
X195419214Y-137929380D01*
X195228738Y-137929380D01*
X195133499Y-137881761D01*
X195085880Y-137834142D01*
X195038261Y-137738904D01*
X195038261Y-137453190D01*
X195085880Y-137357952D01*
X195133499Y-137310333D01*
X195228738Y-137262714D01*
X195419214Y-137262714D01*
X195514452Y-137310333D01*
X172172380Y-94186190D02*
X172172380Y-93567142D01*
X172553333Y-93900476D01*
X172553333Y-93757619D01*
X172600952Y-93662380D01*
X172648571Y-93614761D01*
X172743809Y-93567142D01*
X172981904Y-93567142D01*
X173077142Y-93614761D01*
X173124761Y-93662380D01*
X173172380Y-93757619D01*
X173172380Y-94043333D01*
X173124761Y-94138571D01*
X173077142Y-94186190D01*
X173077142Y-93138571D02*
X173124761Y-93090952D01*
X173172380Y-93138571D01*
X173124761Y-93186190D01*
X173077142Y-93138571D01*
X173172380Y-93138571D01*
X172172380Y-92757619D02*
X172172380Y-92138571D01*
X172553333Y-92471904D01*
X172553333Y-92329047D01*
X172600952Y-92233809D01*
X172648571Y-92186190D01*
X172743809Y-92138571D01*
X172981904Y-92138571D01*
X173077142Y-92186190D01*
X173124761Y-92233809D01*
X173172380Y-92329047D01*
X173172380Y-92614761D01*
X173124761Y-92710000D01*
X173077142Y-92757619D01*
X172172380Y-91852857D02*
X173172380Y-91519523D01*
X172172380Y-91186190D01*
X170632380Y-93257619D02*
X170156190Y-93590952D01*
X170632380Y-93829047D02*
X169632380Y-93829047D01*
X169632380Y-93448095D01*
X169680000Y-93352857D01*
X169727619Y-93305238D01*
X169822857Y-93257619D01*
X169965714Y-93257619D01*
X170060952Y-93305238D01*
X170108571Y-93352857D01*
X170156190Y-93448095D01*
X170156190Y-93829047D01*
X170584761Y-92876666D02*
X170632380Y-92733809D01*
X170632380Y-92495714D01*
X170584761Y-92400476D01*
X170537142Y-92352857D01*
X170441904Y-92305238D01*
X170346666Y-92305238D01*
X170251428Y-92352857D01*
X170203809Y-92400476D01*
X170156190Y-92495714D01*
X170108571Y-92686190D01*
X170060952Y-92781428D01*
X170013333Y-92829047D01*
X169918095Y-92876666D01*
X169822857Y-92876666D01*
X169727619Y-92829047D01*
X169680000Y-92781428D01*
X169632380Y-92686190D01*
X169632380Y-92448095D01*
X169680000Y-92305238D01*
X169632380Y-92019523D02*
X169632380Y-91448095D01*
X170632380Y-91733809D02*
X169632380Y-91733809D01*
X167140000Y-93471904D02*
X167092380Y-93567142D01*
X167092380Y-93710000D01*
X167140000Y-93852857D01*
X167235238Y-93948095D01*
X167330476Y-93995714D01*
X167520952Y-94043333D01*
X167663809Y-94043333D01*
X167854285Y-93995714D01*
X167949523Y-93948095D01*
X168044761Y-93852857D01*
X168092380Y-93710000D01*
X168092380Y-93614761D01*
X168044761Y-93471904D01*
X167997142Y-93424285D01*
X167663809Y-93424285D01*
X167663809Y-93614761D01*
X168092380Y-92995714D02*
X167092380Y-92995714D01*
X168092380Y-92424285D01*
X167092380Y-92424285D01*
X168092380Y-91948095D02*
X167092380Y-91948095D01*
X167092380Y-91710000D01*
X167140000Y-91567142D01*
X167235238Y-91471904D01*
X167330476Y-91424285D01*
X167520952Y-91376666D01*
X167663809Y-91376666D01*
X167854285Y-91424285D01*
X167949523Y-91471904D01*
X168044761Y-91567142D01*
X168092380Y-91710000D01*
X168092380Y-91948095D01*
X163012380Y-94281428D02*
X162012380Y-94281428D01*
X162726666Y-93948095D01*
X162012380Y-93614761D01*
X163012380Y-93614761D01*
X163012380Y-93138571D02*
X162012380Y-93138571D01*
X162964761Y-92710000D02*
X163012380Y-92567142D01*
X163012380Y-92329047D01*
X162964761Y-92233809D01*
X162917142Y-92186190D01*
X162821904Y-92138571D01*
X162726666Y-92138571D01*
X162631428Y-92186190D01*
X162583809Y-92233809D01*
X162536190Y-92329047D01*
X162488571Y-92519523D01*
X162440952Y-92614761D01*
X162393333Y-92662380D01*
X162298095Y-92710000D01*
X162202857Y-92710000D01*
X162107619Y-92662380D01*
X162060000Y-92614761D01*
X162012380Y-92519523D01*
X162012380Y-92281428D01*
X162060000Y-92138571D01*
X162012380Y-91519523D02*
X162012380Y-91329047D01*
X162060000Y-91233809D01*
X162155238Y-91138571D01*
X162345714Y-91090952D01*
X162679047Y-91090952D01*
X162869523Y-91138571D01*
X162964761Y-91233809D01*
X163012380Y-91329047D01*
X163012380Y-91519523D01*
X162964761Y-91614761D01*
X162869523Y-91710000D01*
X162679047Y-91757619D01*
X162345714Y-91757619D01*
X162155238Y-91710000D01*
X162060000Y-91614761D01*
X162012380Y-91519523D01*
X160472380Y-94281428D02*
X159472380Y-94281428D01*
X160186666Y-93948095D01*
X159472380Y-93614761D01*
X160472380Y-93614761D01*
X159472380Y-92948095D02*
X159472380Y-92757619D01*
X159520000Y-92662380D01*
X159615238Y-92567142D01*
X159805714Y-92519523D01*
X160139047Y-92519523D01*
X160329523Y-92567142D01*
X160424761Y-92662380D01*
X160472380Y-92757619D01*
X160472380Y-92948095D01*
X160424761Y-93043333D01*
X160329523Y-93138571D01*
X160139047Y-93186190D01*
X159805714Y-93186190D01*
X159615238Y-93138571D01*
X159520000Y-93043333D01*
X159472380Y-92948095D01*
X160424761Y-92138571D02*
X160472380Y-91995714D01*
X160472380Y-91757619D01*
X160424761Y-91662380D01*
X160377142Y-91614761D01*
X160281904Y-91567142D01*
X160186666Y-91567142D01*
X160091428Y-91614761D01*
X160043809Y-91662380D01*
X159996190Y-91757619D01*
X159948571Y-91948095D01*
X159900952Y-92043333D01*
X159853333Y-92090952D01*
X159758095Y-92138571D01*
X159662857Y-92138571D01*
X159567619Y-92090952D01*
X159520000Y-92043333D01*
X159472380Y-91948095D01*
X159472380Y-91710000D01*
X159520000Y-91567142D01*
X160472380Y-91138571D02*
X159472380Y-91138571D01*
X157884761Y-93995714D02*
X157932380Y-93852857D01*
X157932380Y-93614761D01*
X157884761Y-93519523D01*
X157837142Y-93471904D01*
X157741904Y-93424285D01*
X157646666Y-93424285D01*
X157551428Y-93471904D01*
X157503809Y-93519523D01*
X157456190Y-93614761D01*
X157408571Y-93805238D01*
X157360952Y-93900476D01*
X157313333Y-93948095D01*
X157218095Y-93995714D01*
X157122857Y-93995714D01*
X157027619Y-93948095D01*
X156980000Y-93900476D01*
X156932380Y-93805238D01*
X156932380Y-93567142D01*
X156980000Y-93424285D01*
X157837142Y-92424285D02*
X157884761Y-92471904D01*
X157932380Y-92614761D01*
X157932380Y-92710000D01*
X157884761Y-92852857D01*
X157789523Y-92948095D01*
X157694285Y-92995714D01*
X157503809Y-93043333D01*
X157360952Y-93043333D01*
X157170476Y-92995714D01*
X157075238Y-92948095D01*
X156980000Y-92852857D01*
X156932380Y-92710000D01*
X156932380Y-92614761D01*
X156980000Y-92471904D01*
X157027619Y-92424285D01*
X157932380Y-91995714D02*
X156932380Y-91995714D01*
X157932380Y-91424285D02*
X157360952Y-91852857D01*
X156932380Y-91424285D02*
X157503809Y-91995714D01*
X155344761Y-93924285D02*
X155392380Y-93781428D01*
X155392380Y-93543333D01*
X155344761Y-93448095D01*
X155297142Y-93400476D01*
X155201904Y-93352857D01*
X155106666Y-93352857D01*
X155011428Y-93400476D01*
X154963809Y-93448095D01*
X154916190Y-93543333D01*
X154868571Y-93733809D01*
X154820952Y-93829047D01*
X154773333Y-93876666D01*
X154678095Y-93924285D01*
X154582857Y-93924285D01*
X154487619Y-93876666D01*
X154440000Y-93829047D01*
X154392380Y-93733809D01*
X154392380Y-93495714D01*
X154440000Y-93352857D01*
X155392380Y-92924285D02*
X154392380Y-92924285D01*
X154392380Y-92686190D01*
X154440000Y-92543333D01*
X154535238Y-92448095D01*
X154630476Y-92400476D01*
X154820952Y-92352857D01*
X154963809Y-92352857D01*
X155154285Y-92400476D01*
X155249523Y-92448095D01*
X155344761Y-92543333D01*
X155392380Y-92686190D01*
X155392380Y-92924285D01*
X155106666Y-91971904D02*
X155106666Y-91495714D01*
X155392380Y-92067142D02*
X154392380Y-91733809D01*
X155392380Y-91400476D01*
X179324047Y-132786428D02*
X180085952Y-132786428D01*
X181864047Y-132786428D02*
X182625952Y-132786428D01*
X182245000Y-133167380D02*
X182245000Y-132405476D01*
X121999523Y-107084761D02*
X122142380Y-107132380D01*
X122380476Y-107132380D01*
X122475714Y-107084761D01*
X122523333Y-107037142D01*
X122570952Y-106941904D01*
X122570952Y-106846666D01*
X122523333Y-106751428D01*
X122475714Y-106703809D01*
X122380476Y-106656190D01*
X122190000Y-106608571D01*
X122094761Y-106560952D01*
X122047142Y-106513333D01*
X121999523Y-106418095D01*
X121999523Y-106322857D01*
X122047142Y-106227619D01*
X122094761Y-106180000D01*
X122190000Y-106132380D01*
X122428095Y-106132380D01*
X122570952Y-106180000D01*
X123570952Y-107037142D02*
X123523333Y-107084761D01*
X123380476Y-107132380D01*
X123285238Y-107132380D01*
X123142380Y-107084761D01*
X123047142Y-106989523D01*
X122999523Y-106894285D01*
X122951904Y-106703809D01*
X122951904Y-106560952D01*
X122999523Y-106370476D01*
X123047142Y-106275238D01*
X123142380Y-106180000D01*
X123285238Y-106132380D01*
X123380476Y-106132380D01*
X123523333Y-106180000D01*
X123570952Y-106227619D01*
X124475714Y-107132380D02*
X123999523Y-107132380D01*
X123999523Y-106132380D01*
X121975714Y-104544761D02*
X122118571Y-104592380D01*
X122356666Y-104592380D01*
X122451904Y-104544761D01*
X122499523Y-104497142D01*
X122547142Y-104401904D01*
X122547142Y-104306666D01*
X122499523Y-104211428D01*
X122451904Y-104163809D01*
X122356666Y-104116190D01*
X122166190Y-104068571D01*
X122070952Y-104020952D01*
X122023333Y-103973333D01*
X121975714Y-103878095D01*
X121975714Y-103782857D01*
X122023333Y-103687619D01*
X122070952Y-103640000D01*
X122166190Y-103592380D01*
X122404285Y-103592380D01*
X122547142Y-103640000D01*
X122975714Y-104592380D02*
X122975714Y-103592380D01*
X123213809Y-103592380D01*
X123356666Y-103640000D01*
X123451904Y-103735238D01*
X123499523Y-103830476D01*
X123547142Y-104020952D01*
X123547142Y-104163809D01*
X123499523Y-104354285D01*
X123451904Y-104449523D01*
X123356666Y-104544761D01*
X123213809Y-104592380D01*
X122975714Y-104592380D01*
X123928095Y-104306666D02*
X124404285Y-104306666D01*
X123832857Y-104592380D02*
X124166190Y-103592380D01*
X124499523Y-104592380D01*
X122999523Y-101052380D02*
X122523333Y-101052380D01*
X122475714Y-101528571D01*
X122523333Y-101480952D01*
X122618571Y-101433333D01*
X122856666Y-101433333D01*
X122951904Y-101480952D01*
X122999523Y-101528571D01*
X123047142Y-101623809D01*
X123047142Y-101861904D01*
X122999523Y-101957142D01*
X122951904Y-102004761D01*
X122856666Y-102052380D01*
X122618571Y-102052380D01*
X122523333Y-102004761D01*
X122475714Y-101957142D01*
X123332857Y-101052380D02*
X123666190Y-102052380D01*
X123999523Y-101052380D01*
X122428095Y-98560000D02*
X122332857Y-98512380D01*
X122190000Y-98512380D01*
X122047142Y-98560000D01*
X121951904Y-98655238D01*
X121904285Y-98750476D01*
X121856666Y-98940952D01*
X121856666Y-99083809D01*
X121904285Y-99274285D01*
X121951904Y-99369523D01*
X122047142Y-99464761D01*
X122190000Y-99512380D01*
X122285238Y-99512380D01*
X122428095Y-99464761D01*
X122475714Y-99417142D01*
X122475714Y-99083809D01*
X122285238Y-99083809D01*
X122904285Y-99512380D02*
X122904285Y-98512380D01*
X123475714Y-99512380D01*
X123475714Y-98512380D01*
X123951904Y-99512380D02*
X123951904Y-98512380D01*
X124190000Y-98512380D01*
X124332857Y-98560000D01*
X124428095Y-98655238D01*
X124475714Y-98750476D01*
X124523333Y-98940952D01*
X124523333Y-99083809D01*
X124475714Y-99274285D01*
X124428095Y-99369523D01*
X124332857Y-99464761D01*
X124190000Y-99512380D01*
X123951904Y-99512380D01*
X201168095Y-129040000D02*
X201072857Y-128992380D01*
X200930000Y-128992380D01*
X200787142Y-129040000D01*
X200691904Y-129135238D01*
X200644285Y-129230476D01*
X200596666Y-129420952D01*
X200596666Y-129563809D01*
X200644285Y-129754285D01*
X200691904Y-129849523D01*
X200787142Y-129944761D01*
X200930000Y-129992380D01*
X201025238Y-129992380D01*
X201168095Y-129944761D01*
X201215714Y-129897142D01*
X201215714Y-129563809D01*
X201025238Y-129563809D01*
X201644285Y-129992380D02*
X201644285Y-128992380D01*
X202215714Y-129992380D01*
X202215714Y-128992380D01*
X202691904Y-129992380D02*
X202691904Y-128992380D01*
X202930000Y-128992380D01*
X203072857Y-129040000D01*
X203168095Y-129135238D01*
X203215714Y-129230476D01*
X203263333Y-129420952D01*
X203263333Y-129563809D01*
X203215714Y-129754285D01*
X203168095Y-129849523D01*
X203072857Y-129944761D01*
X202930000Y-129992380D01*
X202691904Y-129992380D01*
X201739523Y-126452380D02*
X201263333Y-126452380D01*
X201215714Y-126928571D01*
X201263333Y-126880952D01*
X201358571Y-126833333D01*
X201596666Y-126833333D01*
X201691904Y-126880952D01*
X201739523Y-126928571D01*
X201787142Y-127023809D01*
X201787142Y-127261904D01*
X201739523Y-127357142D01*
X201691904Y-127404761D01*
X201596666Y-127452380D01*
X201358571Y-127452380D01*
X201263333Y-127404761D01*
X201215714Y-127357142D01*
X202072857Y-126452380D02*
X202406190Y-127452380D01*
X202739523Y-126452380D01*
X200715714Y-124864761D02*
X200858571Y-124912380D01*
X201096666Y-124912380D01*
X201191904Y-124864761D01*
X201239523Y-124817142D01*
X201287142Y-124721904D01*
X201287142Y-124626666D01*
X201239523Y-124531428D01*
X201191904Y-124483809D01*
X201096666Y-124436190D01*
X200906190Y-124388571D01*
X200810952Y-124340952D01*
X200763333Y-124293333D01*
X200715714Y-124198095D01*
X200715714Y-124102857D01*
X200763333Y-124007619D01*
X200810952Y-123960000D01*
X200906190Y-123912380D01*
X201144285Y-123912380D01*
X201287142Y-123960000D01*
X201715714Y-124912380D02*
X201715714Y-123912380D01*
X201953809Y-123912380D01*
X202096666Y-123960000D01*
X202191904Y-124055238D01*
X202239523Y-124150476D01*
X202287142Y-124340952D01*
X202287142Y-124483809D01*
X202239523Y-124674285D01*
X202191904Y-124769523D01*
X202096666Y-124864761D01*
X201953809Y-124912380D01*
X201715714Y-124912380D01*
X202668095Y-124626666D02*
X203144285Y-124626666D01*
X202572857Y-124912380D02*
X202906190Y-123912380D01*
X203239523Y-124912380D01*
X200739523Y-122324761D02*
X200882380Y-122372380D01*
X201120476Y-122372380D01*
X201215714Y-122324761D01*
X201263333Y-122277142D01*
X201310952Y-122181904D01*
X201310952Y-122086666D01*
X201263333Y-121991428D01*
X201215714Y-121943809D01*
X201120476Y-121896190D01*
X200930000Y-121848571D01*
X200834761Y-121800952D01*
X200787142Y-121753333D01*
X200739523Y-121658095D01*
X200739523Y-121562857D01*
X200787142Y-121467619D01*
X200834761Y-121420000D01*
X200930000Y-121372380D01*
X201168095Y-121372380D01*
X201310952Y-121420000D01*
X202310952Y-122277142D02*
X202263333Y-122324761D01*
X202120476Y-122372380D01*
X202025238Y-122372380D01*
X201882380Y-122324761D01*
X201787142Y-122229523D01*
X201739523Y-122134285D01*
X201691904Y-121943809D01*
X201691904Y-121800952D01*
X201739523Y-121610476D01*
X201787142Y-121515238D01*
X201882380Y-121420000D01*
X202025238Y-121372380D01*
X202120476Y-121372380D01*
X202263333Y-121420000D01*
X202310952Y-121467619D01*
X203215714Y-122372380D02*
X202739523Y-122372380D01*
X202739523Y-121372380D01*
D12*
%TO.C,REF\u002A\u002A*%
G36*
X148066536Y-131728427D02*
G01*
X148179118Y-132325618D01*
X148594531Y-132496865D01*
X149009945Y-132668112D01*
X149508302Y-132329233D01*
X149647869Y-132234877D01*
X149774029Y-132150630D01*
X149880896Y-132080338D01*
X149962583Y-132027847D01*
X150013202Y-131997004D01*
X150026987Y-131990353D01*
X150051821Y-132007458D01*
X150104889Y-132054744D01*
X150180241Y-132126172D01*
X150271930Y-132215700D01*
X150374008Y-132317289D01*
X150480527Y-132424898D01*
X150585537Y-132532487D01*
X150683092Y-132634015D01*
X150767243Y-132723441D01*
X150832041Y-132794726D01*
X150871538Y-132841828D01*
X150880981Y-132857592D01*
X150867392Y-132886653D01*
X150829294Y-132950321D01*
X150770694Y-133042367D01*
X150695598Y-133156564D01*
X150608009Y-133286684D01*
X150557255Y-133360901D01*
X150464746Y-133496422D01*
X150382541Y-133618716D01*
X150314631Y-133721695D01*
X150265001Y-133799273D01*
X150237641Y-133845361D01*
X150233530Y-133855047D01*
X150242850Y-133882574D01*
X150268255Y-133946728D01*
X150305912Y-134038490D01*
X150351987Y-134148839D01*
X150402647Y-134268755D01*
X150454060Y-134389219D01*
X150502390Y-134501209D01*
X150543807Y-134595707D01*
X150574475Y-134663692D01*
X150590562Y-134696143D01*
X150591512Y-134697420D01*
X150616773Y-134703617D01*
X150684046Y-134717440D01*
X150786361Y-134737532D01*
X150916742Y-134762534D01*
X151068217Y-134791086D01*
X151156594Y-134807551D01*
X151318453Y-134838369D01*
X151464650Y-134867694D01*
X151587788Y-134893921D01*
X151680470Y-134915446D01*
X151735302Y-134930665D01*
X151746324Y-134935493D01*
X151757119Y-134968174D01*
X151765830Y-135041985D01*
X151772461Y-135148292D01*
X151777019Y-135278467D01*
X151779510Y-135423876D01*
X151779939Y-135575890D01*
X151778312Y-135725877D01*
X151774636Y-135865206D01*
X151768916Y-135985245D01*
X151761158Y-136077365D01*
X151751369Y-136132932D01*
X151745497Y-136144500D01*
X151710400Y-136158365D01*
X151636029Y-136178188D01*
X151532224Y-136201639D01*
X151408820Y-136226391D01*
X151365742Y-136234398D01*
X151158048Y-136272441D01*
X150993985Y-136303079D01*
X150868131Y-136327529D01*
X150775066Y-136347009D01*
X150709368Y-136362736D01*
X150665618Y-136375928D01*
X150638393Y-136387804D01*
X150622273Y-136399580D01*
X150620018Y-136401908D01*
X150597504Y-136439400D01*
X150563159Y-136512365D01*
X150520412Y-136611867D01*
X150472693Y-136728973D01*
X150423431Y-136854748D01*
X150376056Y-136980257D01*
X150333996Y-137096565D01*
X150300681Y-137194739D01*
X150279542Y-137265843D01*
X150274006Y-137300942D01*
X150274467Y-137302172D01*
X150293224Y-137330861D01*
X150335777Y-137393985D01*
X150397654Y-137484973D01*
X150474383Y-137597255D01*
X150561492Y-137724260D01*
X150586299Y-137760353D01*
X150674753Y-137891203D01*
X150752589Y-138010591D01*
X150815567Y-138111662D01*
X150859446Y-138187559D01*
X150879986Y-138231427D01*
X150880981Y-138236817D01*
X150863723Y-138265144D01*
X150816036Y-138321261D01*
X150744051Y-138399137D01*
X150653898Y-138492740D01*
X150551706Y-138596041D01*
X150443606Y-138703006D01*
X150335729Y-138807606D01*
X150234205Y-138903809D01*
X150145163Y-138985584D01*
X150074734Y-139046900D01*
X150029048Y-139081726D01*
X150016410Y-139087412D01*
X149986992Y-139074020D01*
X149926762Y-139037899D01*
X149845530Y-138985136D01*
X149783031Y-138942667D01*
X149669786Y-138864740D01*
X149535675Y-138772984D01*
X149401156Y-138681375D01*
X149328834Y-138632346D01*
X149084039Y-138466770D01*
X148878551Y-138577875D01*
X148784937Y-138626548D01*
X148705331Y-138664381D01*
X148651468Y-138685958D01*
X148637758Y-138688961D01*
X148621271Y-138666793D01*
X148588746Y-138604149D01*
X148542609Y-138506809D01*
X148485291Y-138380549D01*
X148419217Y-138231150D01*
X148346816Y-138064388D01*
X148270517Y-137886042D01*
X148192747Y-137701891D01*
X148115935Y-137517712D01*
X148042507Y-137339285D01*
X147974893Y-137172387D01*
X147915521Y-137022797D01*
X147866817Y-136896293D01*
X147831211Y-136798654D01*
X147811131Y-136735657D01*
X147807901Y-136714021D01*
X147833497Y-136686424D01*
X147889539Y-136641625D01*
X147964312Y-136588934D01*
X147970588Y-136584765D01*
X148163846Y-136430069D01*
X148319675Y-136249591D01*
X148436725Y-136049102D01*
X148513646Y-135834374D01*
X148549087Y-135611177D01*
X148541698Y-135385281D01*
X148490128Y-135162459D01*
X148393027Y-134948479D01*
X148364459Y-134901664D01*
X148215869Y-134712618D01*
X148040328Y-134560812D01*
X147843911Y-134447034D01*
X147632694Y-134372075D01*
X147412754Y-134336722D01*
X147190164Y-134341767D01*
X146971002Y-134387999D01*
X146761343Y-134476206D01*
X146567262Y-134607179D01*
X146507227Y-134660337D01*
X146354436Y-134826739D01*
X146243098Y-135001912D01*
X146166724Y-135198266D01*
X146124188Y-135392717D01*
X146113687Y-135611342D01*
X146148701Y-135831052D01*
X146225674Y-136044420D01*
X146341048Y-136244022D01*
X146491266Y-136422429D01*
X146672774Y-136572217D01*
X146696628Y-136588006D01*
X146772202Y-136639712D01*
X146829652Y-136684512D01*
X146857118Y-136713117D01*
X146857518Y-136714021D01*
X146851621Y-136744964D01*
X146828246Y-136815191D01*
X146789822Y-136918925D01*
X146738778Y-137050390D01*
X146677543Y-137203807D01*
X146608545Y-137373401D01*
X146534214Y-137553393D01*
X146456979Y-137738008D01*
X146379269Y-137921468D01*
X146303512Y-138097996D01*
X146232138Y-138261814D01*
X146167575Y-138407147D01*
X146112253Y-138528217D01*
X146068601Y-138619247D01*
X146039047Y-138674460D01*
X146027145Y-138688961D01*
X145990778Y-138677669D01*
X145922731Y-138647385D01*
X145834737Y-138603520D01*
X145786351Y-138577875D01*
X145580864Y-138466770D01*
X145336069Y-138632346D01*
X145211107Y-138717170D01*
X145074296Y-138810516D01*
X144946089Y-138898408D01*
X144881872Y-138942667D01*
X144791552Y-139003318D01*
X144715072Y-139051381D01*
X144662408Y-139080770D01*
X144645303Y-139086982D01*
X144620406Y-139070223D01*
X144565306Y-139023436D01*
X144485344Y-138951480D01*
X144385861Y-138859212D01*
X144272201Y-138751490D01*
X144200316Y-138682326D01*
X144074552Y-138558757D01*
X143965864Y-138448234D01*
X143878646Y-138355485D01*
X143817290Y-138285237D01*
X143786192Y-138242220D01*
X143783209Y-138233490D01*
X143797054Y-138200284D01*
X143835313Y-138133142D01*
X143893742Y-138038863D01*
X143968098Y-137924245D01*
X144054136Y-137796083D01*
X144078603Y-137760353D01*
X144167755Y-137630489D01*
X144247739Y-137513569D01*
X144314081Y-137416162D01*
X144362312Y-137344839D01*
X144387958Y-137306170D01*
X144390436Y-137302172D01*
X144386730Y-137271355D01*
X144367062Y-137203599D01*
X144334861Y-137107839D01*
X144293556Y-136993009D01*
X144246576Y-136868044D01*
X144197350Y-136741879D01*
X144149309Y-136623448D01*
X144105882Y-136521685D01*
X144070497Y-136445526D01*
X144046585Y-136403904D01*
X144044885Y-136401908D01*
X144030263Y-136390013D01*
X144005566Y-136378250D01*
X143965373Y-136365401D01*
X143904264Y-136350249D01*
X143816818Y-136331576D01*
X143697613Y-136308165D01*
X143541228Y-136278797D01*
X143342244Y-136242255D01*
X143299161Y-136234398D01*
X143171471Y-136209727D01*
X143060154Y-136185593D01*
X142975046Y-136164324D01*
X142925984Y-136148248D01*
X142919406Y-136144500D01*
X142908565Y-136111273D01*
X142899754Y-136037021D01*
X142892977Y-135930376D01*
X142888241Y-135799967D01*
X142885551Y-135654427D01*
X142884914Y-135502386D01*
X142886335Y-135352476D01*
X142889821Y-135213328D01*
X142895377Y-135093572D01*
X142903009Y-135001841D01*
X142912723Y-134946766D01*
X142918579Y-134935493D01*
X142951181Y-134924123D01*
X143025419Y-134905624D01*
X143133897Y-134881602D01*
X143269218Y-134853662D01*
X143423986Y-134823408D01*
X143508308Y-134807551D01*
X143668297Y-134777644D01*
X143810968Y-134750550D01*
X143929349Y-134727631D01*
X144016466Y-134710243D01*
X144065346Y-134699747D01*
X144073391Y-134697420D01*
X144086988Y-134671186D01*
X144115730Y-134607995D01*
X144155786Y-134516877D01*
X144203325Y-134406857D01*
X144254516Y-134286965D01*
X144305527Y-134166227D01*
X144352527Y-134053671D01*
X144391685Y-133958326D01*
X144419170Y-133889217D01*
X144431150Y-133855374D01*
X144431373Y-133853895D01*
X144417792Y-133827197D01*
X144379716Y-133765760D01*
X144321148Y-133675689D01*
X144246089Y-133563090D01*
X144158541Y-133434070D01*
X144107648Y-133359961D01*
X144014910Y-133224077D01*
X143932542Y-133100709D01*
X143864562Y-132996097D01*
X143814989Y-132916483D01*
X143787843Y-132868107D01*
X143783922Y-132857262D01*
X143800776Y-132832020D01*
X143847369Y-132778124D01*
X143917749Y-132701613D01*
X144005966Y-132608523D01*
X144106066Y-132504895D01*
X144212099Y-132396764D01*
X144318112Y-132290170D01*
X144418153Y-132191150D01*
X144506271Y-132105742D01*
X144576514Y-132039985D01*
X144622929Y-131999916D01*
X144638457Y-131990353D01*
X144663740Y-132003800D01*
X144724212Y-132041575D01*
X144813993Y-132099835D01*
X144927204Y-132174734D01*
X145057964Y-132262425D01*
X145156600Y-132329233D01*
X145654958Y-132668112D01*
X146070371Y-132496865D01*
X146485785Y-132325618D01*
X146598367Y-131728427D01*
X146710950Y-131131235D01*
X147953953Y-131131235D01*
X148066536Y-131728427D01*
G37*
X148066536Y-131728427D02*
X148179118Y-132325618D01*
X148594531Y-132496865D01*
X149009945Y-132668112D01*
X149508302Y-132329233D01*
X149647869Y-132234877D01*
X149774029Y-132150630D01*
X149880896Y-132080338D01*
X149962583Y-132027847D01*
X150013202Y-131997004D01*
X150026987Y-131990353D01*
X150051821Y-132007458D01*
X150104889Y-132054744D01*
X150180241Y-132126172D01*
X150271930Y-132215700D01*
X150374008Y-132317289D01*
X150480527Y-132424898D01*
X150585537Y-132532487D01*
X150683092Y-132634015D01*
X150767243Y-132723441D01*
X150832041Y-132794726D01*
X150871538Y-132841828D01*
X150880981Y-132857592D01*
X150867392Y-132886653D01*
X150829294Y-132950321D01*
X150770694Y-133042367D01*
X150695598Y-133156564D01*
X150608009Y-133286684D01*
X150557255Y-133360901D01*
X150464746Y-133496422D01*
X150382541Y-133618716D01*
X150314631Y-133721695D01*
X150265001Y-133799273D01*
X150237641Y-133845361D01*
X150233530Y-133855047D01*
X150242850Y-133882574D01*
X150268255Y-133946728D01*
X150305912Y-134038490D01*
X150351987Y-134148839D01*
X150402647Y-134268755D01*
X150454060Y-134389219D01*
X150502390Y-134501209D01*
X150543807Y-134595707D01*
X150574475Y-134663692D01*
X150590562Y-134696143D01*
X150591512Y-134697420D01*
X150616773Y-134703617D01*
X150684046Y-134717440D01*
X150786361Y-134737532D01*
X150916742Y-134762534D01*
X151068217Y-134791086D01*
X151156594Y-134807551D01*
X151318453Y-134838369D01*
X151464650Y-134867694D01*
X151587788Y-134893921D01*
X151680470Y-134915446D01*
X151735302Y-134930665D01*
X151746324Y-134935493D01*
X151757119Y-134968174D01*
X151765830Y-135041985D01*
X151772461Y-135148292D01*
X151777019Y-135278467D01*
X151779510Y-135423876D01*
X151779939Y-135575890D01*
X151778312Y-135725877D01*
X151774636Y-135865206D01*
X151768916Y-135985245D01*
X151761158Y-136077365D01*
X151751369Y-136132932D01*
X151745497Y-136144500D01*
X151710400Y-136158365D01*
X151636029Y-136178188D01*
X151532224Y-136201639D01*
X151408820Y-136226391D01*
X151365742Y-136234398D01*
X151158048Y-136272441D01*
X150993985Y-136303079D01*
X150868131Y-136327529D01*
X150775066Y-136347009D01*
X150709368Y-136362736D01*
X150665618Y-136375928D01*
X150638393Y-136387804D01*
X150622273Y-136399580D01*
X150620018Y-136401908D01*
X150597504Y-136439400D01*
X150563159Y-136512365D01*
X150520412Y-136611867D01*
X150472693Y-136728973D01*
X150423431Y-136854748D01*
X150376056Y-136980257D01*
X150333996Y-137096565D01*
X150300681Y-137194739D01*
X150279542Y-137265843D01*
X150274006Y-137300942D01*
X150274467Y-137302172D01*
X150293224Y-137330861D01*
X150335777Y-137393985D01*
X150397654Y-137484973D01*
X150474383Y-137597255D01*
X150561492Y-137724260D01*
X150586299Y-137760353D01*
X150674753Y-137891203D01*
X150752589Y-138010591D01*
X150815567Y-138111662D01*
X150859446Y-138187559D01*
X150879986Y-138231427D01*
X150880981Y-138236817D01*
X150863723Y-138265144D01*
X150816036Y-138321261D01*
X150744051Y-138399137D01*
X150653898Y-138492740D01*
X150551706Y-138596041D01*
X150443606Y-138703006D01*
X150335729Y-138807606D01*
X150234205Y-138903809D01*
X150145163Y-138985584D01*
X150074734Y-139046900D01*
X150029048Y-139081726D01*
X150016410Y-139087412D01*
X149986992Y-139074020D01*
X149926762Y-139037899D01*
X149845530Y-138985136D01*
X149783031Y-138942667D01*
X149669786Y-138864740D01*
X149535675Y-138772984D01*
X149401156Y-138681375D01*
X149328834Y-138632346D01*
X149084039Y-138466770D01*
X148878551Y-138577875D01*
X148784937Y-138626548D01*
X148705331Y-138664381D01*
X148651468Y-138685958D01*
X148637758Y-138688961D01*
X148621271Y-138666793D01*
X148588746Y-138604149D01*
X148542609Y-138506809D01*
X148485291Y-138380549D01*
X148419217Y-138231150D01*
X148346816Y-138064388D01*
X148270517Y-137886042D01*
X148192747Y-137701891D01*
X148115935Y-137517712D01*
X148042507Y-137339285D01*
X147974893Y-137172387D01*
X147915521Y-137022797D01*
X147866817Y-136896293D01*
X147831211Y-136798654D01*
X147811131Y-136735657D01*
X147807901Y-136714021D01*
X147833497Y-136686424D01*
X147889539Y-136641625D01*
X147964312Y-136588934D01*
X147970588Y-136584765D01*
X148163846Y-136430069D01*
X148319675Y-136249591D01*
X148436725Y-136049102D01*
X148513646Y-135834374D01*
X148549087Y-135611177D01*
X148541698Y-135385281D01*
X148490128Y-135162459D01*
X148393027Y-134948479D01*
X148364459Y-134901664D01*
X148215869Y-134712618D01*
X148040328Y-134560812D01*
X147843911Y-134447034D01*
X147632694Y-134372075D01*
X147412754Y-134336722D01*
X147190164Y-134341767D01*
X146971002Y-134387999D01*
X146761343Y-134476206D01*
X146567262Y-134607179D01*
X146507227Y-134660337D01*
X146354436Y-134826739D01*
X146243098Y-135001912D01*
X146166724Y-135198266D01*
X146124188Y-135392717D01*
X146113687Y-135611342D01*
X146148701Y-135831052D01*
X146225674Y-136044420D01*
X146341048Y-136244022D01*
X146491266Y-136422429D01*
X146672774Y-136572217D01*
X146696628Y-136588006D01*
X146772202Y-136639712D01*
X146829652Y-136684512D01*
X146857118Y-136713117D01*
X146857518Y-136714021D01*
X146851621Y-136744964D01*
X146828246Y-136815191D01*
X146789822Y-136918925D01*
X146738778Y-137050390D01*
X146677543Y-137203807D01*
X146608545Y-137373401D01*
X146534214Y-137553393D01*
X146456979Y-137738008D01*
X146379269Y-137921468D01*
X146303512Y-138097996D01*
X146232138Y-138261814D01*
X146167575Y-138407147D01*
X146112253Y-138528217D01*
X146068601Y-138619247D01*
X146039047Y-138674460D01*
X146027145Y-138688961D01*
X145990778Y-138677669D01*
X145922731Y-138647385D01*
X145834737Y-138603520D01*
X145786351Y-138577875D01*
X145580864Y-138466770D01*
X145336069Y-138632346D01*
X145211107Y-138717170D01*
X145074296Y-138810516D01*
X144946089Y-138898408D01*
X144881872Y-138942667D01*
X144791552Y-139003318D01*
X144715072Y-139051381D01*
X144662408Y-139080770D01*
X144645303Y-139086982D01*
X144620406Y-139070223D01*
X144565306Y-139023436D01*
X144485344Y-138951480D01*
X144385861Y-138859212D01*
X144272201Y-138751490D01*
X144200316Y-138682326D01*
X144074552Y-138558757D01*
X143965864Y-138448234D01*
X143878646Y-138355485D01*
X143817290Y-138285237D01*
X143786192Y-138242220D01*
X143783209Y-138233490D01*
X143797054Y-138200284D01*
X143835313Y-138133142D01*
X143893742Y-138038863D01*
X143968098Y-137924245D01*
X144054136Y-137796083D01*
X144078603Y-137760353D01*
X144167755Y-137630489D01*
X144247739Y-137513569D01*
X144314081Y-137416162D01*
X144362312Y-137344839D01*
X144387958Y-137306170D01*
X144390436Y-137302172D01*
X144386730Y-137271355D01*
X144367062Y-137203599D01*
X144334861Y-137107839D01*
X144293556Y-136993009D01*
X144246576Y-136868044D01*
X144197350Y-136741879D01*
X144149309Y-136623448D01*
X144105882Y-136521685D01*
X144070497Y-136445526D01*
X144046585Y-136403904D01*
X144044885Y-136401908D01*
X144030263Y-136390013D01*
X144005566Y-136378250D01*
X143965373Y-136365401D01*
X143904264Y-136350249D01*
X143816818Y-136331576D01*
X143697613Y-136308165D01*
X143541228Y-136278797D01*
X143342244Y-136242255D01*
X143299161Y-136234398D01*
X143171471Y-136209727D01*
X143060154Y-136185593D01*
X142975046Y-136164324D01*
X142925984Y-136148248D01*
X142919406Y-136144500D01*
X142908565Y-136111273D01*
X142899754Y-136037021D01*
X142892977Y-135930376D01*
X142888241Y-135799967D01*
X142885551Y-135654427D01*
X142884914Y-135502386D01*
X142886335Y-135352476D01*
X142889821Y-135213328D01*
X142895377Y-135093572D01*
X142903009Y-135001841D01*
X142912723Y-134946766D01*
X142918579Y-134935493D01*
X142951181Y-134924123D01*
X143025419Y-134905624D01*
X143133897Y-134881602D01*
X143269218Y-134853662D01*
X143423986Y-134823408D01*
X143508308Y-134807551D01*
X143668297Y-134777644D01*
X143810968Y-134750550D01*
X143929349Y-134727631D01*
X144016466Y-134710243D01*
X144065346Y-134699747D01*
X144073391Y-134697420D01*
X144086988Y-134671186D01*
X144115730Y-134607995D01*
X144155786Y-134516877D01*
X144203325Y-134406857D01*
X144254516Y-134286965D01*
X144305527Y-134166227D01*
X144352527Y-134053671D01*
X144391685Y-133958326D01*
X144419170Y-133889217D01*
X144431150Y-133855374D01*
X144431373Y-133853895D01*
X144417792Y-133827197D01*
X144379716Y-133765760D01*
X144321148Y-133675689D01*
X144246089Y-133563090D01*
X144158541Y-133434070D01*
X144107648Y-133359961D01*
X144014910Y-133224077D01*
X143932542Y-133100709D01*
X143864562Y-132996097D01*
X143814989Y-132916483D01*
X143787843Y-132868107D01*
X143783922Y-132857262D01*
X143800776Y-132832020D01*
X143847369Y-132778124D01*
X143917749Y-132701613D01*
X144005966Y-132608523D01*
X144106066Y-132504895D01*
X144212099Y-132396764D01*
X144318112Y-132290170D01*
X144418153Y-132191150D01*
X144506271Y-132105742D01*
X144576514Y-132039985D01*
X144622929Y-131999916D01*
X144638457Y-131990353D01*
X144663740Y-132003800D01*
X144724212Y-132041575D01*
X144813993Y-132099835D01*
X144927204Y-132174734D01*
X145057964Y-132262425D01*
X145156600Y-132329233D01*
X145654958Y-132668112D01*
X146070371Y-132496865D01*
X146485785Y-132325618D01*
X146598367Y-131728427D01*
X146710950Y-131131235D01*
X147953953Y-131131235D01*
X148066536Y-131728427D01*
D13*
%TO.C,J3*%
X174050000Y-90230000D02*
X174050000Y-87570000D01*
X156210000Y-90230000D02*
X174050000Y-90230000D01*
X156210000Y-87570000D02*
X174050000Y-87570000D01*
X156210000Y-90230000D02*
X156210000Y-87570000D01*
X154940000Y-90230000D02*
X153610000Y-90230000D01*
X153610000Y-90230000D02*
X153610000Y-88900000D01*
%TO.C,A1*%
X180975000Y-105410000D02*
X183515000Y-105410000D01*
X183515000Y-105410000D02*
X183515000Y-102740000D01*
X180975000Y-102740000D02*
X142745000Y-102740000D01*
X186185000Y-102740000D02*
X183515000Y-102740000D01*
X183515000Y-118110000D02*
X183515000Y-120780000D01*
X183515000Y-118110000D02*
X145415000Y-118110000D01*
X145415000Y-118110000D02*
X145415000Y-120780000D01*
X180975000Y-105410000D02*
X180975000Y-102740000D01*
X180975000Y-105410000D02*
X145415000Y-105410000D01*
X145415000Y-105410000D02*
X145415000Y-102740000D01*
X142745000Y-102740000D02*
X142745000Y-120780000D01*
X142745000Y-120780000D02*
X186185000Y-120780000D01*
X186185000Y-120780000D02*
X186185000Y-102740000D01*
%TO.C,BZ1*%
X190240000Y-91440000D02*
G75*
G03*
X190240000Y-91440000I-6100000J0D01*
G01*
%TO.C,J1*%
X207070000Y-120590000D02*
X204410000Y-120590000D01*
X207070000Y-128270000D02*
X207070000Y-120590000D01*
X204410000Y-128270000D02*
X204410000Y-120590000D01*
X207070000Y-128270000D02*
X204410000Y-128270000D01*
X207070000Y-129540000D02*
X207070000Y-130870000D01*
X207070000Y-130870000D02*
X205740000Y-130870000D01*
%TO.C,J2*%
X118050000Y-97730000D02*
X119380000Y-97730000D01*
X118050000Y-99060000D02*
X118050000Y-97730000D01*
X118050000Y-100330000D02*
X120710000Y-100330000D01*
X120710000Y-100330000D02*
X120710000Y-108010000D01*
X118050000Y-100330000D02*
X118050000Y-108010000D01*
X118050000Y-108010000D02*
X120710000Y-108010000D01*
%TO.C,J4*%
X178375000Y-128210000D02*
X178375000Y-130870000D01*
X180975000Y-128210000D02*
X178375000Y-128210000D01*
X180975000Y-130870000D02*
X178375000Y-130870000D01*
X180975000Y-128210000D02*
X180975000Y-130870000D01*
X182245000Y-128210000D02*
X183575000Y-128210000D01*
X183575000Y-128210000D02*
X183575000Y-129540000D01*
%TO.C,BZ1*%
D10*
X179949047Y-88971428D02*
X180710952Y-88971428D01*
X180330000Y-89352380D02*
X180330000Y-88590476D01*
%TD*%
M02*
