M48
; DRILL file {KiCad (5.1.6)-1} date 10/11/20 10:25:24
; FORMAT={-:-/ absolute / inch / decimal}
; #@! TF.CreationDate,2020-10-11T10:25:24+02:00
; #@! TF.GenerationSoftware,Kicad,Pcbnew,(5.1.6)-1
; #@! TF.FileFunction,Plated,1,2,PTH
FMAT,2
INCH
T1C0.0157
T2C0.0197
T3C0.0394
T4C0.1260
%
G90
G05
T1
X4.8Y-4.6
X4.8Y-4.8
X4.8Y-5.0
X4.8Y-5.2
X5.0Y-3.5
X5.0Y-3.7
X5.0Y-3.9
X5.0Y-4.8
X5.0Y-5.0
X5.0Y-5.2
X5.0Y-5.4
X5.2Y-3.5
X5.2Y-3.7
X5.2Y-3.9
X5.2Y-4.1
X5.2Y-5.0
X5.2Y-5.2
X5.2Y-5.4
X5.4Y-3.5
X5.4Y-3.7
X5.4Y-3.9
X5.4Y-4.1
X5.4Y-4.3
X5.4Y-5.2
X5.4Y-5.4
X5.6Y-3.5
X5.6Y-3.7
X5.6Y-3.9
X5.6Y-4.3
X5.6Y-4.5
X5.6Y-5.2
X5.6Y-5.4
X5.8Y-4.3
X5.8Y-4.5
X6.0Y-3.7
X6.0Y-3.9
X6.0Y-4.3
X6.0Y-5.2
X6.0Y-5.4
X6.2Y-3.7
X6.2Y-4.3
X6.2Y-5.2
X6.2Y-5.4
X6.4Y-3.9
X6.4Y-4.3
X6.4Y-4.5
X6.4Y-5.0
X6.4Y-5.2
X6.6Y-3.7
X6.6Y-3.9
X6.6Y-4.3
X6.6Y-4.5
X6.6Y-5.0
X6.6Y-5.2
X6.8Y-3.7
X6.8Y-3.9
X6.8Y-4.3
X6.8Y-4.5
X6.8Y-5.0
X6.8Y-5.2
X7.0Y-3.9
X7.0Y-4.3
X7.0Y-4.5
X7.2Y-4.3
X7.2Y-4.5
X7.4Y-5.0
X7.4Y-5.2
X7.6Y-3.6
X7.6Y-3.8
X7.6Y-4.0
X7.6Y-4.2
X7.6Y-4.4
X7.6Y-4.8
X7.6Y-5.0
X7.6Y-5.2
X7.8Y-3.6
X7.8Y-3.8
X7.8Y-4.0
X7.8Y-4.2
X7.8Y-4.4
X7.8Y-5.0
X7.8Y-5.2
X7.8Y-5.4
X8.0Y-3.8
X8.0Y-4.0
X8.0Y-4.2
X8.0Y-4.4
X8.1Y-4.68
T2
X4.6055Y-5.5
X4.6332Y-5.4332
X4.6332Y-5.5668
X4.7Y-5.4055
X4.7Y-5.5945
X4.7668Y-5.4332
X4.7668Y-5.5668
X4.7945Y-5.5
X8.0055Y-3.5
X8.0332Y-3.4332
X8.0332Y-3.5668
X8.1Y-3.4055
X8.1Y-3.5945
X8.1668Y-3.4332
X8.1668Y-3.5668
X8.1945Y-3.5
X8.0055Y-5.5
X8.0332Y-5.4332
X8.0332Y-5.5668
X8.1Y-5.4055
X8.1Y-5.5945
X8.1668Y-5.4332
X8.1668Y-5.5668
X8.1945Y-5.5
X4.6055Y-3.5
X4.6332Y-3.4332
X4.6332Y-3.5668
X4.7Y-3.4055
X4.7Y-3.5945
X4.7668Y-3.4332
X4.7668Y-3.5668
X4.7945Y-3.5
T3
X4.7Y-3.9
X4.7Y-4.0
X4.7Y-4.1
X4.7Y-4.2
X6.1Y-3.5
X6.2Y-3.5
X6.3Y-3.5
X6.4Y-3.5
X6.5Y-3.5
X6.6Y-3.5
X6.7Y-3.5
X6.8Y-3.5
X7.1Y-3.6
X7.3992Y-3.6
X5.775Y-4.1
X5.775Y-4.7
X5.875Y-4.1
X5.875Y-4.7
X5.975Y-4.1
X5.975Y-4.7
X6.075Y-4.1
X6.075Y-4.7
X6.175Y-4.1
X6.175Y-4.7
X6.275Y-4.1
X6.275Y-4.7
X6.375Y-4.1
X6.375Y-4.7
X6.475Y-4.1
X6.475Y-4.7
X6.575Y-4.1
X6.575Y-4.7
X6.675Y-4.1
X6.675Y-4.7
X6.775Y-4.1
X6.775Y-4.7
X6.875Y-4.1
X6.875Y-4.7
X6.975Y-4.1
X6.975Y-4.7
X7.075Y-4.1
X7.075Y-4.7
X7.175Y-4.1
X7.175Y-4.7
X8.1Y-4.8
X8.1Y-4.9
X8.1Y-5.0
X8.1Y-5.1
X7.075Y-5.1
X7.175Y-5.1
T4
X4.7Y-5.5
X8.1Y-3.5
X8.1Y-5.5
X4.7Y-3.5
T0
M30
