%TF.GenerationSoftware,KiCad,Pcbnew,(5.1.6)-1*%
%TF.CreationDate,2020-10-11T10:25:28+02:00*%
%TF.ProjectId,CaptureTheFlag,43617074-7572-4655-9468-65466c61672e,rev?*%
%TF.SameCoordinates,Original*%
%TF.FileFunction,Copper,L1,Top*%
%TF.FilePolarity,Positive*%
%FSLAX46Y46*%
G04 Gerber Fmt 4.6, Leading zero omitted, Abs format (unit mm)*
G04 Created by KiCad (PCBNEW (5.1.6)-1) date 2020-10-11 10:25:28*
%MOMM*%
%LPD*%
G01*
G04 APERTURE LIST*
%TA.AperFunction,ComponentPad*%
%ADD10R,1.700000X1.700000*%
%TD*%
%TA.AperFunction,ComponentPad*%
%ADD11O,1.700000X1.700000*%
%TD*%
%TA.AperFunction,ComponentPad*%
%ADD12R,1.600000X1.600000*%
%TD*%
%TA.AperFunction,ComponentPad*%
%ADD13O,1.600000X1.600000*%
%TD*%
%TA.AperFunction,ComponentPad*%
%ADD14R,2.000000X2.000000*%
%TD*%
%TA.AperFunction,ComponentPad*%
%ADD15C,2.000000*%
%TD*%
%TA.AperFunction,ComponentPad*%
%ADD16C,6.400000*%
%TD*%
%TA.AperFunction,ComponentPad*%
%ADD17C,0.800000*%
%TD*%
%TA.AperFunction,ViaPad*%
%ADD18C,0.800000*%
%TD*%
%TA.AperFunction,Conductor*%
%ADD19C,0.300000*%
%TD*%
%TA.AperFunction,Conductor*%
%ADD20C,0.254000*%
%TD*%
G04 APERTURE END LIST*
D10*
%TO.P,J3,1*%
%TO.N,SPI_SDA*%
X154940000Y-88900000D03*
D11*
%TO.P,J3,2*%
%TO.N,SPI_SCK*%
X157480000Y-88900000D03*
%TO.P,J3,3*%
%TO.N,SPI_MOSI*%
X160020000Y-88900000D03*
%TO.P,J3,4*%
%TO.N,SPI_MISO*%
X162560000Y-88900000D03*
%TO.P,J3,5*%
%TO.N,Net-(J3-Pad5)*%
X165100000Y-88900000D03*
%TO.P,J3,6*%
%TO.N,GND*%
X167640000Y-88900000D03*
%TO.P,J3,7*%
%TO.N,SPI_RST*%
X170180000Y-88900000D03*
%TO.P,J3,8*%
%TO.N,3.3V*%
X172720000Y-88900000D03*
%TD*%
D12*
%TO.P,A1,1*%
%TO.N,Net-(A1-Pad1)*%
X182245000Y-104140000D03*
D13*
%TO.P,A1,17*%
%TO.N,3.3V*%
X149225000Y-119380000D03*
%TO.P,A1,2*%
%TO.N,Net-(A1-Pad2)*%
X179705000Y-104140000D03*
%TO.P,A1,18*%
%TO.N,Net-(A1-Pad18)*%
X151765000Y-119380000D03*
%TO.P,A1,3*%
%TO.N,Net-(A1-Pad3)*%
X177165000Y-104140000D03*
%TO.P,A1,19*%
%TO.N,Net-(A1-Pad19)*%
X154305000Y-119380000D03*
%TO.P,A1,4*%
%TO.N,GND*%
X174625000Y-104140000D03*
%TO.P,A1,20*%
%TO.N,Net-(A1-Pad20)*%
X156845000Y-119380000D03*
%TO.P,A1,5*%
%TO.N,Net-(A1-Pad5)*%
X172085000Y-104140000D03*
%TO.P,A1,21*%
%TO.N,Net-(A1-Pad21)*%
X159385000Y-119380000D03*
%TO.P,A1,6*%
%TO.N,Net-(A1-Pad6)*%
X169545000Y-104140000D03*
%TO.P,A1,22*%
%TO.N,Net-(A1-Pad22)*%
X161925000Y-119380000D03*
%TO.P,A1,7*%
%TO.N,Net-(A1-Pad7)*%
X167005000Y-104140000D03*
%TO.P,A1,23*%
%TO.N,I2C_SDA*%
X164465000Y-119380000D03*
%TO.P,A1,8*%
%TO.N,Net-(A1-Pad8)*%
X164465000Y-104140000D03*
%TO.P,A1,24*%
%TO.N,I2C_SCL*%
X167005000Y-119380000D03*
%TO.P,A1,9*%
%TO.N,Net-(A1-Pad9)*%
X161925000Y-104140000D03*
%TO.P,A1,25*%
%TO.N,Net-(A1-Pad25)*%
X169545000Y-119380000D03*
%TO.P,A1,10*%
%TO.N,Net-(A1-Pad10)*%
X159385000Y-104140000D03*
%TO.P,A1,26*%
%TO.N,Net-(A1-Pad26)*%
X172085000Y-119380000D03*
%TO.P,A1,11*%
%TO.N,Net-(A1-Pad11)*%
X156845000Y-104140000D03*
%TO.P,A1,27*%
%TO.N,5V*%
X174625000Y-119380000D03*
%TO.P,A1,12*%
%TO.N,SPI_RST*%
X154305000Y-104140000D03*
%TO.P,A1,28*%
%TO.N,Net-(A1-Pad28)*%
X177165000Y-119380000D03*
%TO.P,A1,13*%
%TO.N,SPI_SDA*%
X151765000Y-104140000D03*
%TO.P,A1,29*%
%TO.N,GND*%
X179705000Y-119380000D03*
%TO.P,A1,14*%
%TO.N,SPI_MOSI*%
X149225000Y-104140000D03*
%TO.P,A1,30*%
%TO.N,VIN*%
X182245000Y-119380000D03*
%TO.P,A1,15*%
%TO.N,SPI_MISO*%
X146685000Y-104140000D03*
%TO.P,A1,16*%
%TO.N,SPI_SCK*%
X146685000Y-119380000D03*
%TD*%
D14*
%TO.P,BZ1,1*%
%TO.N,Net-(A1-Pad8)*%
X180340000Y-91440000D03*
D15*
%TO.P,BZ1,2*%
%TO.N,GND*%
X187940000Y-91440000D03*
%TD*%
D16*
%TO.P,H1,1*%
%TO.N,GND*%
X205740000Y-88900000D03*
D17*
X208140000Y-88900000D03*
X207437056Y-90597056D03*
X205740000Y-91300000D03*
X204042944Y-90597056D03*
X203340000Y-88900000D03*
X204042944Y-87202944D03*
X205740000Y-86500000D03*
X207437056Y-87202944D03*
%TD*%
%TO.P,H2,1*%
%TO.N,GND*%
X207437056Y-138002944D03*
X205740000Y-137300000D03*
X204042944Y-138002944D03*
X203340000Y-139700000D03*
X204042944Y-141397056D03*
X205740000Y-142100000D03*
X207437056Y-141397056D03*
X208140000Y-139700000D03*
D16*
X205740000Y-139700000D03*
%TD*%
%TO.P,H3,1*%
%TO.N,GND*%
X119380000Y-139700000D03*
D17*
X121780000Y-139700000D03*
X121077056Y-141397056D03*
X119380000Y-142100000D03*
X117682944Y-141397056D03*
X116980000Y-139700000D03*
X117682944Y-138002944D03*
X119380000Y-137300000D03*
X121077056Y-138002944D03*
%TD*%
%TO.P,H4,1*%
%TO.N,GND*%
X121077056Y-87202944D03*
X119380000Y-86500000D03*
X117682944Y-87202944D03*
X116980000Y-88900000D03*
X117682944Y-90597056D03*
X119380000Y-91300000D03*
X121077056Y-90597056D03*
X121780000Y-88900000D03*
D16*
X119380000Y-88900000D03*
%TD*%
D10*
%TO.P,J1,1*%
%TO.N,GND*%
X205740000Y-129540000D03*
D11*
%TO.P,J1,2*%
%TO.N,5V*%
X205740000Y-127000000D03*
%TO.P,J1,3*%
%TO.N,I2C_SDA*%
X205740000Y-124460000D03*
%TO.P,J1,4*%
%TO.N,I2C_SCL*%
X205740000Y-121920000D03*
%TD*%
%TO.P,J2,4*%
%TO.N,I2C_SCL*%
X119380000Y-106680000D03*
%TO.P,J2,3*%
%TO.N,I2C_SDA*%
X119380000Y-104140000D03*
%TO.P,J2,2*%
%TO.N,5V*%
X119380000Y-101600000D03*
D10*
%TO.P,J2,1*%
%TO.N,GND*%
X119380000Y-99060000D03*
%TD*%
%TO.P,J4,1*%
%TO.N,VIN*%
X182245000Y-129540000D03*
D11*
%TO.P,J4,2*%
%TO.N,GND*%
X179705000Y-129540000D03*
%TD*%
D18*
%TO.N,GND*%
X127000000Y-88900000D03*
X127000000Y-93980000D03*
X127000000Y-99060000D03*
X132080000Y-93980000D03*
X132080000Y-88900000D03*
X137160000Y-88900000D03*
X142240000Y-88900000D03*
X142240000Y-93980000D03*
X137160000Y-93980000D03*
X137160000Y-99060000D03*
X132080000Y-99060000D03*
X132080000Y-104140000D03*
X137160000Y-104140000D03*
X137160000Y-109220000D03*
X127000000Y-121920000D03*
X127000000Y-127000000D03*
X127000000Y-132080000D03*
X127000000Y-137160000D03*
X132080000Y-137160000D03*
X132080000Y-132080000D03*
X132080000Y-127000000D03*
X137160000Y-132080000D03*
X137160000Y-137160000D03*
X142240000Y-137160000D03*
X142240000Y-132080000D03*
X152400000Y-137160000D03*
X152400000Y-132080000D03*
X157480000Y-132080000D03*
X162560000Y-132080000D03*
X167640000Y-132080000D03*
X172720000Y-132080000D03*
X157480000Y-137160000D03*
X198120000Y-137160000D03*
X198120000Y-132080000D03*
X193040000Y-132080000D03*
X187960000Y-132080000D03*
X187960000Y-127000000D03*
X193040000Y-127000000D03*
X198120000Y-127000000D03*
X193040000Y-121920000D03*
X193040000Y-111760000D03*
X193040000Y-106680000D03*
X193040000Y-101600000D03*
X193040000Y-96520000D03*
X193040000Y-91440000D03*
X198120000Y-91440000D03*
X198120000Y-96520000D03*
X198120000Y-101600000D03*
X198120000Y-106680000D03*
X198120000Y-111760000D03*
X203200000Y-111760000D03*
X203200000Y-106680000D03*
X203200000Y-101600000D03*
X203200000Y-96520000D03*
X121920000Y-132080000D03*
X121920000Y-127000000D03*
X121920000Y-121920000D03*
X121920000Y-116840000D03*
X142240000Y-109220000D03*
X142240000Y-99060000D03*
X147320000Y-109220000D03*
X152400000Y-109220000D03*
X157480000Y-109220000D03*
X162560000Y-109220000D03*
X167640000Y-109220000D03*
X172720000Y-109220000D03*
X177800000Y-109220000D03*
X182880000Y-109220000D03*
X182880000Y-114300000D03*
X177800000Y-114300000D03*
X172720000Y-114300000D03*
X167640000Y-114300000D03*
X162560000Y-114300000D03*
X147320000Y-114300000D03*
X142240000Y-114300000D03*
X152400000Y-93980000D03*
X157480000Y-93980000D03*
X152400000Y-99060000D03*
X205740000Y-118872000D03*
X172720000Y-99060000D03*
X177800000Y-99060000D03*
X162560000Y-99060000D03*
X167640000Y-93980000D03*
X172720000Y-93980000D03*
X167640000Y-99060000D03*
X172720000Y-127000000D03*
X167640000Y-127000000D03*
X162560000Y-127000000D03*
%TD*%
D19*
%TO.N,I2C_SDA*%
X165302998Y-119380000D02*
X164465000Y-119380000D01*
X119380000Y-104140000D02*
X140335000Y-125095000D01*
X158750000Y-125095000D02*
X164465000Y-119380000D01*
X140335000Y-125095000D02*
X158750000Y-125095000D01*
X206375000Y-116840000D02*
X167005000Y-116840000D01*
X167005000Y-116840000D02*
X164465000Y-119380000D01*
X208280000Y-118745000D02*
X206375000Y-116840000D01*
X205740000Y-124460000D02*
X208280000Y-121920000D01*
X208280000Y-121920000D02*
X208280000Y-118745000D01*
%TO.N,Net-(A1-Pad8)*%
X177165000Y-91440000D02*
X180340000Y-91440000D01*
X164465000Y-104140000D02*
X177165000Y-91440000D01*
%TO.N,I2C_SCL*%
X166370000Y-119380000D02*
X167005000Y-119380000D01*
X169044990Y-117340010D02*
X167005000Y-119380000D01*
X205740000Y-121920000D02*
X201160010Y-117340010D01*
X201160010Y-117340010D02*
X169044990Y-117340010D01*
X165100000Y-121285000D02*
X167005000Y-119380000D01*
X120650000Y-106680000D02*
X139700000Y-125730000D01*
X158822120Y-125730000D02*
X163267120Y-121285000D01*
X139700000Y-125730000D02*
X158822120Y-125730000D01*
X119380000Y-106680000D02*
X120650000Y-106680000D01*
X163267120Y-121285000D02*
X165100000Y-121285000D01*
%TO.N,SPI_RST*%
X154940000Y-104140000D02*
X154305000Y-104140000D01*
X169545000Y-88900000D02*
X170180000Y-88900000D01*
X154305000Y-104140000D02*
X169545000Y-88900000D01*
%TO.N,SPI_SDA*%
X151765000Y-104140000D02*
X151765000Y-104067880D01*
X151765000Y-104067880D02*
X148590000Y-100892880D01*
X148590000Y-100892880D02*
X148590000Y-87630000D01*
X148590000Y-87630000D02*
X149225000Y-86995000D01*
X149225000Y-86995000D02*
X154305000Y-86995000D01*
X154940000Y-87630000D02*
X154940000Y-88900000D01*
X154305000Y-86995000D02*
X154940000Y-87630000D01*
%TO.N,SPI_MOSI*%
X147955000Y-85725000D02*
X159385000Y-85725000D01*
X160020000Y-86360000D02*
X160020000Y-88900000D01*
X147320000Y-86360000D02*
X147955000Y-85725000D01*
X159385000Y-85725000D02*
X160020000Y-86360000D01*
X149225000Y-104140000D02*
X147320000Y-102235000D01*
X147320000Y-102235000D02*
X147320000Y-101600000D01*
X147320000Y-86360000D02*
X147320000Y-101600000D01*
%TO.N,SPI_MISO*%
X147320000Y-104140000D02*
X146685000Y-104140000D01*
X146685000Y-104140000D02*
X146685000Y-85725000D01*
X146685000Y-85725000D02*
X147320000Y-85090000D01*
X147320000Y-85090000D02*
X161290000Y-85090000D01*
X162560000Y-86360000D02*
X162560000Y-88900000D01*
X161290000Y-85090000D02*
X162560000Y-86360000D01*
%TO.N,SPI_SCK*%
X156845000Y-86360000D02*
X157480000Y-86995000D01*
X148590000Y-86360000D02*
X156845000Y-86360000D01*
X157480000Y-86995000D02*
X157480000Y-88900000D01*
X150614999Y-103624999D02*
X147955000Y-100965000D01*
X146685000Y-119380000D02*
X150614999Y-115450001D01*
X150614999Y-115450001D02*
X150614999Y-103624999D01*
X147955000Y-86995000D02*
X148590000Y-86360000D01*
X147955000Y-100965000D02*
X147955000Y-86995000D01*
%TD*%
D20*
%TO.N,GND*%
G36*
X146762236Y-84532236D02*
G01*
X146737653Y-84562190D01*
X146157185Y-85142658D01*
X146127237Y-85167236D01*
X146102659Y-85197184D01*
X146102655Y-85197188D01*
X146069690Y-85237356D01*
X146029139Y-85286767D01*
X145991506Y-85357174D01*
X145956246Y-85423141D01*
X145911359Y-85571114D01*
X145896203Y-85725000D01*
X145900001Y-85763563D01*
X145900000Y-102938661D01*
X145770241Y-103025363D01*
X145570363Y-103225241D01*
X145469121Y-103376760D01*
X145329545Y-103167869D01*
X145117131Y-102955455D01*
X144867358Y-102788562D01*
X144589826Y-102673605D01*
X144295199Y-102615000D01*
X143994801Y-102615000D01*
X143700174Y-102673605D01*
X143422642Y-102788562D01*
X143172869Y-102955455D01*
X142960455Y-103167869D01*
X142793562Y-103417642D01*
X142678605Y-103695174D01*
X142620000Y-103989801D01*
X142620000Y-104290199D01*
X142678605Y-104584826D01*
X142793562Y-104862358D01*
X142960455Y-105112131D01*
X143172869Y-105324545D01*
X143422642Y-105491438D01*
X143700174Y-105606395D01*
X143994801Y-105665000D01*
X144295199Y-105665000D01*
X144589826Y-105606395D01*
X144867358Y-105491438D01*
X145117131Y-105324545D01*
X145329545Y-105112131D01*
X145469121Y-104903240D01*
X145570363Y-105054759D01*
X145770241Y-105254637D01*
X146005273Y-105411680D01*
X146266426Y-105519853D01*
X146543665Y-105575000D01*
X146826335Y-105575000D01*
X147103574Y-105519853D01*
X147364727Y-105411680D01*
X147599759Y-105254637D01*
X147799637Y-105054759D01*
X147955000Y-104822241D01*
X148110363Y-105054759D01*
X148310241Y-105254637D01*
X148545273Y-105411680D01*
X148806426Y-105519853D01*
X149083665Y-105575000D01*
X149366335Y-105575000D01*
X149643574Y-105519853D01*
X149830000Y-105442633D01*
X149829999Y-115124844D01*
X146979397Y-117975446D01*
X146826335Y-117945000D01*
X146543665Y-117945000D01*
X146266426Y-118000147D01*
X146005273Y-118108320D01*
X145770241Y-118265363D01*
X145570363Y-118465241D01*
X145469121Y-118616760D01*
X145329545Y-118407869D01*
X145117131Y-118195455D01*
X144867358Y-118028562D01*
X144589826Y-117913605D01*
X144295199Y-117855000D01*
X143994801Y-117855000D01*
X143700174Y-117913605D01*
X143422642Y-118028562D01*
X143172869Y-118195455D01*
X142960455Y-118407869D01*
X142793562Y-118657642D01*
X142678605Y-118935174D01*
X142620000Y-119229801D01*
X142620000Y-119530199D01*
X142678605Y-119824826D01*
X142793562Y-120102358D01*
X142960455Y-120352131D01*
X143172869Y-120564545D01*
X143422642Y-120731438D01*
X143700174Y-120846395D01*
X143994801Y-120905000D01*
X144295199Y-120905000D01*
X144589826Y-120846395D01*
X144867358Y-120731438D01*
X145117131Y-120564545D01*
X145329545Y-120352131D01*
X145469121Y-120143240D01*
X145570363Y-120294759D01*
X145770241Y-120494637D01*
X146005273Y-120651680D01*
X146266426Y-120759853D01*
X146543665Y-120815000D01*
X146826335Y-120815000D01*
X147103574Y-120759853D01*
X147364727Y-120651680D01*
X147599759Y-120494637D01*
X147799637Y-120294759D01*
X147955000Y-120062241D01*
X148110363Y-120294759D01*
X148310241Y-120494637D01*
X148545273Y-120651680D01*
X148806426Y-120759853D01*
X149083665Y-120815000D01*
X149366335Y-120815000D01*
X149643574Y-120759853D01*
X149904727Y-120651680D01*
X150139759Y-120494637D01*
X150339637Y-120294759D01*
X150495000Y-120062241D01*
X150650363Y-120294759D01*
X150850241Y-120494637D01*
X151085273Y-120651680D01*
X151346426Y-120759853D01*
X151623665Y-120815000D01*
X151906335Y-120815000D01*
X152183574Y-120759853D01*
X152444727Y-120651680D01*
X152679759Y-120494637D01*
X152879637Y-120294759D01*
X153035000Y-120062241D01*
X153190363Y-120294759D01*
X153390241Y-120494637D01*
X153625273Y-120651680D01*
X153886426Y-120759853D01*
X154163665Y-120815000D01*
X154446335Y-120815000D01*
X154723574Y-120759853D01*
X154984727Y-120651680D01*
X155219759Y-120494637D01*
X155419637Y-120294759D01*
X155575000Y-120062241D01*
X155730363Y-120294759D01*
X155930241Y-120494637D01*
X156165273Y-120651680D01*
X156426426Y-120759853D01*
X156703665Y-120815000D01*
X156986335Y-120815000D01*
X157263574Y-120759853D01*
X157524727Y-120651680D01*
X157759759Y-120494637D01*
X157959637Y-120294759D01*
X158115000Y-120062241D01*
X158270363Y-120294759D01*
X158470241Y-120494637D01*
X158705273Y-120651680D01*
X158966426Y-120759853D01*
X159243665Y-120815000D01*
X159526335Y-120815000D01*
X159803574Y-120759853D01*
X160064727Y-120651680D01*
X160299759Y-120494637D01*
X160499637Y-120294759D01*
X160655000Y-120062241D01*
X160810363Y-120294759D01*
X161010241Y-120494637D01*
X161245273Y-120651680D01*
X161506426Y-120759853D01*
X161783665Y-120815000D01*
X161919843Y-120815000D01*
X158424843Y-124310000D01*
X140660158Y-124310000D01*
X120827075Y-104476918D01*
X120865000Y-104286260D01*
X120865000Y-103993740D01*
X120807932Y-103706842D01*
X120695990Y-103436589D01*
X120533475Y-103193368D01*
X120326632Y-102986525D01*
X120152240Y-102870000D01*
X120326632Y-102753475D01*
X120533475Y-102546632D01*
X120695990Y-102303411D01*
X120807932Y-102033158D01*
X120865000Y-101746260D01*
X120865000Y-101453740D01*
X120807932Y-101166842D01*
X120695990Y-100896589D01*
X120533475Y-100653368D01*
X120401620Y-100521513D01*
X120474180Y-100499502D01*
X120584494Y-100440537D01*
X120681185Y-100361185D01*
X120760537Y-100264494D01*
X120819502Y-100154180D01*
X120855812Y-100034482D01*
X120868072Y-99910000D01*
X120865000Y-99345750D01*
X120706250Y-99187000D01*
X119507000Y-99187000D01*
X119507000Y-99207000D01*
X119253000Y-99207000D01*
X119253000Y-99187000D01*
X118053750Y-99187000D01*
X117895000Y-99345750D01*
X117891928Y-99910000D01*
X117904188Y-100034482D01*
X117940498Y-100154180D01*
X117999463Y-100264494D01*
X118078815Y-100361185D01*
X118175506Y-100440537D01*
X118285820Y-100499502D01*
X118358380Y-100521513D01*
X118226525Y-100653368D01*
X118064010Y-100896589D01*
X117952068Y-101166842D01*
X117895000Y-101453740D01*
X117895000Y-101746260D01*
X117952068Y-102033158D01*
X118064010Y-102303411D01*
X118226525Y-102546632D01*
X118433368Y-102753475D01*
X118607760Y-102870000D01*
X118433368Y-102986525D01*
X118226525Y-103193368D01*
X118064010Y-103436589D01*
X117952068Y-103706842D01*
X117895000Y-103993740D01*
X117895000Y-104286260D01*
X117952068Y-104573158D01*
X118064010Y-104843411D01*
X118226525Y-105086632D01*
X118433368Y-105293475D01*
X118607760Y-105410000D01*
X118433368Y-105526525D01*
X118226525Y-105733368D01*
X118064010Y-105976589D01*
X117952068Y-106246842D01*
X117895000Y-106533740D01*
X117895000Y-106826260D01*
X117952068Y-107113158D01*
X118064010Y-107383411D01*
X118226525Y-107626632D01*
X118433368Y-107833475D01*
X118676589Y-107995990D01*
X118946842Y-108107932D01*
X119233740Y-108165000D01*
X119526260Y-108165000D01*
X119813158Y-108107932D01*
X120083411Y-107995990D01*
X120326632Y-107833475D01*
X120509975Y-107650132D01*
X139117658Y-126257816D01*
X139142236Y-126287764D01*
X139172184Y-126312342D01*
X139172187Y-126312345D01*
X139201559Y-126336450D01*
X139261767Y-126385862D01*
X139398140Y-126458754D01*
X139511672Y-126493194D01*
X139546112Y-126503641D01*
X139560490Y-126505057D01*
X139661439Y-126515000D01*
X139661446Y-126515000D01*
X139699999Y-126518797D01*
X139738552Y-126515000D01*
X158783567Y-126515000D01*
X158822120Y-126518797D01*
X158860673Y-126515000D01*
X158860681Y-126515000D01*
X158976007Y-126503641D01*
X159123980Y-126458754D01*
X159260353Y-126385862D01*
X159379884Y-126287764D01*
X159404467Y-126257810D01*
X163592278Y-122070000D01*
X165061447Y-122070000D01*
X165100000Y-122073797D01*
X165138553Y-122070000D01*
X165138561Y-122070000D01*
X165253887Y-122058641D01*
X165401860Y-122013754D01*
X165538233Y-121940862D01*
X165657764Y-121842764D01*
X165682347Y-121812810D01*
X166710603Y-120784554D01*
X166863665Y-120815000D01*
X167146335Y-120815000D01*
X167423574Y-120759853D01*
X167684727Y-120651680D01*
X167919759Y-120494637D01*
X168119637Y-120294759D01*
X168275000Y-120062241D01*
X168430363Y-120294759D01*
X168630241Y-120494637D01*
X168865273Y-120651680D01*
X169126426Y-120759853D01*
X169403665Y-120815000D01*
X169686335Y-120815000D01*
X169963574Y-120759853D01*
X170224727Y-120651680D01*
X170459759Y-120494637D01*
X170659637Y-120294759D01*
X170815000Y-120062241D01*
X170970363Y-120294759D01*
X171170241Y-120494637D01*
X171405273Y-120651680D01*
X171666426Y-120759853D01*
X171943665Y-120815000D01*
X172226335Y-120815000D01*
X172503574Y-120759853D01*
X172764727Y-120651680D01*
X172999759Y-120494637D01*
X173199637Y-120294759D01*
X173355000Y-120062241D01*
X173510363Y-120294759D01*
X173710241Y-120494637D01*
X173945273Y-120651680D01*
X174206426Y-120759853D01*
X174483665Y-120815000D01*
X174766335Y-120815000D01*
X175043574Y-120759853D01*
X175304727Y-120651680D01*
X175539759Y-120494637D01*
X175739637Y-120294759D01*
X175895000Y-120062241D01*
X176050363Y-120294759D01*
X176250241Y-120494637D01*
X176485273Y-120651680D01*
X176746426Y-120759853D01*
X177023665Y-120815000D01*
X177306335Y-120815000D01*
X177583574Y-120759853D01*
X177844727Y-120651680D01*
X178079759Y-120494637D01*
X178279637Y-120294759D01*
X178436680Y-120059727D01*
X178441067Y-120049135D01*
X178552615Y-120235131D01*
X178741586Y-120443519D01*
X178967580Y-120611037D01*
X179221913Y-120731246D01*
X179355961Y-120771904D01*
X179578000Y-120649915D01*
X179578000Y-119507000D01*
X179558000Y-119507000D01*
X179558000Y-119253000D01*
X179578000Y-119253000D01*
X179578000Y-119233000D01*
X179832000Y-119233000D01*
X179832000Y-119253000D01*
X179852000Y-119253000D01*
X179852000Y-119507000D01*
X179832000Y-119507000D01*
X179832000Y-120649915D01*
X180054039Y-120771904D01*
X180188087Y-120731246D01*
X180442420Y-120611037D01*
X180668414Y-120443519D01*
X180857385Y-120235131D01*
X180968933Y-120049135D01*
X180973320Y-120059727D01*
X181130363Y-120294759D01*
X181330241Y-120494637D01*
X181565273Y-120651680D01*
X181826426Y-120759853D01*
X182103665Y-120815000D01*
X182386335Y-120815000D01*
X182663574Y-120759853D01*
X182924727Y-120651680D01*
X183159759Y-120494637D01*
X183359637Y-120294759D01*
X183460879Y-120143240D01*
X183600455Y-120352131D01*
X183812869Y-120564545D01*
X184062642Y-120731438D01*
X184340174Y-120846395D01*
X184634801Y-120905000D01*
X184935199Y-120905000D01*
X185229826Y-120846395D01*
X185507358Y-120731438D01*
X185757131Y-120564545D01*
X185969545Y-120352131D01*
X186136438Y-120102358D01*
X186251395Y-119824826D01*
X186310000Y-119530199D01*
X186310000Y-119229801D01*
X186251395Y-118935174D01*
X186136438Y-118657642D01*
X185969545Y-118407869D01*
X185757131Y-118195455D01*
X185651703Y-118125010D01*
X200834853Y-118125010D01*
X204292924Y-121583082D01*
X204255000Y-121773740D01*
X204255000Y-122066260D01*
X204312068Y-122353158D01*
X204424010Y-122623411D01*
X204586525Y-122866632D01*
X204793368Y-123073475D01*
X204967760Y-123190000D01*
X204793368Y-123306525D01*
X204586525Y-123513368D01*
X204424010Y-123756589D01*
X204312068Y-124026842D01*
X204255000Y-124313740D01*
X204255000Y-124606260D01*
X204312068Y-124893158D01*
X204424010Y-125163411D01*
X204586525Y-125406632D01*
X204793368Y-125613475D01*
X204967760Y-125730000D01*
X204793368Y-125846525D01*
X204586525Y-126053368D01*
X204424010Y-126296589D01*
X204312068Y-126566842D01*
X204255000Y-126853740D01*
X204255000Y-127146260D01*
X204312068Y-127433158D01*
X204424010Y-127703411D01*
X204586525Y-127946632D01*
X204718380Y-128078487D01*
X204645820Y-128100498D01*
X204535506Y-128159463D01*
X204438815Y-128238815D01*
X204359463Y-128335506D01*
X204300498Y-128445820D01*
X204264188Y-128565518D01*
X204251928Y-128690000D01*
X204255000Y-129254250D01*
X204413750Y-129413000D01*
X205613000Y-129413000D01*
X205613000Y-129393000D01*
X205867000Y-129393000D01*
X205867000Y-129413000D01*
X207066250Y-129413000D01*
X207225000Y-129254250D01*
X207228072Y-128690000D01*
X207215812Y-128565518D01*
X207179502Y-128445820D01*
X207120537Y-128335506D01*
X207041185Y-128238815D01*
X206944494Y-128159463D01*
X206834180Y-128100498D01*
X206761620Y-128078487D01*
X206893475Y-127946632D01*
X207055990Y-127703411D01*
X207167932Y-127433158D01*
X207225000Y-127146260D01*
X207225000Y-126853740D01*
X207167932Y-126566842D01*
X207055990Y-126296589D01*
X206893475Y-126053368D01*
X206686632Y-125846525D01*
X206512240Y-125730000D01*
X206686632Y-125613475D01*
X206893475Y-125406632D01*
X207055990Y-125163411D01*
X207167932Y-124893158D01*
X207225000Y-124606260D01*
X207225000Y-124313740D01*
X207187075Y-124123082D01*
X208807817Y-122502341D01*
X208837764Y-122477764D01*
X208935862Y-122358233D01*
X209008754Y-122221860D01*
X209053641Y-122073887D01*
X209065000Y-121958561D01*
X209065000Y-121958554D01*
X209068797Y-121920001D01*
X209065000Y-121881448D01*
X209065000Y-118783556D01*
X209068797Y-118745000D01*
X209065000Y-118706444D01*
X209065000Y-118706439D01*
X209055143Y-118606358D01*
X209053642Y-118591113D01*
X209008754Y-118443140D01*
X208989901Y-118407869D01*
X208935862Y-118306767D01*
X208837764Y-118187236D01*
X208807810Y-118162653D01*
X206957347Y-116312190D01*
X206932764Y-116282236D01*
X206813233Y-116184138D01*
X206676860Y-116111246D01*
X206528887Y-116066359D01*
X206413561Y-116055000D01*
X206413553Y-116055000D01*
X206375000Y-116051203D01*
X206336447Y-116055000D01*
X167043552Y-116055000D01*
X167004999Y-116051203D01*
X166966446Y-116055000D01*
X166966439Y-116055000D01*
X166865490Y-116064943D01*
X166851112Y-116066359D01*
X166816672Y-116076806D01*
X166703140Y-116111246D01*
X166566767Y-116184138D01*
X166518632Y-116223642D01*
X166477187Y-116257655D01*
X166477184Y-116257658D01*
X166447236Y-116282236D01*
X166422658Y-116312184D01*
X164759396Y-117975446D01*
X164606335Y-117945000D01*
X164323665Y-117945000D01*
X164046426Y-118000147D01*
X163785273Y-118108320D01*
X163550241Y-118265363D01*
X163350363Y-118465241D01*
X163195000Y-118697759D01*
X163039637Y-118465241D01*
X162839759Y-118265363D01*
X162604727Y-118108320D01*
X162343574Y-118000147D01*
X162066335Y-117945000D01*
X161783665Y-117945000D01*
X161506426Y-118000147D01*
X161245273Y-118108320D01*
X161010241Y-118265363D01*
X160810363Y-118465241D01*
X160655000Y-118697759D01*
X160499637Y-118465241D01*
X160299759Y-118265363D01*
X160064727Y-118108320D01*
X159803574Y-118000147D01*
X159526335Y-117945000D01*
X159243665Y-117945000D01*
X158966426Y-118000147D01*
X158705273Y-118108320D01*
X158470241Y-118265363D01*
X158270363Y-118465241D01*
X158115000Y-118697759D01*
X157959637Y-118465241D01*
X157759759Y-118265363D01*
X157524727Y-118108320D01*
X157263574Y-118000147D01*
X156986335Y-117945000D01*
X156703665Y-117945000D01*
X156426426Y-118000147D01*
X156165273Y-118108320D01*
X155930241Y-118265363D01*
X155730363Y-118465241D01*
X155575000Y-118697759D01*
X155419637Y-118465241D01*
X155219759Y-118265363D01*
X154984727Y-118108320D01*
X154723574Y-118000147D01*
X154446335Y-117945000D01*
X154163665Y-117945000D01*
X153886426Y-118000147D01*
X153625273Y-118108320D01*
X153390241Y-118265363D01*
X153190363Y-118465241D01*
X153035000Y-118697759D01*
X152879637Y-118465241D01*
X152679759Y-118265363D01*
X152444727Y-118108320D01*
X152183574Y-118000147D01*
X151906335Y-117945000D01*
X151623665Y-117945000D01*
X151346426Y-118000147D01*
X151085273Y-118108320D01*
X150850241Y-118265363D01*
X150650363Y-118465241D01*
X150495000Y-118697759D01*
X150339637Y-118465241D01*
X150139759Y-118265363D01*
X149904727Y-118108320D01*
X149643574Y-118000147D01*
X149366335Y-117945000D01*
X149230157Y-117945000D01*
X151142810Y-116032347D01*
X151172763Y-116007765D01*
X151270861Y-115888234D01*
X151343753Y-115751861D01*
X151343753Y-115751860D01*
X151388641Y-115603888D01*
X151396019Y-115528975D01*
X151399999Y-115488562D01*
X151399999Y-115488557D01*
X151403796Y-115450001D01*
X151399999Y-115411445D01*
X151399999Y-105530509D01*
X151623665Y-105575000D01*
X151906335Y-105575000D01*
X152183574Y-105519853D01*
X152444727Y-105411680D01*
X152679759Y-105254637D01*
X152879637Y-105054759D01*
X153035000Y-104822241D01*
X153190363Y-105054759D01*
X153390241Y-105254637D01*
X153625273Y-105411680D01*
X153886426Y-105519853D01*
X154163665Y-105575000D01*
X154446335Y-105575000D01*
X154723574Y-105519853D01*
X154984727Y-105411680D01*
X155219759Y-105254637D01*
X155419637Y-105054759D01*
X155575000Y-104822241D01*
X155730363Y-105054759D01*
X155930241Y-105254637D01*
X156165273Y-105411680D01*
X156426426Y-105519853D01*
X156703665Y-105575000D01*
X156986335Y-105575000D01*
X157263574Y-105519853D01*
X157524727Y-105411680D01*
X157759759Y-105254637D01*
X157959637Y-105054759D01*
X158115000Y-104822241D01*
X158270363Y-105054759D01*
X158470241Y-105254637D01*
X158705273Y-105411680D01*
X158966426Y-105519853D01*
X159243665Y-105575000D01*
X159526335Y-105575000D01*
X159803574Y-105519853D01*
X160064727Y-105411680D01*
X160299759Y-105254637D01*
X160499637Y-105054759D01*
X160655000Y-104822241D01*
X160810363Y-105054759D01*
X161010241Y-105254637D01*
X161245273Y-105411680D01*
X161506426Y-105519853D01*
X161783665Y-105575000D01*
X162066335Y-105575000D01*
X162343574Y-105519853D01*
X162604727Y-105411680D01*
X162839759Y-105254637D01*
X163039637Y-105054759D01*
X163195000Y-104822241D01*
X163350363Y-105054759D01*
X163550241Y-105254637D01*
X163785273Y-105411680D01*
X164046426Y-105519853D01*
X164323665Y-105575000D01*
X164606335Y-105575000D01*
X164883574Y-105519853D01*
X165144727Y-105411680D01*
X165379759Y-105254637D01*
X165579637Y-105054759D01*
X165735000Y-104822241D01*
X165890363Y-105054759D01*
X166090241Y-105254637D01*
X166325273Y-105411680D01*
X166586426Y-105519853D01*
X166863665Y-105575000D01*
X167146335Y-105575000D01*
X167423574Y-105519853D01*
X167684727Y-105411680D01*
X167919759Y-105254637D01*
X168119637Y-105054759D01*
X168275000Y-104822241D01*
X168430363Y-105054759D01*
X168630241Y-105254637D01*
X168865273Y-105411680D01*
X169126426Y-105519853D01*
X169403665Y-105575000D01*
X169686335Y-105575000D01*
X169963574Y-105519853D01*
X170224727Y-105411680D01*
X170459759Y-105254637D01*
X170659637Y-105054759D01*
X170815000Y-104822241D01*
X170970363Y-105054759D01*
X171170241Y-105254637D01*
X171405273Y-105411680D01*
X171666426Y-105519853D01*
X171943665Y-105575000D01*
X172226335Y-105575000D01*
X172503574Y-105519853D01*
X172764727Y-105411680D01*
X172999759Y-105254637D01*
X173199637Y-105054759D01*
X173356680Y-104819727D01*
X173361067Y-104809135D01*
X173472615Y-104995131D01*
X173661586Y-105203519D01*
X173887580Y-105371037D01*
X174141913Y-105491246D01*
X174275961Y-105531904D01*
X174498000Y-105409915D01*
X174498000Y-104267000D01*
X174478000Y-104267000D01*
X174478000Y-104013000D01*
X174498000Y-104013000D01*
X174498000Y-102870085D01*
X174752000Y-102870085D01*
X174752000Y-104013000D01*
X174772000Y-104013000D01*
X174772000Y-104267000D01*
X174752000Y-104267000D01*
X174752000Y-105409915D01*
X174974039Y-105531904D01*
X175108087Y-105491246D01*
X175362420Y-105371037D01*
X175588414Y-105203519D01*
X175777385Y-104995131D01*
X175888933Y-104809135D01*
X175893320Y-104819727D01*
X176050363Y-105054759D01*
X176250241Y-105254637D01*
X176485273Y-105411680D01*
X176746426Y-105519853D01*
X177023665Y-105575000D01*
X177306335Y-105575000D01*
X177583574Y-105519853D01*
X177844727Y-105411680D01*
X178079759Y-105254637D01*
X178279637Y-105054759D01*
X178435000Y-104822241D01*
X178590363Y-105054759D01*
X178790241Y-105254637D01*
X179025273Y-105411680D01*
X179286426Y-105519853D01*
X179563665Y-105575000D01*
X179846335Y-105575000D01*
X180123574Y-105519853D01*
X180384727Y-105411680D01*
X180619759Y-105254637D01*
X180818357Y-105056039D01*
X180819188Y-105064482D01*
X180855498Y-105184180D01*
X180914463Y-105294494D01*
X180993815Y-105391185D01*
X181090506Y-105470537D01*
X181200820Y-105529502D01*
X181320518Y-105565812D01*
X181445000Y-105578072D01*
X183045000Y-105578072D01*
X183169482Y-105565812D01*
X183289180Y-105529502D01*
X183399494Y-105470537D01*
X183496185Y-105391185D01*
X183575537Y-105294494D01*
X183634502Y-105184180D01*
X183643347Y-105155023D01*
X183812869Y-105324545D01*
X184062642Y-105491438D01*
X184340174Y-105606395D01*
X184634801Y-105665000D01*
X184935199Y-105665000D01*
X185229826Y-105606395D01*
X185507358Y-105491438D01*
X185757131Y-105324545D01*
X185969545Y-105112131D01*
X186136438Y-104862358D01*
X186251395Y-104584826D01*
X186310000Y-104290199D01*
X186310000Y-103989801D01*
X186251395Y-103695174D01*
X186136438Y-103417642D01*
X185969545Y-103167869D01*
X185757131Y-102955455D01*
X185507358Y-102788562D01*
X185229826Y-102673605D01*
X184935199Y-102615000D01*
X184634801Y-102615000D01*
X184340174Y-102673605D01*
X184062642Y-102788562D01*
X183812869Y-102955455D01*
X183643347Y-103124977D01*
X183634502Y-103095820D01*
X183575537Y-102985506D01*
X183496185Y-102888815D01*
X183399494Y-102809463D01*
X183289180Y-102750498D01*
X183169482Y-102714188D01*
X183045000Y-102701928D01*
X181445000Y-102701928D01*
X181320518Y-102714188D01*
X181200820Y-102750498D01*
X181090506Y-102809463D01*
X180993815Y-102888815D01*
X180914463Y-102985506D01*
X180855498Y-103095820D01*
X180819188Y-103215518D01*
X180818357Y-103223961D01*
X180619759Y-103025363D01*
X180384727Y-102868320D01*
X180123574Y-102760147D01*
X179846335Y-102705000D01*
X179563665Y-102705000D01*
X179286426Y-102760147D01*
X179025273Y-102868320D01*
X178790241Y-103025363D01*
X178590363Y-103225241D01*
X178435000Y-103457759D01*
X178279637Y-103225241D01*
X178079759Y-103025363D01*
X177844727Y-102868320D01*
X177583574Y-102760147D01*
X177306335Y-102705000D01*
X177023665Y-102705000D01*
X176746426Y-102760147D01*
X176485273Y-102868320D01*
X176250241Y-103025363D01*
X176050363Y-103225241D01*
X175893320Y-103460273D01*
X175888933Y-103470865D01*
X175777385Y-103284869D01*
X175588414Y-103076481D01*
X175362420Y-102908963D01*
X175108087Y-102788754D01*
X174974039Y-102748096D01*
X174752000Y-102870085D01*
X174498000Y-102870085D01*
X174275961Y-102748096D01*
X174141913Y-102788754D01*
X173887580Y-102908963D01*
X173661586Y-103076481D01*
X173472615Y-103284869D01*
X173361067Y-103470865D01*
X173356680Y-103460273D01*
X173199637Y-103225241D01*
X172999759Y-103025363D01*
X172764727Y-102868320D01*
X172503574Y-102760147D01*
X172226335Y-102705000D01*
X171943665Y-102705000D01*
X171666426Y-102760147D01*
X171405273Y-102868320D01*
X171170241Y-103025363D01*
X170970363Y-103225241D01*
X170815000Y-103457759D01*
X170659637Y-103225241D01*
X170459759Y-103025363D01*
X170224727Y-102868320D01*
X169963574Y-102760147D01*
X169686335Y-102705000D01*
X169403665Y-102705000D01*
X169126426Y-102760147D01*
X168865273Y-102868320D01*
X168630241Y-103025363D01*
X168430363Y-103225241D01*
X168275000Y-103457759D01*
X168119637Y-103225241D01*
X167919759Y-103025363D01*
X167684727Y-102868320D01*
X167423574Y-102760147D01*
X167146335Y-102705000D01*
X167010157Y-102705000D01*
X177490158Y-92225000D01*
X178701928Y-92225000D01*
X178701928Y-92440000D01*
X178714188Y-92564482D01*
X178750498Y-92684180D01*
X178809463Y-92794494D01*
X178888815Y-92891185D01*
X178985506Y-92970537D01*
X179095820Y-93029502D01*
X179215518Y-93065812D01*
X179340000Y-93078072D01*
X181340000Y-93078072D01*
X181464482Y-93065812D01*
X181584180Y-93029502D01*
X181694494Y-92970537D01*
X181791185Y-92891185D01*
X181870537Y-92794494D01*
X181929502Y-92684180D01*
X181962496Y-92575413D01*
X186984192Y-92575413D01*
X187079956Y-92839814D01*
X187369571Y-92980704D01*
X187681108Y-93062384D01*
X188002595Y-93081718D01*
X188321675Y-93037961D01*
X188626088Y-92932795D01*
X188800044Y-92839814D01*
X188895808Y-92575413D01*
X187940000Y-91619605D01*
X186984192Y-92575413D01*
X181962496Y-92575413D01*
X181965812Y-92564482D01*
X181978072Y-92440000D01*
X181978072Y-91502595D01*
X186298282Y-91502595D01*
X186342039Y-91821675D01*
X186447205Y-92126088D01*
X186540186Y-92300044D01*
X186804587Y-92395808D01*
X187760395Y-91440000D01*
X188119605Y-91440000D01*
X189075413Y-92395808D01*
X189339814Y-92300044D01*
X189480704Y-92010429D01*
X189562384Y-91698892D01*
X189568278Y-91600881D01*
X203218724Y-91600881D01*
X203578912Y-92090548D01*
X204242882Y-92450849D01*
X204964385Y-92674694D01*
X205715695Y-92753480D01*
X206467938Y-92684178D01*
X207192208Y-92469452D01*
X207860670Y-92117555D01*
X207901088Y-92090548D01*
X208261276Y-91600881D01*
X205740000Y-89079605D01*
X203218724Y-91600881D01*
X189568278Y-91600881D01*
X189581718Y-91377405D01*
X189537961Y-91058325D01*
X189432795Y-90753912D01*
X189339814Y-90579956D01*
X189075413Y-90484192D01*
X188119605Y-91440000D01*
X187760395Y-91440000D01*
X186804587Y-90484192D01*
X186540186Y-90579956D01*
X186399296Y-90869571D01*
X186317616Y-91181108D01*
X186298282Y-91502595D01*
X181978072Y-91502595D01*
X181978072Y-90440000D01*
X181965812Y-90315518D01*
X181962497Y-90304587D01*
X186984192Y-90304587D01*
X187940000Y-91260395D01*
X188895808Y-90304587D01*
X188800044Y-90040186D01*
X188510429Y-89899296D01*
X188198892Y-89817616D01*
X187877405Y-89798282D01*
X187558325Y-89842039D01*
X187253912Y-89947205D01*
X187079956Y-90040186D01*
X186984192Y-90304587D01*
X181962497Y-90304587D01*
X181929502Y-90195820D01*
X181870537Y-90085506D01*
X181791185Y-89988815D01*
X181694494Y-89909463D01*
X181584180Y-89850498D01*
X181464482Y-89814188D01*
X181340000Y-89801928D01*
X179340000Y-89801928D01*
X179215518Y-89814188D01*
X179095820Y-89850498D01*
X178985506Y-89909463D01*
X178888815Y-89988815D01*
X178809463Y-90085506D01*
X178750498Y-90195820D01*
X178714188Y-90315518D01*
X178701928Y-90440000D01*
X178701928Y-90655000D01*
X177203552Y-90655000D01*
X177164999Y-90651203D01*
X177126446Y-90655000D01*
X177126439Y-90655000D01*
X177025490Y-90664943D01*
X177011112Y-90666359D01*
X176976672Y-90676806D01*
X176863140Y-90711246D01*
X176726767Y-90784138D01*
X176666559Y-90833550D01*
X176637187Y-90857655D01*
X176637184Y-90857658D01*
X176607236Y-90882236D01*
X176582658Y-90912184D01*
X164759397Y-102735446D01*
X164606335Y-102705000D01*
X164323665Y-102705000D01*
X164046426Y-102760147D01*
X163785273Y-102868320D01*
X163550241Y-103025363D01*
X163350363Y-103225241D01*
X163195000Y-103457759D01*
X163039637Y-103225241D01*
X162839759Y-103025363D01*
X162604727Y-102868320D01*
X162343574Y-102760147D01*
X162066335Y-102705000D01*
X161783665Y-102705000D01*
X161506426Y-102760147D01*
X161245273Y-102868320D01*
X161010241Y-103025363D01*
X160810363Y-103225241D01*
X160655000Y-103457759D01*
X160499637Y-103225241D01*
X160299759Y-103025363D01*
X160064727Y-102868320D01*
X159803574Y-102760147D01*
X159526335Y-102705000D01*
X159243665Y-102705000D01*
X158966426Y-102760147D01*
X158705273Y-102868320D01*
X158470241Y-103025363D01*
X158270363Y-103225241D01*
X158115000Y-103457759D01*
X157959637Y-103225241D01*
X157759759Y-103025363D01*
X157524727Y-102868320D01*
X157263574Y-102760147D01*
X156986335Y-102705000D01*
X156850157Y-102705000D01*
X169394211Y-90160946D01*
X169476589Y-90215990D01*
X169746842Y-90327932D01*
X170033740Y-90385000D01*
X170326260Y-90385000D01*
X170613158Y-90327932D01*
X170883411Y-90215990D01*
X171126632Y-90053475D01*
X171333475Y-89846632D01*
X171450000Y-89672240D01*
X171566525Y-89846632D01*
X171773368Y-90053475D01*
X172016589Y-90215990D01*
X172286842Y-90327932D01*
X172573740Y-90385000D01*
X172866260Y-90385000D01*
X173153158Y-90327932D01*
X173423411Y-90215990D01*
X173666632Y-90053475D01*
X173873475Y-89846632D01*
X174035990Y-89603411D01*
X174147932Y-89333158D01*
X174205000Y-89046260D01*
X174205000Y-88875695D01*
X201886520Y-88875695D01*
X201955822Y-89627938D01*
X202170548Y-90352208D01*
X202522445Y-91020670D01*
X202549452Y-91061088D01*
X203039119Y-91421276D01*
X205560395Y-88900000D01*
X205919605Y-88900000D01*
X208440881Y-91421276D01*
X208930548Y-91061088D01*
X209290849Y-90397118D01*
X209514694Y-89675615D01*
X209593480Y-88924305D01*
X209524178Y-88172062D01*
X209309452Y-87447792D01*
X208957555Y-86779330D01*
X208930548Y-86738912D01*
X208440881Y-86378724D01*
X205919605Y-88900000D01*
X205560395Y-88900000D01*
X203039119Y-86378724D01*
X202549452Y-86738912D01*
X202189151Y-87402882D01*
X201965306Y-88124385D01*
X201886520Y-88875695D01*
X174205000Y-88875695D01*
X174205000Y-88753740D01*
X174147932Y-88466842D01*
X174035990Y-88196589D01*
X173873475Y-87953368D01*
X173666632Y-87746525D01*
X173423411Y-87584010D01*
X173153158Y-87472068D01*
X172866260Y-87415000D01*
X172573740Y-87415000D01*
X172286842Y-87472068D01*
X172016589Y-87584010D01*
X171773368Y-87746525D01*
X171566525Y-87953368D01*
X171450000Y-88127760D01*
X171333475Y-87953368D01*
X171126632Y-87746525D01*
X170883411Y-87584010D01*
X170613158Y-87472068D01*
X170326260Y-87415000D01*
X170033740Y-87415000D01*
X169746842Y-87472068D01*
X169476589Y-87584010D01*
X169233368Y-87746525D01*
X169026525Y-87953368D01*
X168904805Y-88135534D01*
X168835178Y-88018645D01*
X168640269Y-87802412D01*
X168406920Y-87628359D01*
X168144099Y-87503175D01*
X167996890Y-87458524D01*
X167767000Y-87579845D01*
X167767000Y-88773000D01*
X167787000Y-88773000D01*
X167787000Y-89027000D01*
X167767000Y-89027000D01*
X167767000Y-89047000D01*
X167513000Y-89047000D01*
X167513000Y-89027000D01*
X167493000Y-89027000D01*
X167493000Y-88773000D01*
X167513000Y-88773000D01*
X167513000Y-87579845D01*
X167283110Y-87458524D01*
X167135901Y-87503175D01*
X166873080Y-87628359D01*
X166639731Y-87802412D01*
X166444822Y-88018645D01*
X166375195Y-88135534D01*
X166253475Y-87953368D01*
X166046632Y-87746525D01*
X165803411Y-87584010D01*
X165533158Y-87472068D01*
X165246260Y-87415000D01*
X164953740Y-87415000D01*
X164666842Y-87472068D01*
X164396589Y-87584010D01*
X164153368Y-87746525D01*
X163946525Y-87953368D01*
X163830000Y-88127760D01*
X163713475Y-87953368D01*
X163506632Y-87746525D01*
X163345000Y-87638526D01*
X163345000Y-86398552D01*
X163348797Y-86359999D01*
X163345000Y-86321446D01*
X163345000Y-86321439D01*
X163333641Y-86206113D01*
X163331520Y-86199119D01*
X203218724Y-86199119D01*
X205740000Y-88720395D01*
X208261276Y-86199119D01*
X207901088Y-85709452D01*
X207237118Y-85349151D01*
X206515615Y-85125306D01*
X205764305Y-85046520D01*
X205012062Y-85115822D01*
X204287792Y-85330548D01*
X203619330Y-85682445D01*
X203578912Y-85709452D01*
X203218724Y-86199119D01*
X163331520Y-86199119D01*
X163321634Y-86166531D01*
X163288754Y-86058140D01*
X163215862Y-85921767D01*
X163162695Y-85856984D01*
X163142345Y-85832187D01*
X163142342Y-85832184D01*
X163117764Y-85802236D01*
X163087817Y-85777659D01*
X161872347Y-84562190D01*
X161847764Y-84532236D01*
X161784115Y-84480000D01*
X205710608Y-84480000D01*
X206522249Y-84552437D01*
X207279774Y-84759672D01*
X207988625Y-85097777D01*
X208626404Y-85556067D01*
X209172946Y-86120055D01*
X209610977Y-86771913D01*
X209926651Y-87491038D01*
X210111206Y-88259768D01*
X210160001Y-88924221D01*
X210160000Y-139670608D01*
X210087563Y-140482249D01*
X209880328Y-141239774D01*
X209542221Y-141948627D01*
X209083928Y-142586410D01*
X208519945Y-143132946D01*
X207868085Y-143570978D01*
X207148963Y-143886651D01*
X206380232Y-144071206D01*
X205715792Y-144120000D01*
X119409392Y-144120000D01*
X118597751Y-144047563D01*
X117840226Y-143840328D01*
X117131373Y-143502221D01*
X116493590Y-143043928D01*
X115947054Y-142479945D01*
X115893926Y-142400881D01*
X116858724Y-142400881D01*
X117218912Y-142890548D01*
X117882882Y-143250849D01*
X118604385Y-143474694D01*
X119355695Y-143553480D01*
X120107938Y-143484178D01*
X120832208Y-143269452D01*
X121500670Y-142917555D01*
X121541088Y-142890548D01*
X121901276Y-142400881D01*
X203218724Y-142400881D01*
X203578912Y-142890548D01*
X204242882Y-143250849D01*
X204964385Y-143474694D01*
X205715695Y-143553480D01*
X206467938Y-143484178D01*
X207192208Y-143269452D01*
X207860670Y-142917555D01*
X207901088Y-142890548D01*
X208261276Y-142400881D01*
X205740000Y-139879605D01*
X203218724Y-142400881D01*
X121901276Y-142400881D01*
X119380000Y-139879605D01*
X116858724Y-142400881D01*
X115893926Y-142400881D01*
X115509022Y-141828085D01*
X115193349Y-141108963D01*
X115008794Y-140340232D01*
X114960000Y-139675792D01*
X114960000Y-139675695D01*
X115526520Y-139675695D01*
X115595822Y-140427938D01*
X115810548Y-141152208D01*
X116162445Y-141820670D01*
X116189452Y-141861088D01*
X116679119Y-142221276D01*
X119200395Y-139700000D01*
X119559605Y-139700000D01*
X122080881Y-142221276D01*
X122570548Y-141861088D01*
X122930849Y-141197118D01*
X123154694Y-140475615D01*
X123233480Y-139724305D01*
X123229002Y-139675695D01*
X201886520Y-139675695D01*
X201955822Y-140427938D01*
X202170548Y-141152208D01*
X202522445Y-141820670D01*
X202549452Y-141861088D01*
X203039119Y-142221276D01*
X205560395Y-139700000D01*
X205919605Y-139700000D01*
X208440881Y-142221276D01*
X208930548Y-141861088D01*
X209290849Y-141197118D01*
X209514694Y-140475615D01*
X209593480Y-139724305D01*
X209524178Y-138972062D01*
X209309452Y-138247792D01*
X208957555Y-137579330D01*
X208930548Y-137538912D01*
X208440881Y-137178724D01*
X205919605Y-139700000D01*
X205560395Y-139700000D01*
X203039119Y-137178724D01*
X202549452Y-137538912D01*
X202189151Y-138202882D01*
X201965306Y-138924385D01*
X201886520Y-139675695D01*
X123229002Y-139675695D01*
X123164178Y-138972062D01*
X122949452Y-138247792D01*
X122597555Y-137579330D01*
X122570548Y-137538912D01*
X122080881Y-137178724D01*
X119559605Y-139700000D01*
X119200395Y-139700000D01*
X116679119Y-137178724D01*
X116189452Y-137538912D01*
X115829151Y-138202882D01*
X115605306Y-138924385D01*
X115526520Y-139675695D01*
X114960000Y-139675695D01*
X114960000Y-136999119D01*
X116858724Y-136999119D01*
X119380000Y-139520395D01*
X121901276Y-136999119D01*
X203218724Y-136999119D01*
X205740000Y-139520395D01*
X208261276Y-136999119D01*
X207901088Y-136509452D01*
X207237118Y-136149151D01*
X206515615Y-135925306D01*
X205764305Y-135846520D01*
X205012062Y-135915822D01*
X204287792Y-136130548D01*
X203619330Y-136482445D01*
X203578912Y-136509452D01*
X203218724Y-136999119D01*
X121901276Y-136999119D01*
X121541088Y-136509452D01*
X120877118Y-136149151D01*
X120155615Y-135925306D01*
X119404305Y-135846520D01*
X118652062Y-135915822D01*
X117927792Y-136130548D01*
X117259330Y-136482445D01*
X117218912Y-136509452D01*
X116858724Y-136999119D01*
X114960000Y-136999119D01*
X114960000Y-129896891D01*
X178263519Y-129896891D01*
X178360843Y-130171252D01*
X178509822Y-130421355D01*
X178704731Y-130637588D01*
X178938080Y-130811641D01*
X179200901Y-130936825D01*
X179348110Y-130981476D01*
X179578000Y-130860155D01*
X179578000Y-129667000D01*
X178384186Y-129667000D01*
X178263519Y-129896891D01*
X114960000Y-129896891D01*
X114960000Y-129183109D01*
X178263519Y-129183109D01*
X178384186Y-129413000D01*
X179578000Y-129413000D01*
X179578000Y-128219845D01*
X179832000Y-128219845D01*
X179832000Y-129413000D01*
X179852000Y-129413000D01*
X179852000Y-129667000D01*
X179832000Y-129667000D01*
X179832000Y-130860155D01*
X180061890Y-130981476D01*
X180209099Y-130936825D01*
X180471920Y-130811641D01*
X180705269Y-130637588D01*
X180781034Y-130553534D01*
X180805498Y-130634180D01*
X180864463Y-130744494D01*
X180943815Y-130841185D01*
X181040506Y-130920537D01*
X181150820Y-130979502D01*
X181270518Y-131015812D01*
X181395000Y-131028072D01*
X183095000Y-131028072D01*
X183219482Y-131015812D01*
X183339180Y-130979502D01*
X183449494Y-130920537D01*
X183546185Y-130841185D01*
X183625537Y-130744494D01*
X183684502Y-130634180D01*
X183720812Y-130514482D01*
X183733072Y-130390000D01*
X204251928Y-130390000D01*
X204264188Y-130514482D01*
X204300498Y-130634180D01*
X204359463Y-130744494D01*
X204438815Y-130841185D01*
X204535506Y-130920537D01*
X204645820Y-130979502D01*
X204765518Y-131015812D01*
X204890000Y-131028072D01*
X205454250Y-131025000D01*
X205613000Y-130866250D01*
X205613000Y-129667000D01*
X205867000Y-129667000D01*
X205867000Y-130866250D01*
X206025750Y-131025000D01*
X206590000Y-131028072D01*
X206714482Y-131015812D01*
X206834180Y-130979502D01*
X206944494Y-130920537D01*
X207041185Y-130841185D01*
X207120537Y-130744494D01*
X207179502Y-130634180D01*
X207215812Y-130514482D01*
X207228072Y-130390000D01*
X207225000Y-129825750D01*
X207066250Y-129667000D01*
X205867000Y-129667000D01*
X205613000Y-129667000D01*
X204413750Y-129667000D01*
X204255000Y-129825750D01*
X204251928Y-130390000D01*
X183733072Y-130390000D01*
X183733072Y-128690000D01*
X183720812Y-128565518D01*
X183684502Y-128445820D01*
X183625537Y-128335506D01*
X183546185Y-128238815D01*
X183449494Y-128159463D01*
X183339180Y-128100498D01*
X183219482Y-128064188D01*
X183095000Y-128051928D01*
X181395000Y-128051928D01*
X181270518Y-128064188D01*
X181150820Y-128100498D01*
X181040506Y-128159463D01*
X180943815Y-128238815D01*
X180864463Y-128335506D01*
X180805498Y-128445820D01*
X180781034Y-128526466D01*
X180705269Y-128442412D01*
X180471920Y-128268359D01*
X180209099Y-128143175D01*
X180061890Y-128098524D01*
X179832000Y-128219845D01*
X179578000Y-128219845D01*
X179348110Y-128098524D01*
X179200901Y-128143175D01*
X178938080Y-128268359D01*
X178704731Y-128442412D01*
X178509822Y-128658645D01*
X178360843Y-128908748D01*
X178263519Y-129183109D01*
X114960000Y-129183109D01*
X114960000Y-98210000D01*
X117891928Y-98210000D01*
X117895000Y-98774250D01*
X118053750Y-98933000D01*
X119253000Y-98933000D01*
X119253000Y-97733750D01*
X119507000Y-97733750D01*
X119507000Y-98933000D01*
X120706250Y-98933000D01*
X120865000Y-98774250D01*
X120868072Y-98210000D01*
X120855812Y-98085518D01*
X120819502Y-97965820D01*
X120760537Y-97855506D01*
X120681185Y-97758815D01*
X120584494Y-97679463D01*
X120474180Y-97620498D01*
X120354482Y-97584188D01*
X120230000Y-97571928D01*
X119665750Y-97575000D01*
X119507000Y-97733750D01*
X119253000Y-97733750D01*
X119094250Y-97575000D01*
X118530000Y-97571928D01*
X118405518Y-97584188D01*
X118285820Y-97620498D01*
X118175506Y-97679463D01*
X118078815Y-97758815D01*
X117999463Y-97855506D01*
X117940498Y-97965820D01*
X117904188Y-98085518D01*
X117891928Y-98210000D01*
X114960000Y-98210000D01*
X114960000Y-91600881D01*
X116858724Y-91600881D01*
X117218912Y-92090548D01*
X117882882Y-92450849D01*
X118604385Y-92674694D01*
X119355695Y-92753480D01*
X120107938Y-92684178D01*
X120832208Y-92469452D01*
X121500670Y-92117555D01*
X121541088Y-92090548D01*
X121901276Y-91600881D01*
X119380000Y-89079605D01*
X116858724Y-91600881D01*
X114960000Y-91600881D01*
X114960000Y-88929392D01*
X114964792Y-88875695D01*
X115526520Y-88875695D01*
X115595822Y-89627938D01*
X115810548Y-90352208D01*
X116162445Y-91020670D01*
X116189452Y-91061088D01*
X116679119Y-91421276D01*
X119200395Y-88900000D01*
X119559605Y-88900000D01*
X122080881Y-91421276D01*
X122570548Y-91061088D01*
X122930849Y-90397118D01*
X123154694Y-89675615D01*
X123233480Y-88924305D01*
X123164178Y-88172062D01*
X122949452Y-87447792D01*
X122597555Y-86779330D01*
X122570548Y-86738912D01*
X122080881Y-86378724D01*
X119559605Y-88900000D01*
X119200395Y-88900000D01*
X116679119Y-86378724D01*
X116189452Y-86738912D01*
X115829151Y-87402882D01*
X115605306Y-88124385D01*
X115526520Y-88875695D01*
X114964792Y-88875695D01*
X115032437Y-88117751D01*
X115239672Y-87360226D01*
X115577777Y-86651375D01*
X115902755Y-86199119D01*
X116858724Y-86199119D01*
X119380000Y-88720395D01*
X121901276Y-86199119D01*
X121541088Y-85709452D01*
X120877118Y-85349151D01*
X120155615Y-85125306D01*
X119404305Y-85046520D01*
X118652062Y-85115822D01*
X117927792Y-85330548D01*
X117259330Y-85682445D01*
X117218912Y-85709452D01*
X116858724Y-86199119D01*
X115902755Y-86199119D01*
X116036067Y-86013596D01*
X116600055Y-85467054D01*
X117251913Y-85029023D01*
X117971038Y-84713349D01*
X118739768Y-84528794D01*
X119404207Y-84480000D01*
X146825885Y-84480000D01*
X146762236Y-84532236D01*
G37*
X146762236Y-84532236D02*
X146737653Y-84562190D01*
X146157185Y-85142658D01*
X146127237Y-85167236D01*
X146102659Y-85197184D01*
X146102655Y-85197188D01*
X146069690Y-85237356D01*
X146029139Y-85286767D01*
X145991506Y-85357174D01*
X145956246Y-85423141D01*
X145911359Y-85571114D01*
X145896203Y-85725000D01*
X145900001Y-85763563D01*
X145900000Y-102938661D01*
X145770241Y-103025363D01*
X145570363Y-103225241D01*
X145469121Y-103376760D01*
X145329545Y-103167869D01*
X145117131Y-102955455D01*
X144867358Y-102788562D01*
X144589826Y-102673605D01*
X144295199Y-102615000D01*
X143994801Y-102615000D01*
X143700174Y-102673605D01*
X143422642Y-102788562D01*
X143172869Y-102955455D01*
X142960455Y-103167869D01*
X142793562Y-103417642D01*
X142678605Y-103695174D01*
X142620000Y-103989801D01*
X142620000Y-104290199D01*
X142678605Y-104584826D01*
X142793562Y-104862358D01*
X142960455Y-105112131D01*
X143172869Y-105324545D01*
X143422642Y-105491438D01*
X143700174Y-105606395D01*
X143994801Y-105665000D01*
X144295199Y-105665000D01*
X144589826Y-105606395D01*
X144867358Y-105491438D01*
X145117131Y-105324545D01*
X145329545Y-105112131D01*
X145469121Y-104903240D01*
X145570363Y-105054759D01*
X145770241Y-105254637D01*
X146005273Y-105411680D01*
X146266426Y-105519853D01*
X146543665Y-105575000D01*
X146826335Y-105575000D01*
X147103574Y-105519853D01*
X147364727Y-105411680D01*
X147599759Y-105254637D01*
X147799637Y-105054759D01*
X147955000Y-104822241D01*
X148110363Y-105054759D01*
X148310241Y-105254637D01*
X148545273Y-105411680D01*
X148806426Y-105519853D01*
X149083665Y-105575000D01*
X149366335Y-105575000D01*
X149643574Y-105519853D01*
X149830000Y-105442633D01*
X149829999Y-115124844D01*
X146979397Y-117975446D01*
X146826335Y-117945000D01*
X146543665Y-117945000D01*
X146266426Y-118000147D01*
X146005273Y-118108320D01*
X145770241Y-118265363D01*
X145570363Y-118465241D01*
X145469121Y-118616760D01*
X145329545Y-118407869D01*
X145117131Y-118195455D01*
X144867358Y-118028562D01*
X144589826Y-117913605D01*
X144295199Y-117855000D01*
X143994801Y-117855000D01*
X143700174Y-117913605D01*
X143422642Y-118028562D01*
X143172869Y-118195455D01*
X142960455Y-118407869D01*
X142793562Y-118657642D01*
X142678605Y-118935174D01*
X142620000Y-119229801D01*
X142620000Y-119530199D01*
X142678605Y-119824826D01*
X142793562Y-120102358D01*
X142960455Y-120352131D01*
X143172869Y-120564545D01*
X143422642Y-120731438D01*
X143700174Y-120846395D01*
X143994801Y-120905000D01*
X144295199Y-120905000D01*
X144589826Y-120846395D01*
X144867358Y-120731438D01*
X145117131Y-120564545D01*
X145329545Y-120352131D01*
X145469121Y-120143240D01*
X145570363Y-120294759D01*
X145770241Y-120494637D01*
X146005273Y-120651680D01*
X146266426Y-120759853D01*
X146543665Y-120815000D01*
X146826335Y-120815000D01*
X147103574Y-120759853D01*
X147364727Y-120651680D01*
X147599759Y-120494637D01*
X147799637Y-120294759D01*
X147955000Y-120062241D01*
X148110363Y-120294759D01*
X148310241Y-120494637D01*
X148545273Y-120651680D01*
X148806426Y-120759853D01*
X149083665Y-120815000D01*
X149366335Y-120815000D01*
X149643574Y-120759853D01*
X149904727Y-120651680D01*
X150139759Y-120494637D01*
X150339637Y-120294759D01*
X150495000Y-120062241D01*
X150650363Y-120294759D01*
X150850241Y-120494637D01*
X151085273Y-120651680D01*
X151346426Y-120759853D01*
X151623665Y-120815000D01*
X151906335Y-120815000D01*
X152183574Y-120759853D01*
X152444727Y-120651680D01*
X152679759Y-120494637D01*
X152879637Y-120294759D01*
X153035000Y-120062241D01*
X153190363Y-120294759D01*
X153390241Y-120494637D01*
X153625273Y-120651680D01*
X153886426Y-120759853D01*
X154163665Y-120815000D01*
X154446335Y-120815000D01*
X154723574Y-120759853D01*
X154984727Y-120651680D01*
X155219759Y-120494637D01*
X155419637Y-120294759D01*
X155575000Y-120062241D01*
X155730363Y-120294759D01*
X155930241Y-120494637D01*
X156165273Y-120651680D01*
X156426426Y-120759853D01*
X156703665Y-120815000D01*
X156986335Y-120815000D01*
X157263574Y-120759853D01*
X157524727Y-120651680D01*
X157759759Y-120494637D01*
X157959637Y-120294759D01*
X158115000Y-120062241D01*
X158270363Y-120294759D01*
X158470241Y-120494637D01*
X158705273Y-120651680D01*
X158966426Y-120759853D01*
X159243665Y-120815000D01*
X159526335Y-120815000D01*
X159803574Y-120759853D01*
X160064727Y-120651680D01*
X160299759Y-120494637D01*
X160499637Y-120294759D01*
X160655000Y-120062241D01*
X160810363Y-120294759D01*
X161010241Y-120494637D01*
X161245273Y-120651680D01*
X161506426Y-120759853D01*
X161783665Y-120815000D01*
X161919843Y-120815000D01*
X158424843Y-124310000D01*
X140660158Y-124310000D01*
X120827075Y-104476918D01*
X120865000Y-104286260D01*
X120865000Y-103993740D01*
X120807932Y-103706842D01*
X120695990Y-103436589D01*
X120533475Y-103193368D01*
X120326632Y-102986525D01*
X120152240Y-102870000D01*
X120326632Y-102753475D01*
X120533475Y-102546632D01*
X120695990Y-102303411D01*
X120807932Y-102033158D01*
X120865000Y-101746260D01*
X120865000Y-101453740D01*
X120807932Y-101166842D01*
X120695990Y-100896589D01*
X120533475Y-100653368D01*
X120401620Y-100521513D01*
X120474180Y-100499502D01*
X120584494Y-100440537D01*
X120681185Y-100361185D01*
X120760537Y-100264494D01*
X120819502Y-100154180D01*
X120855812Y-100034482D01*
X120868072Y-99910000D01*
X120865000Y-99345750D01*
X120706250Y-99187000D01*
X119507000Y-99187000D01*
X119507000Y-99207000D01*
X119253000Y-99207000D01*
X119253000Y-99187000D01*
X118053750Y-99187000D01*
X117895000Y-99345750D01*
X117891928Y-99910000D01*
X117904188Y-100034482D01*
X117940498Y-100154180D01*
X117999463Y-100264494D01*
X118078815Y-100361185D01*
X118175506Y-100440537D01*
X118285820Y-100499502D01*
X118358380Y-100521513D01*
X118226525Y-100653368D01*
X118064010Y-100896589D01*
X117952068Y-101166842D01*
X117895000Y-101453740D01*
X117895000Y-101746260D01*
X117952068Y-102033158D01*
X118064010Y-102303411D01*
X118226525Y-102546632D01*
X118433368Y-102753475D01*
X118607760Y-102870000D01*
X118433368Y-102986525D01*
X118226525Y-103193368D01*
X118064010Y-103436589D01*
X117952068Y-103706842D01*
X117895000Y-103993740D01*
X117895000Y-104286260D01*
X117952068Y-104573158D01*
X118064010Y-104843411D01*
X118226525Y-105086632D01*
X118433368Y-105293475D01*
X118607760Y-105410000D01*
X118433368Y-105526525D01*
X118226525Y-105733368D01*
X118064010Y-105976589D01*
X117952068Y-106246842D01*
X117895000Y-106533740D01*
X117895000Y-106826260D01*
X117952068Y-107113158D01*
X118064010Y-107383411D01*
X118226525Y-107626632D01*
X118433368Y-107833475D01*
X118676589Y-107995990D01*
X118946842Y-108107932D01*
X119233740Y-108165000D01*
X119526260Y-108165000D01*
X119813158Y-108107932D01*
X120083411Y-107995990D01*
X120326632Y-107833475D01*
X120509975Y-107650132D01*
X139117658Y-126257816D01*
X139142236Y-126287764D01*
X139172184Y-126312342D01*
X139172187Y-126312345D01*
X139201559Y-126336450D01*
X139261767Y-126385862D01*
X139398140Y-126458754D01*
X139511672Y-126493194D01*
X139546112Y-126503641D01*
X139560490Y-126505057D01*
X139661439Y-126515000D01*
X139661446Y-126515000D01*
X139699999Y-126518797D01*
X139738552Y-126515000D01*
X158783567Y-126515000D01*
X158822120Y-126518797D01*
X158860673Y-126515000D01*
X158860681Y-126515000D01*
X158976007Y-126503641D01*
X159123980Y-126458754D01*
X159260353Y-126385862D01*
X159379884Y-126287764D01*
X159404467Y-126257810D01*
X163592278Y-122070000D01*
X165061447Y-122070000D01*
X165100000Y-122073797D01*
X165138553Y-122070000D01*
X165138561Y-122070000D01*
X165253887Y-122058641D01*
X165401860Y-122013754D01*
X165538233Y-121940862D01*
X165657764Y-121842764D01*
X165682347Y-121812810D01*
X166710603Y-120784554D01*
X166863665Y-120815000D01*
X167146335Y-120815000D01*
X167423574Y-120759853D01*
X167684727Y-120651680D01*
X167919759Y-120494637D01*
X168119637Y-120294759D01*
X168275000Y-120062241D01*
X168430363Y-120294759D01*
X168630241Y-120494637D01*
X168865273Y-120651680D01*
X169126426Y-120759853D01*
X169403665Y-120815000D01*
X169686335Y-120815000D01*
X169963574Y-120759853D01*
X170224727Y-120651680D01*
X170459759Y-120494637D01*
X170659637Y-120294759D01*
X170815000Y-120062241D01*
X170970363Y-120294759D01*
X171170241Y-120494637D01*
X171405273Y-120651680D01*
X171666426Y-120759853D01*
X171943665Y-120815000D01*
X172226335Y-120815000D01*
X172503574Y-120759853D01*
X172764727Y-120651680D01*
X172999759Y-120494637D01*
X173199637Y-120294759D01*
X173355000Y-120062241D01*
X173510363Y-120294759D01*
X173710241Y-120494637D01*
X173945273Y-120651680D01*
X174206426Y-120759853D01*
X174483665Y-120815000D01*
X174766335Y-120815000D01*
X175043574Y-120759853D01*
X175304727Y-120651680D01*
X175539759Y-120494637D01*
X175739637Y-120294759D01*
X175895000Y-120062241D01*
X176050363Y-120294759D01*
X176250241Y-120494637D01*
X176485273Y-120651680D01*
X176746426Y-120759853D01*
X177023665Y-120815000D01*
X177306335Y-120815000D01*
X177583574Y-120759853D01*
X177844727Y-120651680D01*
X178079759Y-120494637D01*
X178279637Y-120294759D01*
X178436680Y-120059727D01*
X178441067Y-120049135D01*
X178552615Y-120235131D01*
X178741586Y-120443519D01*
X178967580Y-120611037D01*
X179221913Y-120731246D01*
X179355961Y-120771904D01*
X179578000Y-120649915D01*
X179578000Y-119507000D01*
X179558000Y-119507000D01*
X179558000Y-119253000D01*
X179578000Y-119253000D01*
X179578000Y-119233000D01*
X179832000Y-119233000D01*
X179832000Y-119253000D01*
X179852000Y-119253000D01*
X179852000Y-119507000D01*
X179832000Y-119507000D01*
X179832000Y-120649915D01*
X180054039Y-120771904D01*
X180188087Y-120731246D01*
X180442420Y-120611037D01*
X180668414Y-120443519D01*
X180857385Y-120235131D01*
X180968933Y-120049135D01*
X180973320Y-120059727D01*
X181130363Y-120294759D01*
X181330241Y-120494637D01*
X181565273Y-120651680D01*
X181826426Y-120759853D01*
X182103665Y-120815000D01*
X182386335Y-120815000D01*
X182663574Y-120759853D01*
X182924727Y-120651680D01*
X183159759Y-120494637D01*
X183359637Y-120294759D01*
X183460879Y-120143240D01*
X183600455Y-120352131D01*
X183812869Y-120564545D01*
X184062642Y-120731438D01*
X184340174Y-120846395D01*
X184634801Y-120905000D01*
X184935199Y-120905000D01*
X185229826Y-120846395D01*
X185507358Y-120731438D01*
X185757131Y-120564545D01*
X185969545Y-120352131D01*
X186136438Y-120102358D01*
X186251395Y-119824826D01*
X186310000Y-119530199D01*
X186310000Y-119229801D01*
X186251395Y-118935174D01*
X186136438Y-118657642D01*
X185969545Y-118407869D01*
X185757131Y-118195455D01*
X185651703Y-118125010D01*
X200834853Y-118125010D01*
X204292924Y-121583082D01*
X204255000Y-121773740D01*
X204255000Y-122066260D01*
X204312068Y-122353158D01*
X204424010Y-122623411D01*
X204586525Y-122866632D01*
X204793368Y-123073475D01*
X204967760Y-123190000D01*
X204793368Y-123306525D01*
X204586525Y-123513368D01*
X204424010Y-123756589D01*
X204312068Y-124026842D01*
X204255000Y-124313740D01*
X204255000Y-124606260D01*
X204312068Y-124893158D01*
X204424010Y-125163411D01*
X204586525Y-125406632D01*
X204793368Y-125613475D01*
X204967760Y-125730000D01*
X204793368Y-125846525D01*
X204586525Y-126053368D01*
X204424010Y-126296589D01*
X204312068Y-126566842D01*
X204255000Y-126853740D01*
X204255000Y-127146260D01*
X204312068Y-127433158D01*
X204424010Y-127703411D01*
X204586525Y-127946632D01*
X204718380Y-128078487D01*
X204645820Y-128100498D01*
X204535506Y-128159463D01*
X204438815Y-128238815D01*
X204359463Y-128335506D01*
X204300498Y-128445820D01*
X204264188Y-128565518D01*
X204251928Y-128690000D01*
X204255000Y-129254250D01*
X204413750Y-129413000D01*
X205613000Y-129413000D01*
X205613000Y-129393000D01*
X205867000Y-129393000D01*
X205867000Y-129413000D01*
X207066250Y-129413000D01*
X207225000Y-129254250D01*
X207228072Y-128690000D01*
X207215812Y-128565518D01*
X207179502Y-128445820D01*
X207120537Y-128335506D01*
X207041185Y-128238815D01*
X206944494Y-128159463D01*
X206834180Y-128100498D01*
X206761620Y-128078487D01*
X206893475Y-127946632D01*
X207055990Y-127703411D01*
X207167932Y-127433158D01*
X207225000Y-127146260D01*
X207225000Y-126853740D01*
X207167932Y-126566842D01*
X207055990Y-126296589D01*
X206893475Y-126053368D01*
X206686632Y-125846525D01*
X206512240Y-125730000D01*
X206686632Y-125613475D01*
X206893475Y-125406632D01*
X207055990Y-125163411D01*
X207167932Y-124893158D01*
X207225000Y-124606260D01*
X207225000Y-124313740D01*
X207187075Y-124123082D01*
X208807817Y-122502341D01*
X208837764Y-122477764D01*
X208935862Y-122358233D01*
X209008754Y-122221860D01*
X209053641Y-122073887D01*
X209065000Y-121958561D01*
X209065000Y-121958554D01*
X209068797Y-121920001D01*
X209065000Y-121881448D01*
X209065000Y-118783556D01*
X209068797Y-118745000D01*
X209065000Y-118706444D01*
X209065000Y-118706439D01*
X209055143Y-118606358D01*
X209053642Y-118591113D01*
X209008754Y-118443140D01*
X208989901Y-118407869D01*
X208935862Y-118306767D01*
X208837764Y-118187236D01*
X208807810Y-118162653D01*
X206957347Y-116312190D01*
X206932764Y-116282236D01*
X206813233Y-116184138D01*
X206676860Y-116111246D01*
X206528887Y-116066359D01*
X206413561Y-116055000D01*
X206413553Y-116055000D01*
X206375000Y-116051203D01*
X206336447Y-116055000D01*
X167043552Y-116055000D01*
X167004999Y-116051203D01*
X166966446Y-116055000D01*
X166966439Y-116055000D01*
X166865490Y-116064943D01*
X166851112Y-116066359D01*
X166816672Y-116076806D01*
X166703140Y-116111246D01*
X166566767Y-116184138D01*
X166518632Y-116223642D01*
X166477187Y-116257655D01*
X166477184Y-116257658D01*
X166447236Y-116282236D01*
X166422658Y-116312184D01*
X164759396Y-117975446D01*
X164606335Y-117945000D01*
X164323665Y-117945000D01*
X164046426Y-118000147D01*
X163785273Y-118108320D01*
X163550241Y-118265363D01*
X163350363Y-118465241D01*
X163195000Y-118697759D01*
X163039637Y-118465241D01*
X162839759Y-118265363D01*
X162604727Y-118108320D01*
X162343574Y-118000147D01*
X162066335Y-117945000D01*
X161783665Y-117945000D01*
X161506426Y-118000147D01*
X161245273Y-118108320D01*
X161010241Y-118265363D01*
X160810363Y-118465241D01*
X160655000Y-118697759D01*
X160499637Y-118465241D01*
X160299759Y-118265363D01*
X160064727Y-118108320D01*
X159803574Y-118000147D01*
X159526335Y-117945000D01*
X159243665Y-117945000D01*
X158966426Y-118000147D01*
X158705273Y-118108320D01*
X158470241Y-118265363D01*
X158270363Y-118465241D01*
X158115000Y-118697759D01*
X157959637Y-118465241D01*
X157759759Y-118265363D01*
X157524727Y-118108320D01*
X157263574Y-118000147D01*
X156986335Y-117945000D01*
X156703665Y-117945000D01*
X156426426Y-118000147D01*
X156165273Y-118108320D01*
X155930241Y-118265363D01*
X155730363Y-118465241D01*
X155575000Y-118697759D01*
X155419637Y-118465241D01*
X155219759Y-118265363D01*
X154984727Y-118108320D01*
X154723574Y-118000147D01*
X154446335Y-117945000D01*
X154163665Y-117945000D01*
X153886426Y-118000147D01*
X153625273Y-118108320D01*
X153390241Y-118265363D01*
X153190363Y-118465241D01*
X153035000Y-118697759D01*
X152879637Y-118465241D01*
X152679759Y-118265363D01*
X152444727Y-118108320D01*
X152183574Y-118000147D01*
X151906335Y-117945000D01*
X151623665Y-117945000D01*
X151346426Y-118000147D01*
X151085273Y-118108320D01*
X150850241Y-118265363D01*
X150650363Y-118465241D01*
X150495000Y-118697759D01*
X150339637Y-118465241D01*
X150139759Y-118265363D01*
X149904727Y-118108320D01*
X149643574Y-118000147D01*
X149366335Y-117945000D01*
X149230157Y-117945000D01*
X151142810Y-116032347D01*
X151172763Y-116007765D01*
X151270861Y-115888234D01*
X151343753Y-115751861D01*
X151343753Y-115751860D01*
X151388641Y-115603888D01*
X151396019Y-115528975D01*
X151399999Y-115488562D01*
X151399999Y-115488557D01*
X151403796Y-115450001D01*
X151399999Y-115411445D01*
X151399999Y-105530509D01*
X151623665Y-105575000D01*
X151906335Y-105575000D01*
X152183574Y-105519853D01*
X152444727Y-105411680D01*
X152679759Y-105254637D01*
X152879637Y-105054759D01*
X153035000Y-104822241D01*
X153190363Y-105054759D01*
X153390241Y-105254637D01*
X153625273Y-105411680D01*
X153886426Y-105519853D01*
X154163665Y-105575000D01*
X154446335Y-105575000D01*
X154723574Y-105519853D01*
X154984727Y-105411680D01*
X155219759Y-105254637D01*
X155419637Y-105054759D01*
X155575000Y-104822241D01*
X155730363Y-105054759D01*
X155930241Y-105254637D01*
X156165273Y-105411680D01*
X156426426Y-105519853D01*
X156703665Y-105575000D01*
X156986335Y-105575000D01*
X157263574Y-105519853D01*
X157524727Y-105411680D01*
X157759759Y-105254637D01*
X157959637Y-105054759D01*
X158115000Y-104822241D01*
X158270363Y-105054759D01*
X158470241Y-105254637D01*
X158705273Y-105411680D01*
X158966426Y-105519853D01*
X159243665Y-105575000D01*
X159526335Y-105575000D01*
X159803574Y-105519853D01*
X160064727Y-105411680D01*
X160299759Y-105254637D01*
X160499637Y-105054759D01*
X160655000Y-104822241D01*
X160810363Y-105054759D01*
X161010241Y-105254637D01*
X161245273Y-105411680D01*
X161506426Y-105519853D01*
X161783665Y-105575000D01*
X162066335Y-105575000D01*
X162343574Y-105519853D01*
X162604727Y-105411680D01*
X162839759Y-105254637D01*
X163039637Y-105054759D01*
X163195000Y-104822241D01*
X163350363Y-105054759D01*
X163550241Y-105254637D01*
X163785273Y-105411680D01*
X164046426Y-105519853D01*
X164323665Y-105575000D01*
X164606335Y-105575000D01*
X164883574Y-105519853D01*
X165144727Y-105411680D01*
X165379759Y-105254637D01*
X165579637Y-105054759D01*
X165735000Y-104822241D01*
X165890363Y-105054759D01*
X166090241Y-105254637D01*
X166325273Y-105411680D01*
X166586426Y-105519853D01*
X166863665Y-105575000D01*
X167146335Y-105575000D01*
X167423574Y-105519853D01*
X167684727Y-105411680D01*
X167919759Y-105254637D01*
X168119637Y-105054759D01*
X168275000Y-104822241D01*
X168430363Y-105054759D01*
X168630241Y-105254637D01*
X168865273Y-105411680D01*
X169126426Y-105519853D01*
X169403665Y-105575000D01*
X169686335Y-105575000D01*
X169963574Y-105519853D01*
X170224727Y-105411680D01*
X170459759Y-105254637D01*
X170659637Y-105054759D01*
X170815000Y-104822241D01*
X170970363Y-105054759D01*
X171170241Y-105254637D01*
X171405273Y-105411680D01*
X171666426Y-105519853D01*
X171943665Y-105575000D01*
X172226335Y-105575000D01*
X172503574Y-105519853D01*
X172764727Y-105411680D01*
X172999759Y-105254637D01*
X173199637Y-105054759D01*
X173356680Y-104819727D01*
X173361067Y-104809135D01*
X173472615Y-104995131D01*
X173661586Y-105203519D01*
X173887580Y-105371037D01*
X174141913Y-105491246D01*
X174275961Y-105531904D01*
X174498000Y-105409915D01*
X174498000Y-104267000D01*
X174478000Y-104267000D01*
X174478000Y-104013000D01*
X174498000Y-104013000D01*
X174498000Y-102870085D01*
X174752000Y-102870085D01*
X174752000Y-104013000D01*
X174772000Y-104013000D01*
X174772000Y-104267000D01*
X174752000Y-104267000D01*
X174752000Y-105409915D01*
X174974039Y-105531904D01*
X175108087Y-105491246D01*
X175362420Y-105371037D01*
X175588414Y-105203519D01*
X175777385Y-104995131D01*
X175888933Y-104809135D01*
X175893320Y-104819727D01*
X176050363Y-105054759D01*
X176250241Y-105254637D01*
X176485273Y-105411680D01*
X176746426Y-105519853D01*
X177023665Y-105575000D01*
X177306335Y-105575000D01*
X177583574Y-105519853D01*
X177844727Y-105411680D01*
X178079759Y-105254637D01*
X178279637Y-105054759D01*
X178435000Y-104822241D01*
X178590363Y-105054759D01*
X178790241Y-105254637D01*
X179025273Y-105411680D01*
X179286426Y-105519853D01*
X179563665Y-105575000D01*
X179846335Y-105575000D01*
X180123574Y-105519853D01*
X180384727Y-105411680D01*
X180619759Y-105254637D01*
X180818357Y-105056039D01*
X180819188Y-105064482D01*
X180855498Y-105184180D01*
X180914463Y-105294494D01*
X180993815Y-105391185D01*
X181090506Y-105470537D01*
X181200820Y-105529502D01*
X181320518Y-105565812D01*
X181445000Y-105578072D01*
X183045000Y-105578072D01*
X183169482Y-105565812D01*
X183289180Y-105529502D01*
X183399494Y-105470537D01*
X183496185Y-105391185D01*
X183575537Y-105294494D01*
X183634502Y-105184180D01*
X183643347Y-105155023D01*
X183812869Y-105324545D01*
X184062642Y-105491438D01*
X184340174Y-105606395D01*
X184634801Y-105665000D01*
X184935199Y-105665000D01*
X185229826Y-105606395D01*
X185507358Y-105491438D01*
X185757131Y-105324545D01*
X185969545Y-105112131D01*
X186136438Y-104862358D01*
X186251395Y-104584826D01*
X186310000Y-104290199D01*
X186310000Y-103989801D01*
X186251395Y-103695174D01*
X186136438Y-103417642D01*
X185969545Y-103167869D01*
X185757131Y-102955455D01*
X185507358Y-102788562D01*
X185229826Y-102673605D01*
X184935199Y-102615000D01*
X184634801Y-102615000D01*
X184340174Y-102673605D01*
X184062642Y-102788562D01*
X183812869Y-102955455D01*
X183643347Y-103124977D01*
X183634502Y-103095820D01*
X183575537Y-102985506D01*
X183496185Y-102888815D01*
X183399494Y-102809463D01*
X183289180Y-102750498D01*
X183169482Y-102714188D01*
X183045000Y-102701928D01*
X181445000Y-102701928D01*
X181320518Y-102714188D01*
X181200820Y-102750498D01*
X181090506Y-102809463D01*
X180993815Y-102888815D01*
X180914463Y-102985506D01*
X180855498Y-103095820D01*
X180819188Y-103215518D01*
X180818357Y-103223961D01*
X180619759Y-103025363D01*
X180384727Y-102868320D01*
X180123574Y-102760147D01*
X179846335Y-102705000D01*
X179563665Y-102705000D01*
X179286426Y-102760147D01*
X179025273Y-102868320D01*
X178790241Y-103025363D01*
X178590363Y-103225241D01*
X178435000Y-103457759D01*
X178279637Y-103225241D01*
X178079759Y-103025363D01*
X177844727Y-102868320D01*
X177583574Y-102760147D01*
X177306335Y-102705000D01*
X177023665Y-102705000D01*
X176746426Y-102760147D01*
X176485273Y-102868320D01*
X176250241Y-103025363D01*
X176050363Y-103225241D01*
X175893320Y-103460273D01*
X175888933Y-103470865D01*
X175777385Y-103284869D01*
X175588414Y-103076481D01*
X175362420Y-102908963D01*
X175108087Y-102788754D01*
X174974039Y-102748096D01*
X174752000Y-102870085D01*
X174498000Y-102870085D01*
X174275961Y-102748096D01*
X174141913Y-102788754D01*
X173887580Y-102908963D01*
X173661586Y-103076481D01*
X173472615Y-103284869D01*
X173361067Y-103470865D01*
X173356680Y-103460273D01*
X173199637Y-103225241D01*
X172999759Y-103025363D01*
X172764727Y-102868320D01*
X172503574Y-102760147D01*
X172226335Y-102705000D01*
X171943665Y-102705000D01*
X171666426Y-102760147D01*
X171405273Y-102868320D01*
X171170241Y-103025363D01*
X170970363Y-103225241D01*
X170815000Y-103457759D01*
X170659637Y-103225241D01*
X170459759Y-103025363D01*
X170224727Y-102868320D01*
X169963574Y-102760147D01*
X169686335Y-102705000D01*
X169403665Y-102705000D01*
X169126426Y-102760147D01*
X168865273Y-102868320D01*
X168630241Y-103025363D01*
X168430363Y-103225241D01*
X168275000Y-103457759D01*
X168119637Y-103225241D01*
X167919759Y-103025363D01*
X167684727Y-102868320D01*
X167423574Y-102760147D01*
X167146335Y-102705000D01*
X167010157Y-102705000D01*
X177490158Y-92225000D01*
X178701928Y-92225000D01*
X178701928Y-92440000D01*
X178714188Y-92564482D01*
X178750498Y-92684180D01*
X178809463Y-92794494D01*
X178888815Y-92891185D01*
X178985506Y-92970537D01*
X179095820Y-93029502D01*
X179215518Y-93065812D01*
X179340000Y-93078072D01*
X181340000Y-93078072D01*
X181464482Y-93065812D01*
X181584180Y-93029502D01*
X181694494Y-92970537D01*
X181791185Y-92891185D01*
X181870537Y-92794494D01*
X181929502Y-92684180D01*
X181962496Y-92575413D01*
X186984192Y-92575413D01*
X187079956Y-92839814D01*
X187369571Y-92980704D01*
X187681108Y-93062384D01*
X188002595Y-93081718D01*
X188321675Y-93037961D01*
X188626088Y-92932795D01*
X188800044Y-92839814D01*
X188895808Y-92575413D01*
X187940000Y-91619605D01*
X186984192Y-92575413D01*
X181962496Y-92575413D01*
X181965812Y-92564482D01*
X181978072Y-92440000D01*
X181978072Y-91502595D01*
X186298282Y-91502595D01*
X186342039Y-91821675D01*
X186447205Y-92126088D01*
X186540186Y-92300044D01*
X186804587Y-92395808D01*
X187760395Y-91440000D01*
X188119605Y-91440000D01*
X189075413Y-92395808D01*
X189339814Y-92300044D01*
X189480704Y-92010429D01*
X189562384Y-91698892D01*
X189568278Y-91600881D01*
X203218724Y-91600881D01*
X203578912Y-92090548D01*
X204242882Y-92450849D01*
X204964385Y-92674694D01*
X205715695Y-92753480D01*
X206467938Y-92684178D01*
X207192208Y-92469452D01*
X207860670Y-92117555D01*
X207901088Y-92090548D01*
X208261276Y-91600881D01*
X205740000Y-89079605D01*
X203218724Y-91600881D01*
X189568278Y-91600881D01*
X189581718Y-91377405D01*
X189537961Y-91058325D01*
X189432795Y-90753912D01*
X189339814Y-90579956D01*
X189075413Y-90484192D01*
X188119605Y-91440000D01*
X187760395Y-91440000D01*
X186804587Y-90484192D01*
X186540186Y-90579956D01*
X186399296Y-90869571D01*
X186317616Y-91181108D01*
X186298282Y-91502595D01*
X181978072Y-91502595D01*
X181978072Y-90440000D01*
X181965812Y-90315518D01*
X181962497Y-90304587D01*
X186984192Y-90304587D01*
X187940000Y-91260395D01*
X188895808Y-90304587D01*
X188800044Y-90040186D01*
X188510429Y-89899296D01*
X188198892Y-89817616D01*
X187877405Y-89798282D01*
X187558325Y-89842039D01*
X187253912Y-89947205D01*
X187079956Y-90040186D01*
X186984192Y-90304587D01*
X181962497Y-90304587D01*
X181929502Y-90195820D01*
X181870537Y-90085506D01*
X181791185Y-89988815D01*
X181694494Y-89909463D01*
X181584180Y-89850498D01*
X181464482Y-89814188D01*
X181340000Y-89801928D01*
X179340000Y-89801928D01*
X179215518Y-89814188D01*
X179095820Y-89850498D01*
X178985506Y-89909463D01*
X178888815Y-89988815D01*
X178809463Y-90085506D01*
X178750498Y-90195820D01*
X178714188Y-90315518D01*
X178701928Y-90440000D01*
X178701928Y-90655000D01*
X177203552Y-90655000D01*
X177164999Y-90651203D01*
X177126446Y-90655000D01*
X177126439Y-90655000D01*
X177025490Y-90664943D01*
X177011112Y-90666359D01*
X176976672Y-90676806D01*
X176863140Y-90711246D01*
X176726767Y-90784138D01*
X176666559Y-90833550D01*
X176637187Y-90857655D01*
X176637184Y-90857658D01*
X176607236Y-90882236D01*
X176582658Y-90912184D01*
X164759397Y-102735446D01*
X164606335Y-102705000D01*
X164323665Y-102705000D01*
X164046426Y-102760147D01*
X163785273Y-102868320D01*
X163550241Y-103025363D01*
X163350363Y-103225241D01*
X163195000Y-103457759D01*
X163039637Y-103225241D01*
X162839759Y-103025363D01*
X162604727Y-102868320D01*
X162343574Y-102760147D01*
X162066335Y-102705000D01*
X161783665Y-102705000D01*
X161506426Y-102760147D01*
X161245273Y-102868320D01*
X161010241Y-103025363D01*
X160810363Y-103225241D01*
X160655000Y-103457759D01*
X160499637Y-103225241D01*
X160299759Y-103025363D01*
X160064727Y-102868320D01*
X159803574Y-102760147D01*
X159526335Y-102705000D01*
X159243665Y-102705000D01*
X158966426Y-102760147D01*
X158705273Y-102868320D01*
X158470241Y-103025363D01*
X158270363Y-103225241D01*
X158115000Y-103457759D01*
X157959637Y-103225241D01*
X157759759Y-103025363D01*
X157524727Y-102868320D01*
X157263574Y-102760147D01*
X156986335Y-102705000D01*
X156850157Y-102705000D01*
X169394211Y-90160946D01*
X169476589Y-90215990D01*
X169746842Y-90327932D01*
X170033740Y-90385000D01*
X170326260Y-90385000D01*
X170613158Y-90327932D01*
X170883411Y-90215990D01*
X171126632Y-90053475D01*
X171333475Y-89846632D01*
X171450000Y-89672240D01*
X171566525Y-89846632D01*
X171773368Y-90053475D01*
X172016589Y-90215990D01*
X172286842Y-90327932D01*
X172573740Y-90385000D01*
X172866260Y-90385000D01*
X173153158Y-90327932D01*
X173423411Y-90215990D01*
X173666632Y-90053475D01*
X173873475Y-89846632D01*
X174035990Y-89603411D01*
X174147932Y-89333158D01*
X174205000Y-89046260D01*
X174205000Y-88875695D01*
X201886520Y-88875695D01*
X201955822Y-89627938D01*
X202170548Y-90352208D01*
X202522445Y-91020670D01*
X202549452Y-91061088D01*
X203039119Y-91421276D01*
X205560395Y-88900000D01*
X205919605Y-88900000D01*
X208440881Y-91421276D01*
X208930548Y-91061088D01*
X209290849Y-90397118D01*
X209514694Y-89675615D01*
X209593480Y-88924305D01*
X209524178Y-88172062D01*
X209309452Y-87447792D01*
X208957555Y-86779330D01*
X208930548Y-86738912D01*
X208440881Y-86378724D01*
X205919605Y-88900000D01*
X205560395Y-88900000D01*
X203039119Y-86378724D01*
X202549452Y-86738912D01*
X202189151Y-87402882D01*
X201965306Y-88124385D01*
X201886520Y-88875695D01*
X174205000Y-88875695D01*
X174205000Y-88753740D01*
X174147932Y-88466842D01*
X174035990Y-88196589D01*
X173873475Y-87953368D01*
X173666632Y-87746525D01*
X173423411Y-87584010D01*
X173153158Y-87472068D01*
X172866260Y-87415000D01*
X172573740Y-87415000D01*
X172286842Y-87472068D01*
X172016589Y-87584010D01*
X171773368Y-87746525D01*
X171566525Y-87953368D01*
X171450000Y-88127760D01*
X171333475Y-87953368D01*
X171126632Y-87746525D01*
X170883411Y-87584010D01*
X170613158Y-87472068D01*
X170326260Y-87415000D01*
X170033740Y-87415000D01*
X169746842Y-87472068D01*
X169476589Y-87584010D01*
X169233368Y-87746525D01*
X169026525Y-87953368D01*
X168904805Y-88135534D01*
X168835178Y-88018645D01*
X168640269Y-87802412D01*
X168406920Y-87628359D01*
X168144099Y-87503175D01*
X167996890Y-87458524D01*
X167767000Y-87579845D01*
X167767000Y-88773000D01*
X167787000Y-88773000D01*
X167787000Y-89027000D01*
X167767000Y-89027000D01*
X167767000Y-89047000D01*
X167513000Y-89047000D01*
X167513000Y-89027000D01*
X167493000Y-89027000D01*
X167493000Y-88773000D01*
X167513000Y-88773000D01*
X167513000Y-87579845D01*
X167283110Y-87458524D01*
X167135901Y-87503175D01*
X166873080Y-87628359D01*
X166639731Y-87802412D01*
X166444822Y-88018645D01*
X166375195Y-88135534D01*
X166253475Y-87953368D01*
X166046632Y-87746525D01*
X165803411Y-87584010D01*
X165533158Y-87472068D01*
X165246260Y-87415000D01*
X164953740Y-87415000D01*
X164666842Y-87472068D01*
X164396589Y-87584010D01*
X164153368Y-87746525D01*
X163946525Y-87953368D01*
X163830000Y-88127760D01*
X163713475Y-87953368D01*
X163506632Y-87746525D01*
X163345000Y-87638526D01*
X163345000Y-86398552D01*
X163348797Y-86359999D01*
X163345000Y-86321446D01*
X163345000Y-86321439D01*
X163333641Y-86206113D01*
X163331520Y-86199119D01*
X203218724Y-86199119D01*
X205740000Y-88720395D01*
X208261276Y-86199119D01*
X207901088Y-85709452D01*
X207237118Y-85349151D01*
X206515615Y-85125306D01*
X205764305Y-85046520D01*
X205012062Y-85115822D01*
X204287792Y-85330548D01*
X203619330Y-85682445D01*
X203578912Y-85709452D01*
X203218724Y-86199119D01*
X163331520Y-86199119D01*
X163321634Y-86166531D01*
X163288754Y-86058140D01*
X163215862Y-85921767D01*
X163162695Y-85856984D01*
X163142345Y-85832187D01*
X163142342Y-85832184D01*
X163117764Y-85802236D01*
X163087817Y-85777659D01*
X161872347Y-84562190D01*
X161847764Y-84532236D01*
X161784115Y-84480000D01*
X205710608Y-84480000D01*
X206522249Y-84552437D01*
X207279774Y-84759672D01*
X207988625Y-85097777D01*
X208626404Y-85556067D01*
X209172946Y-86120055D01*
X209610977Y-86771913D01*
X209926651Y-87491038D01*
X210111206Y-88259768D01*
X210160001Y-88924221D01*
X210160000Y-139670608D01*
X210087563Y-140482249D01*
X209880328Y-141239774D01*
X209542221Y-141948627D01*
X209083928Y-142586410D01*
X208519945Y-143132946D01*
X207868085Y-143570978D01*
X207148963Y-143886651D01*
X206380232Y-144071206D01*
X205715792Y-144120000D01*
X119409392Y-144120000D01*
X118597751Y-144047563D01*
X117840226Y-143840328D01*
X117131373Y-143502221D01*
X116493590Y-143043928D01*
X115947054Y-142479945D01*
X115893926Y-142400881D01*
X116858724Y-142400881D01*
X117218912Y-142890548D01*
X117882882Y-143250849D01*
X118604385Y-143474694D01*
X119355695Y-143553480D01*
X120107938Y-143484178D01*
X120832208Y-143269452D01*
X121500670Y-142917555D01*
X121541088Y-142890548D01*
X121901276Y-142400881D01*
X203218724Y-142400881D01*
X203578912Y-142890548D01*
X204242882Y-143250849D01*
X204964385Y-143474694D01*
X205715695Y-143553480D01*
X206467938Y-143484178D01*
X207192208Y-143269452D01*
X207860670Y-142917555D01*
X207901088Y-142890548D01*
X208261276Y-142400881D01*
X205740000Y-139879605D01*
X203218724Y-142400881D01*
X121901276Y-142400881D01*
X119380000Y-139879605D01*
X116858724Y-142400881D01*
X115893926Y-142400881D01*
X115509022Y-141828085D01*
X115193349Y-141108963D01*
X115008794Y-140340232D01*
X114960000Y-139675792D01*
X114960000Y-139675695D01*
X115526520Y-139675695D01*
X115595822Y-140427938D01*
X115810548Y-141152208D01*
X116162445Y-141820670D01*
X116189452Y-141861088D01*
X116679119Y-142221276D01*
X119200395Y-139700000D01*
X119559605Y-139700000D01*
X122080881Y-142221276D01*
X122570548Y-141861088D01*
X122930849Y-141197118D01*
X123154694Y-140475615D01*
X123233480Y-139724305D01*
X123229002Y-139675695D01*
X201886520Y-139675695D01*
X201955822Y-140427938D01*
X202170548Y-141152208D01*
X202522445Y-141820670D01*
X202549452Y-141861088D01*
X203039119Y-142221276D01*
X205560395Y-139700000D01*
X205919605Y-139700000D01*
X208440881Y-142221276D01*
X208930548Y-141861088D01*
X209290849Y-141197118D01*
X209514694Y-140475615D01*
X209593480Y-139724305D01*
X209524178Y-138972062D01*
X209309452Y-138247792D01*
X208957555Y-137579330D01*
X208930548Y-137538912D01*
X208440881Y-137178724D01*
X205919605Y-139700000D01*
X205560395Y-139700000D01*
X203039119Y-137178724D01*
X202549452Y-137538912D01*
X202189151Y-138202882D01*
X201965306Y-138924385D01*
X201886520Y-139675695D01*
X123229002Y-139675695D01*
X123164178Y-138972062D01*
X122949452Y-138247792D01*
X122597555Y-137579330D01*
X122570548Y-137538912D01*
X122080881Y-137178724D01*
X119559605Y-139700000D01*
X119200395Y-139700000D01*
X116679119Y-137178724D01*
X116189452Y-137538912D01*
X115829151Y-138202882D01*
X115605306Y-138924385D01*
X115526520Y-139675695D01*
X114960000Y-139675695D01*
X114960000Y-136999119D01*
X116858724Y-136999119D01*
X119380000Y-139520395D01*
X121901276Y-136999119D01*
X203218724Y-136999119D01*
X205740000Y-139520395D01*
X208261276Y-136999119D01*
X207901088Y-136509452D01*
X207237118Y-136149151D01*
X206515615Y-135925306D01*
X205764305Y-135846520D01*
X205012062Y-135915822D01*
X204287792Y-136130548D01*
X203619330Y-136482445D01*
X203578912Y-136509452D01*
X203218724Y-136999119D01*
X121901276Y-136999119D01*
X121541088Y-136509452D01*
X120877118Y-136149151D01*
X120155615Y-135925306D01*
X119404305Y-135846520D01*
X118652062Y-135915822D01*
X117927792Y-136130548D01*
X117259330Y-136482445D01*
X117218912Y-136509452D01*
X116858724Y-136999119D01*
X114960000Y-136999119D01*
X114960000Y-129896891D01*
X178263519Y-129896891D01*
X178360843Y-130171252D01*
X178509822Y-130421355D01*
X178704731Y-130637588D01*
X178938080Y-130811641D01*
X179200901Y-130936825D01*
X179348110Y-130981476D01*
X179578000Y-130860155D01*
X179578000Y-129667000D01*
X178384186Y-129667000D01*
X178263519Y-129896891D01*
X114960000Y-129896891D01*
X114960000Y-129183109D01*
X178263519Y-129183109D01*
X178384186Y-129413000D01*
X179578000Y-129413000D01*
X179578000Y-128219845D01*
X179832000Y-128219845D01*
X179832000Y-129413000D01*
X179852000Y-129413000D01*
X179852000Y-129667000D01*
X179832000Y-129667000D01*
X179832000Y-130860155D01*
X180061890Y-130981476D01*
X180209099Y-130936825D01*
X180471920Y-130811641D01*
X180705269Y-130637588D01*
X180781034Y-130553534D01*
X180805498Y-130634180D01*
X180864463Y-130744494D01*
X180943815Y-130841185D01*
X181040506Y-130920537D01*
X181150820Y-130979502D01*
X181270518Y-131015812D01*
X181395000Y-131028072D01*
X183095000Y-131028072D01*
X183219482Y-131015812D01*
X183339180Y-130979502D01*
X183449494Y-130920537D01*
X183546185Y-130841185D01*
X183625537Y-130744494D01*
X183684502Y-130634180D01*
X183720812Y-130514482D01*
X183733072Y-130390000D01*
X204251928Y-130390000D01*
X204264188Y-130514482D01*
X204300498Y-130634180D01*
X204359463Y-130744494D01*
X204438815Y-130841185D01*
X204535506Y-130920537D01*
X204645820Y-130979502D01*
X204765518Y-131015812D01*
X204890000Y-131028072D01*
X205454250Y-131025000D01*
X205613000Y-130866250D01*
X205613000Y-129667000D01*
X205867000Y-129667000D01*
X205867000Y-130866250D01*
X206025750Y-131025000D01*
X206590000Y-131028072D01*
X206714482Y-131015812D01*
X206834180Y-130979502D01*
X206944494Y-130920537D01*
X207041185Y-130841185D01*
X207120537Y-130744494D01*
X207179502Y-130634180D01*
X207215812Y-130514482D01*
X207228072Y-130390000D01*
X207225000Y-129825750D01*
X207066250Y-129667000D01*
X205867000Y-129667000D01*
X205613000Y-129667000D01*
X204413750Y-129667000D01*
X204255000Y-129825750D01*
X204251928Y-130390000D01*
X183733072Y-130390000D01*
X183733072Y-128690000D01*
X183720812Y-128565518D01*
X183684502Y-128445820D01*
X183625537Y-128335506D01*
X183546185Y-128238815D01*
X183449494Y-128159463D01*
X183339180Y-128100498D01*
X183219482Y-128064188D01*
X183095000Y-128051928D01*
X181395000Y-128051928D01*
X181270518Y-128064188D01*
X181150820Y-128100498D01*
X181040506Y-128159463D01*
X180943815Y-128238815D01*
X180864463Y-128335506D01*
X180805498Y-128445820D01*
X180781034Y-128526466D01*
X180705269Y-128442412D01*
X180471920Y-128268359D01*
X180209099Y-128143175D01*
X180061890Y-128098524D01*
X179832000Y-128219845D01*
X179578000Y-128219845D01*
X179348110Y-128098524D01*
X179200901Y-128143175D01*
X178938080Y-128268359D01*
X178704731Y-128442412D01*
X178509822Y-128658645D01*
X178360843Y-128908748D01*
X178263519Y-129183109D01*
X114960000Y-129183109D01*
X114960000Y-98210000D01*
X117891928Y-98210000D01*
X117895000Y-98774250D01*
X118053750Y-98933000D01*
X119253000Y-98933000D01*
X119253000Y-97733750D01*
X119507000Y-97733750D01*
X119507000Y-98933000D01*
X120706250Y-98933000D01*
X120865000Y-98774250D01*
X120868072Y-98210000D01*
X120855812Y-98085518D01*
X120819502Y-97965820D01*
X120760537Y-97855506D01*
X120681185Y-97758815D01*
X120584494Y-97679463D01*
X120474180Y-97620498D01*
X120354482Y-97584188D01*
X120230000Y-97571928D01*
X119665750Y-97575000D01*
X119507000Y-97733750D01*
X119253000Y-97733750D01*
X119094250Y-97575000D01*
X118530000Y-97571928D01*
X118405518Y-97584188D01*
X118285820Y-97620498D01*
X118175506Y-97679463D01*
X118078815Y-97758815D01*
X117999463Y-97855506D01*
X117940498Y-97965820D01*
X117904188Y-98085518D01*
X117891928Y-98210000D01*
X114960000Y-98210000D01*
X114960000Y-91600881D01*
X116858724Y-91600881D01*
X117218912Y-92090548D01*
X117882882Y-92450849D01*
X118604385Y-92674694D01*
X119355695Y-92753480D01*
X120107938Y-92684178D01*
X120832208Y-92469452D01*
X121500670Y-92117555D01*
X121541088Y-92090548D01*
X121901276Y-91600881D01*
X119380000Y-89079605D01*
X116858724Y-91600881D01*
X114960000Y-91600881D01*
X114960000Y-88929392D01*
X114964792Y-88875695D01*
X115526520Y-88875695D01*
X115595822Y-89627938D01*
X115810548Y-90352208D01*
X116162445Y-91020670D01*
X116189452Y-91061088D01*
X116679119Y-91421276D01*
X119200395Y-88900000D01*
X119559605Y-88900000D01*
X122080881Y-91421276D01*
X122570548Y-91061088D01*
X122930849Y-90397118D01*
X123154694Y-89675615D01*
X123233480Y-88924305D01*
X123164178Y-88172062D01*
X122949452Y-87447792D01*
X122597555Y-86779330D01*
X122570548Y-86738912D01*
X122080881Y-86378724D01*
X119559605Y-88900000D01*
X119200395Y-88900000D01*
X116679119Y-86378724D01*
X116189452Y-86738912D01*
X115829151Y-87402882D01*
X115605306Y-88124385D01*
X115526520Y-88875695D01*
X114964792Y-88875695D01*
X115032437Y-88117751D01*
X115239672Y-87360226D01*
X115577777Y-86651375D01*
X115902755Y-86199119D01*
X116858724Y-86199119D01*
X119380000Y-88720395D01*
X121901276Y-86199119D01*
X121541088Y-85709452D01*
X120877118Y-85349151D01*
X120155615Y-85125306D01*
X119404305Y-85046520D01*
X118652062Y-85115822D01*
X117927792Y-85330548D01*
X117259330Y-85682445D01*
X117218912Y-85709452D01*
X116858724Y-86199119D01*
X115902755Y-86199119D01*
X116036067Y-86013596D01*
X116600055Y-85467054D01*
X117251913Y-85029023D01*
X117971038Y-84713349D01*
X118739768Y-84528794D01*
X119404207Y-84480000D01*
X146825885Y-84480000D01*
X146762236Y-84532236D01*
G36*
X207495001Y-119070158D02*
G01*
X207495000Y-121594842D01*
X207225000Y-121864842D01*
X207225000Y-121773740D01*
X207167932Y-121486842D01*
X207055990Y-121216589D01*
X206893475Y-120973368D01*
X206686632Y-120766525D01*
X206443411Y-120604010D01*
X206173158Y-120492068D01*
X205886260Y-120435000D01*
X205593740Y-120435000D01*
X205403082Y-120472924D01*
X202555157Y-117625000D01*
X206049843Y-117625000D01*
X207495001Y-119070158D01*
G37*
X207495001Y-119070158D02*
X207495000Y-121594842D01*
X207225000Y-121864842D01*
X207225000Y-121773740D01*
X207167932Y-121486842D01*
X207055990Y-121216589D01*
X206893475Y-120973368D01*
X206686632Y-120766525D01*
X206443411Y-120604010D01*
X206173158Y-120492068D01*
X205886260Y-120435000D01*
X205593740Y-120435000D01*
X205403082Y-120472924D01*
X202555157Y-117625000D01*
X206049843Y-117625000D01*
X207495001Y-119070158D01*
G36*
X153500498Y-87805820D02*
G01*
X153464188Y-87925518D01*
X153451928Y-88050000D01*
X153451928Y-89750000D01*
X153464188Y-89874482D01*
X153500498Y-89994180D01*
X153559463Y-90104494D01*
X153638815Y-90201185D01*
X153735506Y-90280537D01*
X153845820Y-90339502D01*
X153965518Y-90375812D01*
X154090000Y-90388072D01*
X155790000Y-90388072D01*
X155914482Y-90375812D01*
X156034180Y-90339502D01*
X156144494Y-90280537D01*
X156241185Y-90201185D01*
X156320537Y-90104494D01*
X156379502Y-89994180D01*
X156401513Y-89921620D01*
X156533368Y-90053475D01*
X156776589Y-90215990D01*
X157046842Y-90327932D01*
X157333740Y-90385000D01*
X157626260Y-90385000D01*
X157913158Y-90327932D01*
X158183411Y-90215990D01*
X158426632Y-90053475D01*
X158633475Y-89846632D01*
X158750000Y-89672240D01*
X158866525Y-89846632D01*
X159073368Y-90053475D01*
X159316589Y-90215990D01*
X159586842Y-90327932D01*
X159873740Y-90385000D01*
X160166260Y-90385000D01*
X160453158Y-90327932D01*
X160723411Y-90215990D01*
X160966632Y-90053475D01*
X161173475Y-89846632D01*
X161290000Y-89672240D01*
X161406525Y-89846632D01*
X161613368Y-90053475D01*
X161856589Y-90215990D01*
X162126842Y-90327932D01*
X162413740Y-90385000D01*
X162706260Y-90385000D01*
X162993158Y-90327932D01*
X163263411Y-90215990D01*
X163506632Y-90053475D01*
X163713475Y-89846632D01*
X163830000Y-89672240D01*
X163946525Y-89846632D01*
X164153368Y-90053475D01*
X164396589Y-90215990D01*
X164666842Y-90327932D01*
X164953740Y-90385000D01*
X165246260Y-90385000D01*
X165533158Y-90327932D01*
X165803411Y-90215990D01*
X166046632Y-90053475D01*
X166253475Y-89846632D01*
X166375195Y-89664466D01*
X166444822Y-89781355D01*
X166639731Y-89997588D01*
X166873080Y-90171641D01*
X167069598Y-90265245D01*
X154599397Y-102735446D01*
X154446335Y-102705000D01*
X154163665Y-102705000D01*
X153886426Y-102760147D01*
X153625273Y-102868320D01*
X153390241Y-103025363D01*
X153190363Y-103225241D01*
X153035000Y-103457759D01*
X152879637Y-103225241D01*
X152679759Y-103025363D01*
X152444727Y-102868320D01*
X152183574Y-102760147D01*
X151906335Y-102705000D01*
X151623665Y-102705000D01*
X151530758Y-102723481D01*
X149375000Y-100567723D01*
X149375000Y-87955157D01*
X149550157Y-87780000D01*
X153514299Y-87780000D01*
X153500498Y-87805820D01*
G37*
X153500498Y-87805820D02*
X153464188Y-87925518D01*
X153451928Y-88050000D01*
X153451928Y-89750000D01*
X153464188Y-89874482D01*
X153500498Y-89994180D01*
X153559463Y-90104494D01*
X153638815Y-90201185D01*
X153735506Y-90280537D01*
X153845820Y-90339502D01*
X153965518Y-90375812D01*
X154090000Y-90388072D01*
X155790000Y-90388072D01*
X155914482Y-90375812D01*
X156034180Y-90339502D01*
X156144494Y-90280537D01*
X156241185Y-90201185D01*
X156320537Y-90104494D01*
X156379502Y-89994180D01*
X156401513Y-89921620D01*
X156533368Y-90053475D01*
X156776589Y-90215990D01*
X157046842Y-90327932D01*
X157333740Y-90385000D01*
X157626260Y-90385000D01*
X157913158Y-90327932D01*
X158183411Y-90215990D01*
X158426632Y-90053475D01*
X158633475Y-89846632D01*
X158750000Y-89672240D01*
X158866525Y-89846632D01*
X159073368Y-90053475D01*
X159316589Y-90215990D01*
X159586842Y-90327932D01*
X159873740Y-90385000D01*
X160166260Y-90385000D01*
X160453158Y-90327932D01*
X160723411Y-90215990D01*
X160966632Y-90053475D01*
X161173475Y-89846632D01*
X161290000Y-89672240D01*
X161406525Y-89846632D01*
X161613368Y-90053475D01*
X161856589Y-90215990D01*
X162126842Y-90327932D01*
X162413740Y-90385000D01*
X162706260Y-90385000D01*
X162993158Y-90327932D01*
X163263411Y-90215990D01*
X163506632Y-90053475D01*
X163713475Y-89846632D01*
X163830000Y-89672240D01*
X163946525Y-89846632D01*
X164153368Y-90053475D01*
X164396589Y-90215990D01*
X164666842Y-90327932D01*
X164953740Y-90385000D01*
X165246260Y-90385000D01*
X165533158Y-90327932D01*
X165803411Y-90215990D01*
X166046632Y-90053475D01*
X166253475Y-89846632D01*
X166375195Y-89664466D01*
X166444822Y-89781355D01*
X166639731Y-89997588D01*
X166873080Y-90171641D01*
X167069598Y-90265245D01*
X154599397Y-102735446D01*
X154446335Y-102705000D01*
X154163665Y-102705000D01*
X153886426Y-102760147D01*
X153625273Y-102868320D01*
X153390241Y-103025363D01*
X153190363Y-103225241D01*
X153035000Y-103457759D01*
X152879637Y-103225241D01*
X152679759Y-103025363D01*
X152444727Y-102868320D01*
X152183574Y-102760147D01*
X151906335Y-102705000D01*
X151623665Y-102705000D01*
X151530758Y-102723481D01*
X149375000Y-100567723D01*
X149375000Y-87955157D01*
X149550157Y-87780000D01*
X153514299Y-87780000D01*
X153500498Y-87805820D01*
G36*
X153500498Y-87805820D02*
G01*
X153464188Y-87925518D01*
X153451928Y-88050000D01*
X153451928Y-89750000D01*
X153464188Y-89874482D01*
X153500498Y-89994180D01*
X153559463Y-90104494D01*
X153638815Y-90201185D01*
X153735506Y-90280537D01*
X153845820Y-90339502D01*
X153965518Y-90375812D01*
X154090000Y-90388072D01*
X155790000Y-90388072D01*
X155914482Y-90375812D01*
X156034180Y-90339502D01*
X156144494Y-90280537D01*
X156241185Y-90201185D01*
X156320537Y-90104494D01*
X156379502Y-89994180D01*
X156401513Y-89921620D01*
X156533368Y-90053475D01*
X156776589Y-90215990D01*
X157046842Y-90327932D01*
X157333740Y-90385000D01*
X157626260Y-90385000D01*
X157913158Y-90327932D01*
X158183411Y-90215990D01*
X158426632Y-90053475D01*
X158633475Y-89846632D01*
X158750000Y-89672240D01*
X158866525Y-89846632D01*
X159073368Y-90053475D01*
X159316589Y-90215990D01*
X159586842Y-90327932D01*
X159873740Y-90385000D01*
X160166260Y-90385000D01*
X160453158Y-90327932D01*
X160723411Y-90215990D01*
X160966632Y-90053475D01*
X161173475Y-89846632D01*
X161290000Y-89672240D01*
X161406525Y-89846632D01*
X161613368Y-90053475D01*
X161856589Y-90215990D01*
X162126842Y-90327932D01*
X162413740Y-90385000D01*
X162706260Y-90385000D01*
X162993158Y-90327932D01*
X163263411Y-90215990D01*
X163506632Y-90053475D01*
X163713475Y-89846632D01*
X163830000Y-89672240D01*
X163946525Y-89846632D01*
X164153368Y-90053475D01*
X164396589Y-90215990D01*
X164666842Y-90327932D01*
X164953740Y-90385000D01*
X165246260Y-90385000D01*
X165533158Y-90327932D01*
X165803411Y-90215990D01*
X166046632Y-90053475D01*
X166253475Y-89846632D01*
X166375195Y-89664466D01*
X166444822Y-89781355D01*
X166639731Y-89997588D01*
X166873080Y-90171641D01*
X167069598Y-90265245D01*
X154599397Y-102735446D01*
X154446335Y-102705000D01*
X154163665Y-102705000D01*
X153886426Y-102760147D01*
X153625273Y-102868320D01*
X153390241Y-103025363D01*
X153190363Y-103225241D01*
X153035000Y-103457759D01*
X152879637Y-103225241D01*
X152679759Y-103025363D01*
X152444727Y-102868320D01*
X152183574Y-102760147D01*
X151906335Y-102705000D01*
X151623665Y-102705000D01*
X151530758Y-102723481D01*
X149375000Y-100567723D01*
X149375000Y-87955157D01*
X149550157Y-87780000D01*
X153514299Y-87780000D01*
X153500498Y-87805820D01*
G37*
X153500498Y-87805820D02*
X153464188Y-87925518D01*
X153451928Y-88050000D01*
X153451928Y-89750000D01*
X153464188Y-89874482D01*
X153500498Y-89994180D01*
X153559463Y-90104494D01*
X153638815Y-90201185D01*
X153735506Y-90280537D01*
X153845820Y-90339502D01*
X153965518Y-90375812D01*
X154090000Y-90388072D01*
X155790000Y-90388072D01*
X155914482Y-90375812D01*
X156034180Y-90339502D01*
X156144494Y-90280537D01*
X156241185Y-90201185D01*
X156320537Y-90104494D01*
X156379502Y-89994180D01*
X156401513Y-89921620D01*
X156533368Y-90053475D01*
X156776589Y-90215990D01*
X157046842Y-90327932D01*
X157333740Y-90385000D01*
X157626260Y-90385000D01*
X157913158Y-90327932D01*
X158183411Y-90215990D01*
X158426632Y-90053475D01*
X158633475Y-89846632D01*
X158750000Y-89672240D01*
X158866525Y-89846632D01*
X159073368Y-90053475D01*
X159316589Y-90215990D01*
X159586842Y-90327932D01*
X159873740Y-90385000D01*
X160166260Y-90385000D01*
X160453158Y-90327932D01*
X160723411Y-90215990D01*
X160966632Y-90053475D01*
X161173475Y-89846632D01*
X161290000Y-89672240D01*
X161406525Y-89846632D01*
X161613368Y-90053475D01*
X161856589Y-90215990D01*
X162126842Y-90327932D01*
X162413740Y-90385000D01*
X162706260Y-90385000D01*
X162993158Y-90327932D01*
X163263411Y-90215990D01*
X163506632Y-90053475D01*
X163713475Y-89846632D01*
X163830000Y-89672240D01*
X163946525Y-89846632D01*
X164153368Y-90053475D01*
X164396589Y-90215990D01*
X164666842Y-90327932D01*
X164953740Y-90385000D01*
X165246260Y-90385000D01*
X165533158Y-90327932D01*
X165803411Y-90215990D01*
X166046632Y-90053475D01*
X166253475Y-89846632D01*
X166375195Y-89664466D01*
X166444822Y-89781355D01*
X166639731Y-89997588D01*
X166873080Y-90171641D01*
X167069598Y-90265245D01*
X154599397Y-102735446D01*
X154446335Y-102705000D01*
X154163665Y-102705000D01*
X153886426Y-102760147D01*
X153625273Y-102868320D01*
X153390241Y-103025363D01*
X153190363Y-103225241D01*
X153035000Y-103457759D01*
X152879637Y-103225241D01*
X152679759Y-103025363D01*
X152444727Y-102868320D01*
X152183574Y-102760147D01*
X151906335Y-102705000D01*
X151623665Y-102705000D01*
X151530758Y-102723481D01*
X149375000Y-100567723D01*
X149375000Y-87955157D01*
X149550157Y-87780000D01*
X153514299Y-87780000D01*
X153500498Y-87805820D01*
G36*
X167767000Y-88773000D02*
G01*
X167787000Y-88773000D01*
X167787000Y-89027000D01*
X167767000Y-89027000D01*
X167767000Y-89047000D01*
X167513000Y-89047000D01*
X167513000Y-89027000D01*
X167493000Y-89027000D01*
X167493000Y-88773000D01*
X167513000Y-88773000D01*
X167513000Y-88753000D01*
X167767000Y-88753000D01*
X167767000Y-88773000D01*
G37*
X167767000Y-88773000D02*
X167787000Y-88773000D01*
X167787000Y-89027000D01*
X167767000Y-89027000D01*
X167767000Y-89047000D01*
X167513000Y-89047000D01*
X167513000Y-89027000D01*
X167493000Y-89027000D01*
X167493000Y-88773000D01*
X167513000Y-88773000D01*
X167513000Y-88753000D01*
X167767000Y-88753000D01*
X167767000Y-88773000D01*
G36*
X207495001Y-119070158D02*
G01*
X207495000Y-121594842D01*
X207296842Y-121793000D01*
X207225000Y-121793000D01*
X207225000Y-121773740D01*
X207167932Y-121486842D01*
X207055990Y-121216589D01*
X206893475Y-120973368D01*
X206686632Y-120766525D01*
X206443411Y-120604010D01*
X206173158Y-120492068D01*
X205886260Y-120435000D01*
X205593740Y-120435000D01*
X205403082Y-120472924D01*
X202555157Y-117625000D01*
X206049843Y-117625000D01*
X207495001Y-119070158D01*
G37*
X207495001Y-119070158D02*
X207495000Y-121594842D01*
X207296842Y-121793000D01*
X207225000Y-121793000D01*
X207225000Y-121773740D01*
X207167932Y-121486842D01*
X207055990Y-121216589D01*
X206893475Y-120973368D01*
X206686632Y-120766525D01*
X206443411Y-120604010D01*
X206173158Y-120492068D01*
X205886260Y-120435000D01*
X205593740Y-120435000D01*
X205403082Y-120472924D01*
X202555157Y-117625000D01*
X206049843Y-117625000D01*
X207495001Y-119070158D01*
%TD*%
M02*
